<svg width="31" height="31" viewBox="0 0 31 31" fill="none" xmlns="http://www.w3.org/2000/svg">
<path fill-rule="evenodd" clip-rule="evenodd" d="M14.3467 -0.000163086L6.22625 7.35811L11.8676 13.5837L17.1755 8.77405C18.7288 7.36651 18.847 4.96627 17.4394 3.41295L14.3467 -0.000163086ZM2.0627 11.1312C0.923603 12.1634 0.836937 13.9236 1.86913 15.0627L16.311 31.0004L19.7241 27.9077C21.2774 26.5001 21.3956 24.0999 19.9881 22.5465L6.22582 7.35886L2.0627 11.1312Z" fill="url(#paint0_linear_1933_1100)"/>
<path d="M13.1533 15.0811L18.5909 10.1538C20.1442 8.74629 22.5445 8.86447 23.952 10.4178L25.4811 12.1053L17.231 19.5811L13.1533 15.0811Z" fill="#2550E8"/>
<path fill-rule="evenodd" clip-rule="evenodd" d="M13.2155 15.0739C9.77753 18.1896 9.51607 23.5023 12.6316 26.9405C13.3447 27.7275 14.1729 28.348 15.0675 28.7998C13.8491 25.6513 14.6114 21.9424 17.2624 19.5399L13.2155 15.0739Z" fill="#2550E8"/>
<defs>
<linearGradient id="paint0_linear_1933_1100" x1="7.17333" y1="6.49992" x2="31" y2="31" gradientUnits="userSpaceOnUse">
<stop stop-color="#4237C7"/>
<stop offset="1" stop-color="#201B61"/>
</linearGradient>
</defs>
</svg>
