<svg width="126" height="31" viewBox="0 0 126 31" fill="none" xmlns="http://www.w3.org/2000/svg">
<path fill-rule="evenodd" clip-rule="evenodd" d="M14.3467 -0.000163086L6.22625 7.35811L11.8676 13.5837L17.1755 8.77405C18.7288 7.36651 18.847 4.96627 17.4394 3.41295L14.3467 -0.000163086ZM2.0627 11.1312C0.923603 12.1634 0.836937 13.9236 1.86913 15.0627L16.311 31.0004L19.7241 27.9077C21.2774 26.5001 21.3956 24.0999 19.9881 22.5465L6.22582 7.35886L2.0627 11.1312Z" fill="white"/>
<path d="M13.1533 15.0811L18.5909 10.1538C20.1442 8.74629 22.5445 8.86447 23.952 10.4178L25.4811 12.1053L17.231 19.5811L13.1533 15.0811Z" fill="#2550EA"/>
<path fill-rule="evenodd" clip-rule="evenodd" d="M13.2155 15.0739C9.77753 18.1896 9.51607 23.5023 12.6316 26.9405C13.3447 27.7275 14.1729 28.348 15.0675 28.7998C13.8491 25.6513 14.6114 21.9424 17.2624 19.5399L13.2155 15.0739Z" fill="#2550EA"/>
<path d="M45.5557 9.06098V10.541H39.4957V15.241H44.4157V16.721H39.4957V23.001H37.6757V9.06098H45.5557ZM52.5339 23.181C51.5072 23.181 50.5739 22.9476 49.7339 22.481C48.9072 22.0143 48.2539 21.3543 47.7739 20.501C47.3072 19.6343 47.0739 18.6343 47.0739 17.501C47.0739 16.381 47.3139 15.3943 47.7939 14.541C48.2872 13.6743 48.9539 13.0143 49.7939 12.561C50.6339 12.0943 51.5739 11.861 52.6139 11.861C53.6539 11.861 54.5939 12.0943 55.4339 12.561C56.2739 13.0143 56.9339 13.6676 57.4139 14.521C57.9072 15.3743 58.1539 16.3676 58.1539 17.501C58.1539 18.6343 57.9005 19.6343 57.3939 20.501C56.9005 21.3543 56.2272 22.0143 55.3739 22.481C54.5205 22.9476 53.5739 23.181 52.5339 23.181ZM52.5339 21.581C53.1872 21.581 53.8005 21.4276 54.3739 21.121C54.9472 20.8143 55.4072 20.3543 55.7539 19.741C56.1139 19.1276 56.2939 18.381 56.2939 17.501C56.2939 16.621 56.1205 15.8743 55.7739 15.261C55.4272 14.6476 54.9739 14.1943 54.4139 13.901C53.8539 13.5943 53.2472 13.441 52.5939 13.441C51.9272 13.441 51.3139 13.5943 50.7539 13.901C50.2072 14.1943 49.7672 14.6476 49.4339 15.261C49.1005 15.8743 48.9339 16.621 48.9339 17.501C48.9339 18.3943 49.0939 19.1476 49.4139 19.761C49.7472 20.3743 50.1872 20.8343 50.7339 21.141C51.2805 21.4343 51.8805 21.581 52.5339 21.581ZM59.8668 17.501C59.8668 16.3676 60.0935 15.381 60.5468 14.541C61.0002 13.6876 61.6268 13.0276 62.4268 12.561C63.2402 12.0943 64.1668 11.861 65.2068 11.861C66.5535 11.861 67.6602 12.1876 68.5268 12.841C69.4068 13.4943 69.9868 14.401 70.2668 15.561H68.3068C68.1202 14.8943 67.7535 14.3676 67.2068 13.981C66.6735 13.5943 66.0068 13.401 65.2068 13.401C64.1668 13.401 63.3268 13.761 62.6868 14.481C62.0468 15.1876 61.7268 16.1943 61.7268 17.501C61.7268 18.821 62.0468 19.841 62.6868 20.561C63.3268 21.281 64.1668 21.641 65.2068 21.641C66.0068 21.641 66.6735 21.4543 67.2068 21.081C67.7402 20.7076 68.1068 20.1743 68.3068 19.481H70.2668C69.9735 20.601 69.3868 21.501 68.5068 22.181C67.6268 22.8476 66.5268 23.181 65.2068 23.181C64.1668 23.181 63.2402 22.9476 62.4268 22.481C61.6268 22.0143 61.0002 21.3543 60.5468 20.501C60.0935 19.6476 59.8668 18.6476 59.8668 17.501ZM72.0153 17.481C72.0153 16.361 72.2419 15.381 72.6953 14.541C73.1486 13.6876 73.7686 13.0276 74.5553 12.561C75.3553 12.0943 76.2419 11.861 77.2153 11.861C78.1753 11.861 79.0086 12.0676 79.7153 12.481C80.4219 12.8943 80.9486 13.4143 81.2953 14.041V12.041H83.1353V23.001H81.2953V20.961C80.9353 21.601 80.3953 22.1343 79.6753 22.561C78.9686 22.9743 78.1419 23.181 77.1953 23.181C76.2219 23.181 75.3419 22.941 74.5553 22.461C73.7686 21.981 73.1486 21.3076 72.6953 20.441C72.2419 19.5743 72.0153 18.5876 72.0153 17.481ZM81.2953 17.501C81.2953 16.6743 81.1286 15.9543 80.7953 15.341C80.4619 14.7276 80.0086 14.261 79.4353 13.941C78.8753 13.6076 78.2553 13.441 77.5753 13.441C76.8953 13.441 76.2753 13.601 75.7153 13.921C75.1553 14.241 74.7086 14.7076 74.3753 15.321C74.0419 15.9343 73.8753 16.6543 73.8753 17.481C73.8753 18.321 74.0419 19.0543 74.3753 19.681C74.7086 20.2943 75.1553 20.7676 75.7153 21.101C76.2753 21.421 76.8953 21.581 77.5753 21.581C78.2553 21.581 78.8753 21.421 79.4353 21.101C80.0086 20.7676 80.4619 20.2943 80.7953 19.681C81.1286 19.0543 81.2953 18.3276 81.2953 17.501ZM96.6109 13.481C96.6109 14.2943 96.4242 15.041 96.0509 15.721C95.6776 16.3876 95.1042 16.9276 94.3309 17.341C93.5576 17.7543 92.5976 17.961 91.4509 17.961H89.3309V23.001H85.9109V8.96098H91.4509C92.5709 8.96098 93.5176 9.15431 94.2909 9.54098C95.0642 9.92764 95.6442 10.461 96.0309 11.141C96.4176 11.821 96.6109 12.601 96.6109 13.481ZM91.1909 15.241C91.8442 15.241 92.3309 15.0876 92.6509 14.781C92.9709 14.4743 93.1309 14.041 93.1309 13.481C93.1309 12.921 92.9709 12.4876 92.6509 12.181C92.3309 11.8743 91.8442 11.721 91.1909 11.721H89.3309V15.241H91.1909ZM105.031 23.141C103.711 23.141 102.498 22.8343 101.391 22.221C100.298 21.6076 99.4247 20.7543 98.7714 19.661C98.1314 18.5543 97.8114 17.3143 97.8114 15.941C97.8114 14.5676 98.1314 13.3343 98.7714 12.241C99.4247 11.1476 100.298 10.2943 101.391 9.68098C102.498 9.06764 103.711 8.76098 105.031 8.76098C106.351 8.76098 107.558 9.06764 108.651 9.68098C109.758 10.2943 110.625 11.1476 111.251 12.241C111.891 13.3343 112.211 14.5676 112.211 15.941C112.211 17.3143 111.891 18.5543 111.251 19.661C110.611 20.7543 109.745 21.6076 108.651 22.221C107.558 22.8343 106.351 23.141 105.031 23.141ZM105.031 20.021C106.151 20.021 107.045 19.6476 107.711 18.901C108.391 18.1543 108.731 17.1676 108.731 15.941C108.731 14.701 108.391 13.7143 107.711 12.981C107.045 12.2343 106.151 11.861 105.031 11.861C103.898 11.861 102.991 12.2276 102.311 12.961C101.645 13.6943 101.311 14.6876 101.311 15.941C101.311 17.181 101.645 18.1743 102.311 18.921C102.991 19.6543 103.898 20.021 105.031 20.021ZM119.194 23.141C118.167 23.141 117.247 22.9743 116.434 22.641C115.621 22.3076 114.967 21.8143 114.474 21.161C113.994 20.5076 113.741 19.721 113.714 18.801H117.354C117.407 19.321 117.587 19.721 117.894 20.001C118.201 20.2676 118.601 20.401 119.094 20.401C119.601 20.401 120.001 20.2876 120.294 20.061C120.587 19.821 120.734 19.4943 120.734 19.081C120.734 18.7343 120.614 18.4476 120.374 18.221C120.147 17.9943 119.861 17.8076 119.514 17.661C119.181 17.5143 118.701 17.3476 118.074 17.161C117.167 16.881 116.427 16.601 115.854 16.321C115.281 16.041 114.787 15.6276 114.374 15.081C113.961 14.5343 113.754 13.821 113.754 12.941C113.754 11.6343 114.227 10.6143 115.174 9.88098C116.121 9.13431 117.354 8.76098 118.874 8.76098C120.421 8.76098 121.667 9.13431 122.614 9.88098C123.561 10.6143 124.067 11.641 124.134 12.961H120.434C120.407 12.5076 120.241 12.1543 119.934 11.901C119.627 11.6343 119.234 11.501 118.754 11.501C118.341 11.501 118.007 11.6143 117.754 11.841C117.501 12.0543 117.374 12.3676 117.374 12.781C117.374 13.2343 117.587 13.5876 118.014 13.841C118.441 14.0943 119.107 14.3676 120.014 14.661C120.921 14.9676 121.654 15.261 122.214 15.541C122.787 15.821 123.281 16.2276 123.694 16.761C124.107 17.2943 124.314 17.981 124.314 18.821C124.314 19.621 124.107 20.3476 123.694 21.001C123.294 21.6543 122.707 22.1743 121.934 22.561C121.161 22.9476 120.247 23.141 119.194 23.141Z" fill="white"/>
</svg>
