<svg width="200" height="40" viewBox="0 0 200 40" fill="none" xmlns="http://www.w3.org/2000/svg">
<rect y="15.2275" width="7.61378" height="7.61379" fill="#1D4ED8"/>
<rect x="22.8413" y="22.8408" width="7.61379" height="7.61378" transform="rotate(180 22.8413 22.8408)" fill="#1E3A8A"/>
<path d="M7.61377 15.2271L15.2276 7.61328V15.2271L7.61377 22.8409V15.2271Z" fill="#ECF4FF"/>
<path d="M15.2275 22.8413L7.61376 30.4551L7.61376 22.8413L15.2275 15.2275L15.2275 22.8413Z" fill="#DBEAFE"/>
<path d="M0 15.2276L15.2276 0V7.61379L7.61378 15.2276H0Z" fill="#3B82F6"/>
<path d="M22.8413 22.8418L7.61374 38.0693L7.61374 30.4556L15.2275 22.8418L22.8413 22.8418Z" fill="#3B82F6"/>
<path d="M40.76 20.24C39.8133 20.24 38.9333 20.0667 38.12 19.72C37.32 19.3733 36.6267 18.8933 36.04 18.28C35.4667 17.6533 35.0467 16.9267 34.78 16.1L37.04 15.12C37.4 15.9733 37.92 16.6467 38.6 17.14C39.28 17.62 40.0467 17.86 40.9 17.86C41.38 17.86 41.7933 17.7867 42.14 17.64C42.5 17.48 42.7733 17.2667 42.96 17C43.16 16.7333 43.26 16.4133 43.26 16.04C43.26 15.6 43.1267 15.24 42.86 14.96C42.6067 14.6667 42.22 14.44 41.7 14.28L38.84 13.36C37.68 13 36.8067 12.46 36.22 11.74C35.6333 11.02 35.34 10.1733 35.34 9.2C35.34 8.34667 35.5467 7.59333 35.96 6.94C36.3867 6.28667 36.9733 5.78 37.72 5.42C38.48 5.04667 39.3467 4.86 40.32 4.86C41.2133 4.86 42.0333 5.02 42.78 5.34C43.5267 5.64667 44.1667 6.08 44.7 6.64C45.2467 7.18667 45.6533 7.83333 45.92 8.58L43.68 9.58C43.3867 8.83333 42.9467 8.26 42.36 7.86C41.7733 7.44667 41.0933 7.24 40.32 7.24C39.8667 7.24 39.4667 7.32 39.12 7.48C38.7733 7.62667 38.5 7.84 38.3 8.12C38.1133 8.38667 38.02 8.70667 38.02 9.08C38.02 9.49333 38.1533 9.86 38.42 10.18C38.6867 10.4867 39.0933 10.7267 39.64 10.9L42.38 11.76C43.5667 12.1467 44.4533 12.68 45.04 13.36C45.64 14.04 45.94 14.88 45.94 15.88C45.94 16.7333 45.72 17.4867 45.28 18.14C44.84 18.7933 44.2333 19.3067 43.46 19.68C42.6867 20.0533 41.7867 20.24 40.76 20.24ZM53.3292 20.24C52.2092 20.24 51.2292 19.9867 50.3892 19.48C49.5492 18.9733 48.8959 18.2867 48.4292 17.42C47.9626 16.5533 47.7292 15.5933 47.7292 14.54C47.7292 13.4467 47.9626 12.48 48.4292 11.64C48.9092 10.7867 49.5559 10.1133 50.3692 9.62C51.1959 9.12667 52.1159 8.88 53.1292 8.88C53.9826 8.88 54.7292 9.02 55.3692 9.3C56.0226 9.58 56.5759 9.96667 57.0292 10.46C57.4826 10.9533 57.8292 11.52 58.0692 12.16C58.3092 12.7867 58.4292 13.4667 58.4292 14.2C58.4292 14.3867 58.4159 14.58 58.3892 14.78C58.3759 14.98 58.3426 15.1533 58.2892 15.3H49.8892V13.3H56.8092L55.5692 14.24C55.6892 13.6267 55.6559 13.08 55.4692 12.6C55.2959 12.12 55.0026 11.74 54.5892 11.46C54.1892 11.18 53.7026 11.04 53.1292 11.04C52.5826 11.04 52.0959 11.18 51.6692 11.46C51.2426 11.7267 50.9159 12.1267 50.6892 12.66C50.4759 13.18 50.3959 13.8133 50.4492 14.56C50.3959 15.2267 50.4826 15.82 50.7092 16.34C50.9492 16.8467 51.2959 17.24 51.7492 17.52C52.2159 17.8 52.7492 17.94 53.3492 17.94C53.9492 17.94 54.4559 17.8133 54.8692 17.56C55.2959 17.3067 55.6292 16.9667 55.8692 16.54L57.9892 17.58C57.7759 18.1 57.4426 18.56 56.9892 18.96C56.5359 19.36 55.9959 19.6733 55.3692 19.9C54.7559 20.1267 54.0759 20.24 53.3292 20.24ZM60.4153 20V9.12H62.8753V11.26L62.6753 10.88C62.9286 10.2267 63.342 9.73333 63.9153 9.4C64.502 9.05333 65.182 8.88 65.9553 8.88C66.7553 8.88 67.462 9.05333 68.0753 9.4C68.702 9.74667 69.1886 10.2333 69.5353 10.86C69.882 11.4733 70.0553 12.1867 70.0553 13V20H67.4353V13.62C67.4353 13.14 67.342 12.7267 67.1553 12.38C66.9686 12.0333 66.7086 11.7667 66.3753 11.58C66.0553 11.38 65.6753 11.28 65.2353 11.28C64.8086 11.28 64.4286 11.38 64.0953 11.58C63.762 11.7667 63.502 12.0333 63.3153 12.38C63.1286 12.7267 63.0353 13.14 63.0353 13.62V20H60.4153ZM77.2308 20.12C76.0041 20.12 75.0508 19.7867 74.3708 19.12C73.7041 18.44 73.3708 17.4867 73.3708 16.26V11.46H71.4908V9.12H71.6908C72.2241 9.12 72.6374 8.98 72.9308 8.7C73.2241 8.42 73.3708 8.01333 73.3708 7.48V6.64H75.9908V9.12H78.4908V11.46H75.9908V16.12C75.9908 16.48 76.0508 16.7867 76.1708 17.04C76.3041 17.2933 76.5041 17.4867 76.7708 17.62C77.0508 17.7533 77.4041 17.82 77.8308 17.82C77.9241 17.82 78.0308 17.8133 78.1508 17.8C78.2841 17.7867 78.4108 17.7733 78.5308 17.76V20C78.3441 20.0267 78.1308 20.0533 77.8908 20.08C77.6508 20.1067 77.4308 20.12 77.2308 20.12ZM80.5325 20V9.12H82.9925V11.54L82.7925 11.18C83.0458 10.3667 83.4392 9.8 83.9725 9.48C84.5192 9.16 85.1725 9 85.9325 9H86.5725V11.32H85.6325C84.8858 11.32 84.2858 11.5533 83.8325 12.02C83.3792 12.4733 83.1525 13.1133 83.1525 13.94V20H80.5325ZM91.313 20.24C90.553 20.24 89.893 20.1133 89.333 19.86C88.773 19.6067 88.3396 19.2467 88.033 18.78C87.7263 18.3 87.573 17.7467 87.573 17.12C87.573 16.52 87.7063 15.9867 87.973 15.52C88.2396 15.04 88.653 14.64 89.213 14.32C89.773 14 90.4796 13.7733 91.333 13.64L94.893 13.06V15.06L91.833 15.58C91.313 15.6733 90.9263 15.84 90.673 16.08C90.4196 16.32 90.293 16.6333 90.293 17.02C90.293 17.3933 90.433 17.6933 90.713 17.92C91.0063 18.1333 91.3663 18.24 91.793 18.24C92.3396 18.24 92.8196 18.1267 93.233 17.9C93.6596 17.66 93.9863 17.3333 94.213 16.92C94.453 16.5067 94.573 16.0533 94.573 15.56V12.76C94.573 12.2933 94.3863 11.9067 94.013 11.6C93.653 11.28 93.173 11.12 92.573 11.12C92.013 11.12 91.513 11.2733 91.073 11.58C90.6463 11.8733 90.333 12.2667 90.133 12.76L87.993 11.72C88.2063 11.1467 88.5396 10.6533 88.993 10.24C89.4596 9.81333 90.0063 9.48 90.633 9.24C91.2596 9 91.9396 8.88 92.673 8.88C93.5663 8.88 94.353 9.04667 95.033 9.38C95.713 9.7 96.2396 10.1533 96.613 10.74C96.9996 11.3133 97.193 11.9867 97.193 12.76V20H94.713V18.14L95.273 18.1C94.993 18.5667 94.6596 18.96 94.273 19.28C93.8863 19.5867 93.4463 19.8267 92.953 20C92.4596 20.16 91.913 20.24 91.313 20.24ZM103.651 20V5.1H108.771C109.744 5.1 110.597 5.29333 111.331 5.68C112.064 6.05333 112.631 6.58667 113.031 7.28C113.444 7.96 113.651 8.75333 113.651 9.66C113.651 10.5667 113.444 11.36 113.031 12.04C112.631 12.72 112.064 13.2533 111.331 13.64C110.611 14.0133 109.757 14.2 108.771 14.2H105.251V20H103.651ZM105.251 12.7H108.851C109.491 12.7 110.051 12.58 110.531 12.34C111.011 12.0867 111.384 11.7333 111.651 11.28C111.917 10.8133 112.051 10.2667 112.051 9.64C112.051 9.01333 111.917 8.47333 111.651 8.02C111.384 7.56667 111.011 7.22 110.531 6.98C110.051 6.72667 109.491 6.6 108.851 6.6H105.251V12.7ZM120.082 20.24C119.336 20.24 118.656 20.0667 118.042 19.72C117.429 19.36 116.942 18.8667 116.582 18.24C116.236 17.6 116.062 16.8667 116.062 16.04V9.28H117.562V15.86C117.562 16.4333 117.676 16.94 117.902 17.38C118.142 17.8067 118.469 18.14 118.882 18.38C119.309 18.62 119.796 18.74 120.342 18.74C120.889 18.74 121.376 18.62 121.802 18.38C122.229 18.1267 122.562 17.7733 122.802 17.32C123.042 16.8533 123.162 16.3 123.162 15.66V9.28H124.662V20H123.162V17.92L123.502 18C123.249 18.6933 122.816 19.24 122.202 19.64C121.589 20.04 120.882 20.24 120.082 20.24ZM133.167 20.24C132.247 20.24 131.414 20.0333 130.667 19.62C129.934 19.1933 129.38 18.5933 129.007 17.82L129.247 17.6V20H127.747V4.86H129.247V11.68L129.007 11.26C129.434 10.58 130 10.04 130.707 9.64C131.427 9.24 132.247 9.04 133.167 9.04C134.18 9.04 135.08 9.28667 135.867 9.78C136.667 10.26 137.294 10.92 137.747 11.76C138.214 12.6 138.447 13.56 138.447 14.64C138.447 15.7067 138.214 16.6667 137.747 17.52C137.294 18.36 136.667 19.0267 135.867 19.52C135.08 20 134.18 20.24 133.167 20.24ZM133.087 18.74C133.807 18.74 134.447 18.56 135.007 18.2C135.58 17.84 136.027 17.3533 136.347 16.74C136.68 16.1133 136.847 15.4133 136.847 14.64C136.847 13.8533 136.68 13.1533 136.347 12.54C136.027 11.9267 135.58 11.44 135.007 11.08C134.447 10.72 133.807 10.54 133.087 10.54C132.367 10.54 131.714 10.72 131.127 11.08C130.554 11.44 130.094 11.9333 129.747 12.56C129.414 13.1733 129.247 13.8667 129.247 14.64C129.247 15.4133 129.414 16.1133 129.747 16.74C130.094 17.3533 130.554 17.84 131.127 18.2C131.714 18.56 132.367 18.74 133.087 18.74ZM141.087 20V4.86H142.587V20H141.087ZM145.657 20V9.28H147.157V20H145.657ZM145.657 7.3V5.1H147.157V7.3H145.657ZM153.948 20.24C152.921 20.24 152.021 19.98 151.248 19.46C150.474 18.94 149.914 18.2333 149.568 17.34L150.828 16.74C151.134 17.3933 151.561 17.9133 152.108 18.3C152.668 18.6867 153.281 18.88 153.948 18.88C154.588 18.88 155.128 18.7267 155.568 18.42C156.008 18.1 156.228 17.6867 156.228 17.18C156.228 16.8067 156.121 16.5133 155.908 16.3C155.694 16.0733 155.448 15.9 155.168 15.78C154.888 15.66 154.641 15.5733 154.428 15.52L152.888 15.08C151.901 14.8 151.188 14.4067 150.748 13.9C150.308 13.3933 150.088 12.8067 150.088 12.14C150.088 11.5133 150.248 10.9667 150.568 10.5C150.888 10.0333 151.321 9.67333 151.868 9.42C152.414 9.16667 153.021 9.04 153.688 9.04C154.594 9.04 155.414 9.28 156.148 9.76C156.894 10.2267 157.421 10.88 157.728 11.72L156.448 12.32C156.181 11.72 155.794 11.2533 155.288 10.92C154.794 10.5733 154.241 10.4 153.628 10.4C153.028 10.4 152.548 10.5533 152.188 10.86C151.828 11.1667 151.648 11.5533 151.648 12.02C151.648 12.38 151.741 12.6667 151.928 12.88C152.114 13.0933 152.328 13.2533 152.568 13.36C152.821 13.4667 153.041 13.5467 153.228 13.6L155.008 14.12C155.874 14.3733 156.548 14.7667 157.028 15.3C157.521 15.8333 157.768 16.46 157.768 17.18C157.768 17.7667 157.601 18.2933 157.268 18.76C156.948 19.2267 156.501 19.5933 155.928 19.86C155.354 20.1133 154.694 20.24 153.948 20.24ZM160.403 20V4.86H161.903V11.36L161.563 11.28C161.83 10.5867 162.263 10.04 162.863 9.64C163.477 9.24 164.183 9.04 164.983 9.04C165.743 9.04 166.423 9.21333 167.023 9.56C167.637 9.90667 168.117 10.3867 168.463 11C168.823 11.6 169.003 12.28 169.003 13.04V20H167.503V13.62C167.503 12.9667 167.383 12.4133 167.143 11.96C166.903 11.5067 166.57 11.16 166.143 10.92C165.73 10.6667 165.257 10.54 164.723 10.54C164.19 10.54 163.71 10.6667 163.283 10.92C162.857 11.16 162.517 11.5133 162.263 11.98C162.023 12.4333 161.903 12.98 161.903 13.62V20H160.403ZM171.868 20V9.28H173.368V20H171.868ZM171.868 7.3V5.1H173.368V7.3H171.868ZM176.438 20V9.28H177.938V11.36L177.598 11.28C177.865 10.5867 178.298 10.04 178.898 9.64C179.512 9.24 180.218 9.04 181.018 9.04C181.778 9.04 182.458 9.21333 183.058 9.56C183.672 9.90667 184.152 10.3867 184.498 11C184.858 11.6 185.038 12.28 185.038 13.04V20H183.538V13.62C183.538 12.9667 183.418 12.4133 183.178 11.96C182.952 11.5067 182.625 11.16 182.198 10.92C181.785 10.6667 181.305 10.54 180.758 10.54C180.212 10.54 179.725 10.6667 179.298 10.92C178.872 11.16 178.538 11.5133 178.298 11.98C178.058 12.4333 177.938 12.98 177.938 13.62V20H176.438ZM192.983 24.4C192.25 24.4 191.57 24.2867 190.943 24.06C190.33 23.8333 189.797 23.52 189.343 23.12C188.903 22.7333 188.563 22.28 188.323 21.76L189.703 21.02C189.917 21.5267 190.297 21.9667 190.843 22.34C191.39 22.7133 192.09 22.9 192.943 22.9C193.597 22.9 194.197 22.7733 194.743 22.52C195.29 22.2667 195.73 21.8933 196.063 21.4C196.397 20.9067 196.563 20.3 196.563 19.58V17.2L196.803 17.42C196.43 18.1933 195.877 18.7933 195.143 19.22C194.41 19.6333 193.61 19.84 192.743 19.84C191.743 19.84 190.843 19.6 190.043 19.12C189.243 18.64 188.61 17.9933 188.143 17.18C187.69 16.3533 187.463 15.44 187.463 14.44C187.463 13.4267 187.69 12.5133 188.143 11.7C188.61 10.8867 189.237 10.24 190.023 9.76C190.823 9.28 191.73 9.04 192.743 9.04C193.61 9.04 194.397 9.24 195.103 9.64C195.823 10.04 196.39 10.58 196.803 11.26L196.563 11.68V9.28H198.063V19.58C198.063 20.5 197.843 21.32 197.403 22.04C196.977 22.7733 196.377 23.3467 195.603 23.76C194.843 24.1867 193.97 24.4 192.983 24.4ZM192.823 18.34C193.517 18.34 194.143 18.1667 194.703 17.82C195.263 17.46 195.71 16.9867 196.043 16.4C196.39 15.8 196.563 15.1467 196.563 14.44C196.563 13.7333 196.39 13.0867 196.043 12.5C195.71 11.9 195.263 11.4267 194.703 11.08C194.143 10.72 193.517 10.54 192.823 10.54C192.117 10.54 191.477 10.72 190.903 11.08C190.33 11.4267 189.877 11.8933 189.543 12.48C189.223 13.0667 189.063 13.72 189.063 14.44C189.063 15.1467 189.223 15.8 189.543 16.4C189.877 16.9867 190.323 17.46 190.883 17.82C191.457 18.1667 192.103 18.34 192.823 18.34Z" fill="#37394F"/>
<path d="M37.0063 36.064C36.4946 36.064 36.1001 35.9147 35.823 35.6162C35.5458 35.3177 35.4072 34.8913 35.4072 34.337V31.0855H34.3518V30.2859H34.6183C34.86 30.2859 35.0518 30.2078 35.194 30.0514C35.3361 29.888 35.4072 29.6854 35.4072 29.4438V28.964H36.2067V30.2859H37.4647V31.0855H36.2067V34.337C36.2067 34.5288 36.2352 34.6994 36.292 34.8487C36.3489 34.9908 36.4448 35.1045 36.5799 35.1898C36.722 35.2751 36.9103 35.3177 37.1449 35.3177C37.2017 35.3177 37.2692 35.3142 37.3474 35.3071C37.4256 35.3 37.4931 35.2929 37.55 35.2857V36C37.4647 36.0213 37.3687 36.0355 37.2621 36.0426C37.1555 36.0569 37.0702 36.064 37.0063 36.064ZM38.8321 36V27.93H39.6316V31.3946L39.4504 31.352C39.5925 30.9824 39.8235 30.691 40.1433 30.4778C40.4702 30.2646 40.8469 30.158 41.2733 30.158C41.6784 30.158 42.0409 30.2504 42.3607 30.4352C42.6876 30.62 42.9435 30.8758 43.1283 31.2028C43.3202 31.5226 43.4161 31.885 43.4161 32.2901V36H42.6166V32.5993C42.6166 32.251 42.5526 31.9561 42.4247 31.7145C42.2968 31.4728 42.1191 31.288 41.8917 31.1601C41.6713 31.0251 41.419 30.9576 41.1348 30.9576C40.8505 30.9576 40.5946 31.0251 40.3672 31.1601C40.1398 31.288 39.9585 31.4764 39.8235 31.7251C39.6956 31.9668 39.6316 32.2581 39.6316 32.5993V36H38.8321ZM47.4225 36.1279C46.8895 36.1279 46.4062 36 45.9727 35.7441C45.5462 35.4812 45.2086 35.1223 44.9599 34.6674C44.7112 34.2126 44.5868 33.6973 44.5868 33.1217C44.5868 32.546 44.7076 32.0378 44.9492 31.5972C45.1909 31.1494 45.5178 30.7977 45.93 30.5418C46.3493 30.2859 46.8184 30.158 47.3372 30.158C47.7494 30.158 48.1154 30.2362 48.4352 30.3926C48.7622 30.5418 49.0393 30.7479 49.2668 31.0109C49.4942 31.2667 49.6683 31.5581 49.7891 31.885C49.91 32.2048 49.9704 32.5353 49.9704 32.8765C49.9704 32.9475 49.9668 33.0293 49.9597 33.1217C49.9526 33.2069 49.9419 33.2958 49.9277 33.3882H45.0985V32.6419H49.4693L49.0855 32.9617C49.1495 32.5709 49.1033 32.2226 48.9469 31.917C48.7977 31.6043 48.5809 31.3591 48.2967 31.1814C48.0124 30.9966 47.6926 30.9043 47.3372 30.9043C46.9819 30.9043 46.6514 30.9966 46.3458 31.1814C46.0473 31.3662 45.8127 31.6256 45.6422 31.9597C45.4716 32.2866 45.4041 32.6775 45.4396 33.1323C45.4041 33.5872 45.4752 33.9852 45.6528 34.3263C45.8376 34.6603 46.0864 34.9197 46.3991 35.1045C46.7189 35.2893 47.06 35.3817 47.4225 35.3817C47.8418 35.3817 48.1936 35.2822 48.4779 35.0832C48.7622 34.8842 48.9931 34.6354 49.1708 34.337L49.8531 34.6994C49.7394 34.9553 49.5653 35.1934 49.3307 35.4137C49.0962 35.6269 48.8155 35.801 48.4885 35.936C48.1687 36.064 47.8134 36.1279 47.4225 36.1279ZM54.9307 36.1279C54.3835 36.1279 53.9037 35.9893 53.4915 35.7122C53.0793 35.435 52.7808 35.0583 52.596 34.5821L53.2677 34.2623C53.4311 34.6106 53.6585 34.8877 53.9499 35.0939C54.2484 35.3 54.5754 35.403 54.9307 35.403C55.2718 35.403 55.5597 35.3213 55.7942 35.1578C56.0287 34.9872 56.146 34.7669 56.146 34.4969C56.146 34.2979 56.0892 34.1415 55.9754 34.0278C55.8617 33.907 55.7302 33.8146 55.581 33.7506C55.4318 33.6867 55.3003 33.6405 55.1866 33.612L54.3657 33.3775C53.8398 33.2283 53.4595 33.0186 53.225 32.7485C52.9905 32.4785 52.8732 32.1658 52.8732 31.8104C52.8732 31.4764 52.9585 31.185 53.1291 30.9362C53.2996 30.6875 53.5306 30.4956 53.822 30.3606C54.1134 30.2255 54.4368 30.158 54.7921 30.158C55.2754 30.158 55.7125 30.2859 56.1034 30.5418C56.5014 30.7905 56.7821 31.1388 56.9455 31.5865L56.2633 31.9063C56.1211 31.5865 55.915 31.3378 55.645 31.1601C55.382 30.9753 55.0871 30.8829 54.7601 30.8829C54.4403 30.8829 54.1845 30.9647 53.9926 31.1281C53.8007 31.2916 53.7047 31.4977 53.7047 31.7464C53.7047 31.9383 53.7545 32.0911 53.854 32.2048C53.9535 32.3186 54.0672 32.4038 54.1951 32.4607C54.3302 32.5176 54.4474 32.5602 54.5469 32.5886L55.4957 32.8658C55.9577 33.0008 56.3166 33.2105 56.5724 33.4948C56.8354 33.7791 56.9669 34.1131 56.9669 34.4969C56.9669 34.8096 56.878 35.0903 56.7004 35.339C56.5298 35.5878 56.2917 35.7832 55.9861 35.9254C55.6805 36.0604 55.3287 36.1279 54.9307 36.1279ZM60.9258 36.1279C60.3856 36.1279 59.8953 36 59.4546 35.7441C59.014 35.4812 58.6622 35.1258 58.3992 34.6781C58.1434 34.2232 58.0154 33.708 58.0154 33.1323C58.0154 32.5637 58.1434 32.0556 58.3992 31.6079C58.6551 31.1601 58.9998 30.8083 59.4333 30.5525C59.8739 30.2895 60.3714 30.158 60.9258 30.158C61.4801 30.158 61.9741 30.2859 62.4076 30.5418C62.8482 30.7977 63.1929 31.1494 63.4417 31.5972C63.6975 32.0449 63.8254 32.5566 63.8254 33.1323C63.8254 33.7151 63.694 34.2339 63.431 34.6888C63.168 35.1365 62.8162 35.4883 62.3756 35.7441C61.9421 36 61.4588 36.1279 60.9258 36.1279ZM60.9258 35.3284C61.3096 35.3284 61.6542 35.2324 61.9599 35.0406C62.2726 34.8487 62.5178 34.5857 62.6954 34.2517C62.8802 33.9176 62.9726 33.5445 62.9726 33.1323C62.9726 32.7201 62.8802 32.3505 62.6954 32.0236C62.5178 31.6967 62.2726 31.4373 61.9599 31.2454C61.6542 31.0535 61.3096 30.9576 60.9258 30.9576C60.542 30.9576 60.1938 31.0535 59.881 31.2454C59.5754 31.4373 59.3302 31.6967 59.1455 32.0236C58.9607 32.3505 58.8683 32.7201 58.8683 33.1323C58.8683 33.5445 58.9607 33.9176 59.1455 34.2517C59.3302 34.5857 59.5754 34.8487 59.881 35.0406C60.1938 35.2324 60.542 35.3284 60.9258 35.3284ZM65.1137 36V27.93H65.9133V36H65.1137ZM69.4535 36.1279C69.0555 36.1279 68.693 36.0355 68.3661 35.8508C68.0392 35.6589 67.7798 35.3959 67.5879 35.0619C67.4031 34.7207 67.3107 34.3298 67.3107 33.8892V30.2859H68.1103V33.7933C68.1103 34.0989 68.1707 34.3689 68.2915 34.6035C68.4194 34.8309 68.5935 35.0086 68.8139 35.1365C69.0413 35.2644 69.3007 35.3284 69.5921 35.3284C69.8835 35.3284 70.1429 35.2644 70.3703 35.1365C70.5977 35.0015 70.7754 34.8131 70.9033 34.5715C71.0313 34.3227 71.0952 34.0278 71.0952 33.6867V30.2859H71.8948V36H71.0952V34.8913L71.2764 34.9339C71.1414 35.3035 70.9104 35.5949 70.5835 35.8081C70.2566 36.0213 69.8799 36.1279 69.4535 36.1279ZM75.6026 36.064C75.0909 36.064 74.6965 35.9147 74.4193 35.6162C74.1421 35.3177 74.0036 34.8913 74.0036 34.337V31.0855H72.9482V30.2859H73.2147C73.4563 30.2859 73.6482 30.2078 73.7903 30.0514C73.9325 29.888 74.0036 29.6854 74.0036 29.4438V28.964H74.8031V30.2859H76.061V31.0855H74.8031V34.337C74.8031 34.5288 74.8315 34.6994 74.8884 34.8487C74.9452 34.9908 75.0412 35.1045 75.1762 35.1898C75.3184 35.2751 75.5067 35.3177 75.7412 35.3177C75.7981 35.3177 75.8656 35.3142 75.9438 35.3071C76.022 35.3 76.0895 35.2929 76.1463 35.2857V36C76.061 36.0213 75.9651 36.0355 75.8585 36.0426C75.7519 36.0569 75.6666 36.064 75.6026 36.064ZM77.4284 36V30.2859H78.228V36H77.4284ZM77.4284 29.2306V28.0579H78.228V29.2306H77.4284ZM82.4185 36.1279C81.8784 36.1279 81.388 36 80.9473 35.7441C80.5067 35.4812 80.1549 35.1258 79.892 34.6781C79.6361 34.2232 79.5082 33.708 79.5082 33.1323C79.5082 32.5637 79.6361 32.0556 79.892 31.6079C80.1478 31.1601 80.4925 30.8083 80.926 30.5525C81.3667 30.2895 81.8642 30.158 82.4185 30.158C82.9729 30.158 83.4668 30.2859 83.9003 30.5418C84.341 30.7977 84.6856 31.1494 84.9344 31.5972C85.1902 32.0449 85.3182 32.5566 85.3182 33.1323C85.3182 33.7151 85.1867 34.2339 84.9237 34.6888C84.6608 35.1365 84.309 35.4883 83.8683 35.7441C83.4348 36 82.9515 36.1279 82.4185 36.1279ZM82.4185 35.3284C82.8023 35.3284 83.147 35.2324 83.4526 35.0406C83.7653 34.8487 84.0105 34.5857 84.1882 34.2517C84.3729 33.9176 84.4653 33.5445 84.4653 33.1323C84.4653 32.7201 84.3729 32.3505 84.1882 32.0236C84.0105 31.6967 83.7653 31.4373 83.4526 31.2454C83.147 31.0535 82.8023 30.9576 82.4185 30.9576C82.0347 30.9576 81.6865 31.0535 81.3738 31.2454C81.0682 31.4373 80.823 31.6967 80.6382 32.0236C80.4534 32.3505 80.361 32.7201 80.361 33.1323C80.361 33.5445 80.4534 33.9176 80.6382 34.2517C80.823 34.5857 81.0682 34.8487 81.3738 35.0406C81.6865 35.2324 82.0347 35.3284 82.4185 35.3284ZM86.6064 36V30.2859H87.406V31.3946L87.2248 31.352C87.3669 30.9824 87.5979 30.691 87.9177 30.4778C88.2446 30.2646 88.6213 30.158 89.0477 30.158C89.4528 30.158 89.8153 30.2504 90.1351 30.4352C90.462 30.62 90.7179 30.8758 90.9026 31.2028C91.0945 31.5226 91.1905 31.885 91.1905 32.2901V36H90.3909V32.5993C90.3909 32.251 90.327 31.9561 90.1991 31.7145C90.0782 31.4728 89.9041 31.288 89.6767 31.1601C89.4564 31.0251 89.2005 30.9576 88.9091 30.9576C88.6177 30.9576 88.3583 31.0251 88.1309 31.1601C87.9035 31.288 87.7258 31.4764 87.5979 31.7251C87.47 31.9668 87.406 32.2581 87.406 32.5993V36H86.6064ZM96.9611 36.1279C96.421 36.1279 95.9306 36 95.49 35.7441C95.0493 35.4812 94.6975 35.1258 94.4346 34.6781C94.1787 34.2232 94.0508 33.708 94.0508 33.1323C94.0508 32.5637 94.1787 32.0556 94.4346 31.6079C94.6904 31.1601 95.0351 30.8083 95.4686 30.5525C95.9093 30.2895 96.4068 30.158 96.9611 30.158C97.5155 30.158 98.0094 30.2859 98.4429 30.5418C98.8836 30.7977 99.2283 31.1494 99.477 31.5972C99.7329 32.0449 99.8608 32.5566 99.8608 33.1323C99.8608 33.7151 99.7293 34.2339 99.4663 34.6888C99.2034 35.1365 98.8516 35.4883 98.4109 35.7441C97.9774 36 97.4941 36.1279 96.9611 36.1279ZM96.9611 35.3284C97.3449 35.3284 97.6896 35.2324 97.9952 35.0406C98.3079 34.8487 98.5531 34.5857 98.7308 34.2517C98.9155 33.9176 99.0079 33.5445 99.0079 33.1323C99.0079 32.7201 98.9155 32.3505 98.7308 32.0236C98.5531 31.6967 98.3079 31.4373 97.9952 31.2454C97.6896 31.0535 97.3449 30.9576 96.9611 30.9576C96.5773 30.9576 96.2291 31.0535 95.9164 31.2454C95.6108 31.4373 95.3656 31.6967 95.1808 32.0236C94.996 32.3505 94.9036 32.7201 94.9036 33.1323C94.9036 33.5445 94.996 33.9176 95.1808 34.2517C95.3656 34.5857 95.6108 34.8487 95.9164 35.0406C96.2291 35.2324 96.5773 35.3284 96.9611 35.3284ZM101.527 36V31.0855H100.386V30.2859H101.527V29.7742C101.527 29.3762 101.616 29.0422 101.794 28.7721C101.971 28.495 102.206 28.2853 102.497 28.1432C102.789 28.001 103.101 27.93 103.435 27.93C103.506 27.93 103.588 27.9371 103.681 27.9513C103.773 27.9584 103.848 27.9691 103.904 27.9833V28.7082C103.855 28.694 103.787 28.6869 103.702 28.6869C103.617 28.6798 103.556 28.6762 103.521 28.6762C103.18 28.6762 102.895 28.7579 102.668 28.9214C102.44 29.0849 102.327 29.3691 102.327 29.7742V30.2859H103.723V31.0855H102.327V36H101.527ZM108.879 36.064C108.367 36.064 107.973 35.9147 107.696 35.6162C107.419 35.3177 107.28 34.8913 107.28 34.337V31.0855H106.225V30.2859H106.491C106.733 30.2859 106.925 30.2078 107.067 30.0514C107.209 29.888 107.28 29.6854 107.28 29.4438V28.964H108.08V30.2859H109.338V31.0855H108.08V34.337C108.08 34.5288 108.108 34.6994 108.165 34.8487C108.222 34.9908 108.318 35.1045 108.453 35.1898C108.595 35.2751 108.783 35.3177 109.018 35.3177C109.075 35.3177 109.142 35.3142 109.22 35.3071C109.298 35.3 109.366 35.2929 109.423 35.2857V36C109.338 36.0213 109.242 36.0355 109.135 36.0426C109.028 36.0569 108.943 36.064 108.879 36.064ZM110.705 36V30.2859H111.504V31.2241L111.398 31.0855C111.533 30.8154 111.735 30.6022 112.006 30.4459C112.283 30.2895 112.617 30.2113 113.008 30.2113H113.37V31.0109H112.869C112.457 31.0109 112.126 31.1388 111.878 31.3946C111.629 31.6505 111.504 32.013 111.504 32.482V36H110.705ZM116.211 36.1279C115.813 36.1279 115.45 36.0355 115.123 35.8508C114.796 35.6589 114.537 35.3959 114.345 35.0619C114.16 34.7207 114.068 34.3298 114.068 33.8892V30.2859H114.867V33.7933C114.867 34.0989 114.928 34.3689 115.049 34.6035C115.177 34.8309 115.351 35.0086 115.571 35.1365C115.799 35.2644 116.058 35.3284 116.349 35.3284C116.641 35.3284 116.9 35.2644 117.128 35.1365C117.355 35.0015 117.533 34.8131 117.661 34.5715C117.788 34.3227 117.852 34.0278 117.852 33.6867V30.2859H118.652V36H117.852V34.8913L118.034 34.9339C117.899 35.3035 117.668 35.5949 117.341 35.8081C117.014 36.0213 116.637 36.1279 116.211 36.1279ZM122.157 36.1279C121.61 36.1279 121.13 35.9893 120.718 35.7122C120.306 35.435 120.007 35.0583 119.823 34.5821L120.494 34.2623C120.658 34.6106 120.885 34.8877 121.177 35.0939C121.475 35.3 121.802 35.403 122.157 35.403C122.498 35.403 122.786 35.3213 123.021 35.1578C123.255 34.9872 123.373 34.7669 123.373 34.4969C123.373 34.2979 123.316 34.1415 123.202 34.0278C123.088 33.907 122.957 33.8146 122.808 33.7506C122.658 33.6867 122.527 33.6405 122.413 33.612L121.592 33.3775C121.066 33.2283 120.686 33.0186 120.452 32.7485C120.217 32.4785 120.1 32.1658 120.1 31.8104C120.1 31.4764 120.185 31.185 120.356 30.9362C120.526 30.6875 120.757 30.4956 121.049 30.3606C121.34 30.2255 121.663 30.158 122.019 30.158C122.502 30.158 122.939 30.2859 123.33 30.5418C123.728 30.7905 124.009 31.1388 124.172 31.5865L123.49 31.9063C123.348 31.5865 123.142 31.3378 122.872 31.1601C122.609 30.9753 122.314 30.8829 121.987 30.8829C121.667 30.8829 121.411 30.9647 121.219 31.1281C121.027 31.2916 120.931 31.4977 120.931 31.7464C120.931 31.9383 120.981 32.0911 121.081 32.2048C121.18 32.3186 121.294 32.4038 121.422 32.4607C121.557 32.5176 121.674 32.5602 121.774 32.5886L122.722 32.8658C123.184 33.0008 123.543 33.2105 123.799 33.4948C124.062 33.7791 124.193 34.1131 124.193 34.4969C124.193 34.8096 124.105 35.0903 123.927 35.339C123.756 35.5878 123.518 35.7832 123.213 35.9254C122.907 36.0604 122.555 36.1279 122.157 36.1279ZM127.662 36.064C127.15 36.064 126.756 35.9147 126.479 35.6162C126.202 35.3177 126.063 34.8913 126.063 34.337V31.0855H125.008V30.2859H125.274C125.516 30.2859 125.708 30.2078 125.85 30.0514C125.992 29.888 126.063 29.6854 126.063 29.4438V28.964H126.862V30.2859H128.12V31.0855H126.862V34.337C126.862 34.5288 126.891 34.6994 126.948 34.8487C127.005 34.9908 127.101 35.1045 127.236 35.1898C127.378 35.2751 127.566 35.3177 127.801 35.3177C127.857 35.3177 127.925 35.3142 128.003 35.3071C128.081 35.3 128.149 35.2929 128.206 35.2857V36C128.12 36.0213 128.024 36.0355 127.918 36.0426C127.811 36.0569 127.726 36.064 127.662 36.064ZM131.881 36.1279C131.348 36.1279 130.864 36 130.431 35.7441C130.004 35.4812 129.667 35.1223 129.418 34.6674C129.169 34.2126 129.045 33.6973 129.045 33.1217C129.045 32.546 129.166 32.0378 129.408 31.5972C129.649 31.1494 129.976 30.7977 130.388 30.5418C130.808 30.2859 131.277 30.158 131.795 30.158C132.208 30.158 132.574 30.2362 132.894 30.3926C133.22 30.5418 133.498 30.7479 133.725 31.0109C133.952 31.2667 134.127 31.5581 134.247 31.885C134.368 32.2048 134.429 32.5353 134.429 32.8765C134.429 32.9475 134.425 33.0293 134.418 33.1217C134.411 33.2069 134.4 33.2958 134.386 33.3882H129.557V32.6419H133.928L133.544 32.9617C133.608 32.5709 133.562 32.2226 133.405 31.917C133.256 31.6043 133.039 31.3591 132.755 31.1814C132.471 30.9966 132.151 30.9043 131.795 30.9043C131.44 30.9043 131.11 30.9966 130.804 31.1814C130.506 31.3662 130.271 31.6256 130.1 31.9597C129.93 32.2866 129.862 32.6775 129.898 33.1323C129.862 33.5872 129.933 33.9852 130.111 34.3263C130.296 34.6603 130.545 34.9197 130.857 35.1045C131.177 35.2893 131.518 35.3817 131.881 35.3817C132.3 35.3817 132.652 35.2822 132.936 35.0832C133.22 34.8842 133.451 34.6354 133.629 34.337L134.311 34.6994C134.198 34.9553 134.024 35.1934 133.789 35.4137C133.554 35.6269 133.274 35.801 132.947 35.936C132.627 36.064 132.272 36.1279 131.881 36.1279ZM138.296 36.1279C137.763 36.1279 137.284 36 136.857 35.7441C136.431 35.4812 136.093 35.1258 135.844 34.6781C135.603 34.2232 135.482 33.7115 135.482 33.143C135.482 32.5673 135.603 32.0556 135.844 31.6079C136.093 31.1601 136.427 30.8083 136.847 30.5525C137.273 30.2895 137.756 30.158 138.296 30.158C138.787 30.158 139.224 30.2646 139.608 30.4778C139.991 30.691 140.293 30.9789 140.514 31.3413L140.386 31.5652V27.93H141.185V36H140.386V34.7207L140.514 34.838C140.315 35.2502 140.016 35.57 139.618 35.7974C139.227 36.0178 138.787 36.1279 138.296 36.1279ZM138.339 35.3284C138.723 35.3284 139.067 35.2324 139.373 35.0406C139.686 34.8487 139.931 34.5893 140.109 34.2623C140.293 33.9283 140.386 33.5552 140.386 33.143C140.386 32.7308 140.293 32.3612 140.109 32.0343C139.931 31.7002 139.686 31.4373 139.373 31.2454C139.067 31.0535 138.723 30.9576 138.339 30.9576C137.962 30.9576 137.621 31.0535 137.316 31.2454C137.01 31.4373 136.768 31.6967 136.591 32.0236C136.42 32.3505 136.335 32.7237 136.335 33.143C136.335 33.5552 136.42 33.9283 136.591 34.2623C136.768 34.5893 137.006 34.8487 137.305 35.0406C137.611 35.2324 137.955 35.3284 138.339 35.3284ZM144.395 38.1321V30.2859H145.194V31.5652L145.066 31.3413C145.294 30.9789 145.596 30.691 145.973 30.4778C146.356 30.2646 146.793 30.158 147.284 30.158C147.824 30.158 148.304 30.2895 148.723 30.5525C149.149 30.8083 149.483 31.1601 149.725 31.6079C149.974 32.0556 150.098 32.5673 150.098 33.143C150.098 33.7115 149.974 34.2232 149.725 34.6781C149.483 35.1258 149.149 35.4812 148.723 35.7441C148.304 36 147.824 36.1279 147.284 36.1279C146.793 36.1279 146.349 36.0178 145.951 35.7974C145.56 35.57 145.265 35.2502 145.066 34.838L145.194 34.7207V38.1321H144.395ZM147.241 35.3284C147.625 35.3284 147.966 35.2324 148.265 35.0406C148.57 34.8487 148.808 34.5893 148.979 34.2623C149.156 33.9283 149.245 33.5552 149.245 33.143C149.245 32.7237 149.156 32.3505 148.979 32.0236C148.808 31.6967 148.57 31.4373 148.265 31.2454C147.966 31.0535 147.625 30.9576 147.241 30.9576C146.857 30.9576 146.509 31.0535 146.196 31.2454C145.891 31.4373 145.646 31.7002 145.461 32.0343C145.283 32.3612 145.194 32.7308 145.194 33.143C145.194 33.5552 145.283 33.9283 145.461 34.2623C145.646 34.5893 145.891 34.8487 146.196 35.0406C146.509 35.2324 146.857 35.3284 147.241 35.3284ZM153.409 36.1279C153.011 36.1279 152.648 36.0355 152.322 35.8508C151.995 35.6589 151.735 35.3959 151.543 35.0619C151.359 34.7207 151.266 34.3298 151.266 33.8892V30.2859H152.066V33.7933C152.066 34.0989 152.126 34.3689 152.247 34.6035C152.375 34.8309 152.549 35.0086 152.769 35.1365C152.997 35.2644 153.256 35.3284 153.548 35.3284C153.839 35.3284 154.098 35.2644 154.326 35.1365C154.553 35.0015 154.731 34.8131 154.859 34.5715C154.987 34.3227 155.051 34.0278 155.051 33.6867V30.2859H155.85V36H155.051V34.8913L155.232 34.9339C155.097 35.3035 154.866 35.5949 154.539 35.8081C154.212 36.0213 153.835 36.1279 153.409 36.1279ZM160.262 36.1279C159.771 36.1279 159.327 36.0178 158.929 35.7974C158.538 35.57 158.243 35.2502 158.044 34.838L158.172 34.7207V36H157.373V27.93H158.172V31.5652L158.044 31.3413C158.272 30.9789 158.574 30.691 158.95 30.4778C159.334 30.2646 159.771 30.158 160.262 30.158C160.802 30.158 161.282 30.2895 161.701 30.5525C162.127 30.8083 162.461 31.1601 162.703 31.6079C162.952 32.0556 163.076 32.5673 163.076 33.143C163.076 33.7115 162.952 34.2232 162.703 34.6781C162.461 35.1258 162.127 35.4812 161.701 35.7441C161.282 36 160.802 36.1279 160.262 36.1279ZM160.219 35.3284C160.603 35.3284 160.944 35.2324 161.242 35.0406C161.548 34.8487 161.786 34.5893 161.957 34.2623C162.134 33.9283 162.223 33.5552 162.223 33.143C162.223 32.7237 162.134 32.3505 161.957 32.0236C161.786 31.6967 161.548 31.4373 161.242 31.2454C160.944 31.0535 160.603 30.9576 160.219 30.9576C159.835 30.9576 159.487 31.0535 159.174 31.2454C158.869 31.4373 158.624 31.7002 158.439 32.0343C158.261 32.3612 158.172 32.7308 158.172 33.143C158.172 33.5552 158.261 33.9283 158.439 34.2623C158.624 34.5893 158.869 34.8487 159.174 35.0406C159.487 35.2324 159.835 35.3284 160.219 35.3284ZM164.361 36V27.93H165.161V36H164.361ZM166.676 36V30.2859H167.475V36H166.676ZM166.676 29.2306V28.0579H167.475V29.2306H166.676ZM171.602 36.1279C171.04 36.1279 170.546 35.9964 170.12 35.7335C169.693 35.4705 169.359 35.1152 169.118 34.6674C168.876 34.2126 168.755 33.7009 168.755 33.1323C168.755 32.5637 168.876 32.0556 169.118 31.6079C169.359 31.1601 169.693 30.8083 170.12 30.5525C170.546 30.2895 171.04 30.158 171.602 30.158C171.957 30.158 172.291 30.222 172.604 30.3499C172.917 30.4778 173.194 30.652 173.435 30.8723C173.677 31.0855 173.858 31.3342 173.979 31.6185L173.254 31.9916C173.112 31.686 172.895 31.4373 172.604 31.2454C172.312 31.0535 171.978 30.9576 171.602 30.9576C171.225 30.9576 170.884 31.0535 170.578 31.2454C170.28 31.4302 170.042 31.6896 169.864 32.0236C169.693 32.3505 169.608 32.7237 169.608 33.143C169.608 33.5552 169.693 33.9283 169.864 34.2623C170.042 34.5893 170.28 34.8487 170.578 35.0406C170.884 35.2324 171.225 35.3284 171.602 35.3284C171.978 35.3284 172.309 35.2324 172.593 35.0406C172.885 34.8487 173.105 34.5928 173.254 34.273L173.979 34.6674C173.858 34.9446 173.677 35.1934 173.435 35.4137C173.194 35.634 172.917 35.8081 172.604 35.936C172.291 36.064 171.957 36.1279 171.602 36.1279ZM176.808 36.1279C176.446 36.1279 176.123 36.0604 175.838 35.9254C175.554 35.7832 175.33 35.5913 175.167 35.3497C175.003 35.1081 174.922 34.8309 174.922 34.5182C174.922 34.2197 174.986 33.9496 175.113 33.708C175.241 33.4592 175.44 33.2496 175.71 33.079C175.981 32.9084 176.325 32.7876 176.745 32.7166L178.983 32.3434V33.0683L176.936 33.4095C176.524 33.4806 176.226 33.612 176.041 33.8039C175.863 33.9958 175.774 34.2232 175.774 34.4862C175.774 34.7421 175.874 34.9588 176.073 35.1365C176.279 35.3142 176.542 35.403 176.862 35.403C177.253 35.403 177.594 35.3213 177.885 35.1578C178.177 34.9872 178.404 34.7598 178.567 34.4755C178.731 34.1913 178.813 33.875 178.813 33.5268V32.0769C178.813 31.7358 178.688 31.4586 178.44 31.2454C178.191 31.0322 177.867 30.9256 177.469 30.9256C177.121 30.9256 176.816 31.0144 176.553 31.1921C176.29 31.3627 176.094 31.5865 175.966 31.8637L175.241 31.4693C175.348 31.2276 175.515 31.0073 175.742 30.8083C175.977 30.6093 176.243 30.453 176.542 30.3392C176.84 30.2184 177.15 30.158 177.469 30.158C177.889 30.158 178.258 30.2397 178.578 30.4032C178.905 30.5667 179.157 30.7941 179.335 31.0855C179.52 31.3698 179.612 31.7002 179.612 32.0769V36H178.813V34.8593L178.93 34.9766C178.83 35.1898 178.674 35.3852 178.461 35.5629C178.255 35.7335 178.01 35.8721 177.725 35.9787C177.448 36.0782 177.143 36.1279 176.808 36.1279ZM183.216 36.064C182.705 36.064 182.31 35.9147 182.033 35.6162C181.756 35.3177 181.617 34.8913 181.617 34.337V31.0855H180.562V30.2859H180.828C181.07 30.2859 181.262 30.2078 181.404 30.0514C181.546 29.888 181.617 29.6854 181.617 29.4438V28.964H182.417V30.2859H183.675V31.0855H182.417V34.337C182.417 34.5288 182.445 34.6994 182.502 34.8487C182.559 34.9908 182.655 35.1045 182.79 35.1898C182.932 35.2751 183.12 35.3177 183.355 35.3177C183.412 35.3177 183.479 35.3142 183.557 35.3071C183.636 35.3 183.703 35.2929 183.76 35.2857V36C183.675 36.0213 183.579 36.0355 183.472 36.0426C183.365 36.0569 183.28 36.064 183.216 36.064ZM185.042 36V30.2859H185.842V36H185.042ZM185.042 29.2306V28.0579H185.842V29.2306H185.042ZM190.032 36.1279C189.492 36.1279 189.002 36 188.561 35.7441C188.12 35.4812 187.769 35.1258 187.506 34.6781C187.25 34.2232 187.122 33.708 187.122 33.1323C187.122 32.5637 187.25 32.0556 187.506 31.6079C187.761 31.1601 188.106 30.8083 188.54 30.5525C188.98 30.2895 189.478 30.158 190.032 30.158C190.586 30.158 191.08 30.2859 191.514 30.5418C191.955 30.7977 192.299 31.1494 192.548 31.5972C192.804 32.0449 192.932 32.5566 192.932 33.1323C192.932 33.7151 192.8 34.2339 192.537 34.6888C192.274 35.1365 191.923 35.4883 191.482 35.7441C191.048 36 190.565 36.1279 190.032 36.1279ZM190.032 35.3284C190.416 35.3284 190.761 35.2324 191.066 35.0406C191.379 34.8487 191.624 34.5857 191.802 34.2517C191.987 33.9176 192.079 33.5445 192.079 33.1323C192.079 32.7201 191.987 32.3505 191.802 32.0236C191.624 31.6967 191.379 31.4373 191.066 31.2454C190.761 31.0535 190.416 30.9576 190.032 30.9576C189.648 30.9576 189.3 31.0535 188.987 31.2454C188.682 31.4373 188.437 31.6967 188.252 32.0236C188.067 32.3505 187.975 32.7201 187.975 33.1323C187.975 33.5445 188.067 33.9176 188.252 34.2517C188.437 34.5857 188.682 34.8487 188.987 35.0406C189.3 35.2324 189.648 35.3284 190.032 35.3284ZM194.22 36V30.2859H195.02V31.3946L194.838 31.352C194.981 30.9824 195.211 30.691 195.531 30.4778C195.858 30.2646 196.235 30.158 196.661 30.158C197.066 30.158 197.429 30.2504 197.749 30.4352C198.076 30.62 198.331 30.8758 198.516 31.2028C198.708 31.5226 198.804 31.885 198.804 32.2901V36H198.005V32.5993C198.005 32.251 197.941 31.9561 197.813 31.7145C197.692 31.4728 197.518 31.288 197.29 31.1601C197.07 31.0251 196.814 30.9576 196.523 30.9576C196.231 30.9576 195.972 31.0251 195.745 31.1601C195.517 31.288 195.339 31.4764 195.211 31.7251C195.084 31.9668 195.02 32.2581 195.02 32.5993V36H194.22Z" fill="#717276"/>
</svg>
