<svg width="880" height="737" viewBox="0 0 880 737" fill="none" xmlns="http://www.w3.org/2000/svg">
<mask id="mask0_1953_2602" style="mask-type:alpha" maskUnits="userSpaceOnUse" x="-116" y="19" width="930" height="686">
<path d="M401.57 277.496C401.57 347.531 355.265 404.306 298.144 404.306C241.024 404.306 -115.859 158.667 -115.859 88.632C-115.859 18.5973 396.912 115.013 454.033 115.013C511.153 115.013 401.57 207.462 401.57 277.496Z" fill="url(#paint0_linear_1953_2602)"/>
<path d="M441.74 577.603C441.74 647.637 395.435 704.412 338.314 704.412C281.194 704.412 -37.0166 688.087 -37.0166 618.052C-37.0166 548.018 -13.4949 382.122 43.6256 382.122C100.746 382.122 441.74 507.568 441.74 577.603Z" fill="url(#paint1_radial_1953_2602)"/>
<path d="M559.065 277.689C713.186 416.887 641.992 346.934 774.368 343.41C795.135 347.41 830.388 347.6 805.271 316.358C773.875 277.306 783.994 249.723 744.757 207.175C705.52 164.627 681.624 121.399 622.388 53.7282C563.151 -13.943 558.594 41.8403 491.812 36.5522C425.03 31.2641 455.489 39.6618 363.347 137.85C271.205 236.038 404.944 138.49 559.065 277.689Z" fill="#D9D9D9"/>
<path d="M413.562 496.639C207.31 520.922 306.839 513.427 222.299 615.354C205.611 628.345 182.248 654.746 222.299 656.425C272.364 658.523 286.453 684.305 344.312 682.806C402.17 681.307 450.436 691.799 540.371 691.799C630.307 691.799 591.335 651.628 639.3 604.862C687.266 558.095 660.885 575.483 647.694 441.479C634.504 307.475 619.814 472.357 413.562 496.639Z" fill="#D9D9D9"/>
</mask>
<g mask="url(#mask0_1953_2602)">
<line x1="25.6406" y1="422.892" x2="744.525" y2="422.892" stroke="white" stroke-opacity="0.09" stroke-width="0.59957"/>
<line x1="25.6406" y1="576.382" x2="744.525" y2="576.382" stroke="white" stroke-opacity="0.09" stroke-width="0.59957"/>
<line x1="25.6406" y1="269.403" x2="744.525" y2="269.403" stroke="white" stroke-opacity="0.09" stroke-width="0.59957"/>
<line x1="25.6406" y1="115.912" x2="744.525" y2="115.912" stroke="white" stroke-opacity="0.09" stroke-width="0.59957"/>
<line x1="25.6406" y1="653.127" x2="744.525" y2="653.127" stroke="white" stroke-opacity="0.09" stroke-width="0.59957"/>
<line x1="25.6406" y1="346.147" x2="744.525" y2="346.147" stroke="white" stroke-opacity="0.09" stroke-width="0.59957"/>
<line x1="25.6406" y1="499.636" x2="744.525" y2="499.636" stroke="white" stroke-opacity="0.09" stroke-width="0.59957"/>
<line x1="25.6406" y1="192.657" x2="744.525" y2="192.657" stroke="white" stroke-opacity="0.09" stroke-width="0.59957"/>
<line x1="25.6406" y1="39.1675" x2="744.525" y2="39.1675" stroke="white" stroke-opacity="0.09" stroke-width="0.59957"/>
<line x1="25.6406" y1="691.499" x2="744.525" y2="691.499" stroke="white" stroke-opacity="0.09" stroke-width="0.59957"/>
<line x1="25.6406" y1="384.52" x2="744.525" y2="384.52" stroke="white" stroke-opacity="0.09" stroke-width="0.59957"/>
<line x1="25.6406" y1="538.009" x2="744.525" y2="538.009" stroke="white" stroke-opacity="0.09" stroke-width="0.59957"/>
<line x1="25.6406" y1="231.03" x2="744.525" y2="231.03" stroke="white" stroke-opacity="0.09" stroke-width="0.59957"/>
<line x1="25.6406" y1="77.5401" x2="744.525" y2="77.5401" stroke="white" stroke-opacity="0.09" stroke-width="0.59957"/>
<line x1="25.6406" y1="614.755" x2="744.525" y2="614.755" stroke="white" stroke-opacity="0.09" stroke-width="0.59957"/>
<line x1="25.6406" y1="307.774" x2="744.525" y2="307.774" stroke="white" stroke-opacity="0.09" stroke-width="0.59957"/>
<line x1="25.6406" y1="461.265" x2="744.525" y2="461.265" stroke="white" stroke-opacity="0.09" stroke-width="0.59957"/>
<line x1="25.6406" y1="154.284" x2="744.525" y2="154.284" stroke="white" stroke-opacity="0.09" stroke-width="0.59957"/>
<line x1="100.18" y1="201.599" x2="100.18" y2="1369" stroke="white" stroke-opacity="0.09" stroke-width="1.2607"/>
<line x1="745.661" y1="201.599" x2="745.661" y2="1369" stroke="white" stroke-opacity="0.09" stroke-width="1.2607"/>
<line x1="422.92" y1="201.599" x2="422.92" y2="1369" stroke="white" stroke-opacity="0.09" stroke-width="1.2607"/>
<line x1="261.55" y1="201.599" x2="261.55" y2="1369" stroke="white" stroke-opacity="0.09" stroke-width="1.2607"/>
<line x1="584.29" y1="201.599" x2="584.29" y2="1369" stroke="white" stroke-opacity="0.09" stroke-width="1.2607"/>
<line x1="180.867" y1="201.599" x2="180.867" y2="1369" stroke="white" stroke-opacity="0.09" stroke-width="1.2607"/>
<line x1="503.603" y1="201.599" x2="503.603" y2="1369" stroke="white" stroke-opacity="0.09" stroke-width="1.2607"/>
<line x1="342.237" y1="201.599" x2="342.237" y2="1369" stroke="white" stroke-opacity="0.09" stroke-width="1.2607"/>
<line x1="664.973" y1="201.599" x2="664.973" y2="1369" stroke="white" stroke-opacity="0.09" stroke-width="1.2607"/>
<g opacity="0.7">
<rect x="431.877" y="499.61" width="38.1545" height="38.1545" fill="#24613D" fill-opacity="0.36"/>
<rect x="240.015" y="499.61" width="38.1545" height="38.1545" fill="#3CC69E" fill-opacity="0.25"/>
<rect x="585.585" y="231.438" width="38.1545" height="37.6094" fill="#3CC69E" fill-opacity="0.11"/>
<rect x="278.169" y="193.284" width="38.1545" height="37.6094" fill="#3CC69E" fill-opacity="0.31"/>
<rect x="546.885" y="269.593" width="38.1545" height="37.6094" fill="#3CC69E" fill-opacity="0.11"/>
<rect x="239.47" y="231.438" width="38.1545" height="37.6094" fill="#3CC69E" fill-opacity="0.31"/>
<rect x="546.885" y="231.438" width="38.1545" height="37.6094" fill="#3CC69E" fill-opacity="0.11"/>
<rect x="239.47" y="193.284" width="38.1545" height="37.6094" fill="#3CC69E" fill-opacity="0.31"/>
<rect x="201.86" y="499.61" width="38.1545" height="38.1545" fill="#3CC69E" fill-opacity="0.25"/>
<rect x="201.86" y="537.764" width="38.1545" height="38.6995" fill="#3CC69E" fill-opacity="0.25"/>
<rect x="125.006" y="461.455" width="38.1545" height="38.1545" fill="#3CC69E" fill-opacity="0.25"/>
<rect x="508.731" y="154.584" width="38.1545" height="38.1545" fill="#3CC69E" fill-opacity="0.61"/>
<rect x="470.577" y="110.979" width="38.1545" height="38.1545" fill="#3CC69E" fill-opacity="0.61"/>
<rect x="470.16" y="154.039" width="38.1545" height="38.6995" fill="#3CC69E" fill-opacity="0.61"/>
<rect x="125.006" y="192.193" width="38.6995" height="39.2446" fill="#0099CA" fill-opacity="0.24"/>
<rect x="86.3066" y="154.039" width="38.6995" height="38.1545" fill="#0099CA" fill-opacity="0.24"/>
<rect x="48.1523" y="154.584" width="38.6995" height="38.1545" fill="#0099CA" fill-opacity="0.24"/>
<rect x="86.3066" y="192.193" width="38.6995" height="39.2446" fill="#0099CA" fill-opacity="0.24"/>
<rect x="240.015" y="115.885" width="38.6995" height="38.1545" fill="#0099CA" fill-opacity="0.235294"/>
<rect x="125.006" y="269.047" width="38.1545" height="38.6995" fill="#0099CA" fill-opacity="0.24"/>
<rect x="585.585" y="461.455" width="38.1545" height="38.1545" fill="#3CC69E" fill-opacity="0.26"/>
<rect x="623.74" y="499.61" width="38.1545" height="38.1545" fill="#3CC69E" fill-opacity="0.26"/>
</g>
</g>
<defs>
<linearGradient id="paint0_linear_1953_2602" x1="131.164" y1="123.707" x2="347.309" y2="238.824" gradientUnits="userSpaceOnUse">
<stop stop-color="white"/>
<stop offset="1" stop-color="white" stop-opacity="0"/>
</linearGradient>
<radialGradient id="paint1_radial_1953_2602" cx="0" cy="0" r="1" gradientUnits="userSpaceOnUse" gradientTransform="translate(114.675 580.579) rotate(-29.3932) scale(369.539 635.132)">
<stop stop-color="white"/>
<stop offset="1" stop-color="white" stop-opacity="0"/>
</radialGradient>
</defs>
</svg>
