<svg width="433" height="230" viewBox="0 0 433 230" fill="none" xmlns="http://www.w3.org/2000/svg">
<g filter="url(#filter0_d_168_1484)">
<rect x="24" y="46.0615" width="390.241" height="278.245" rx="10.2358" fill="white" shape-rendering="crispEdges"/>
<path d="M51.2785 106.27V87.2053H58.5715C59.8851 87.2053 61.0452 87.4356 62.0517 87.8962C63.0753 88.3568 63.8771 89.0392 64.4571 89.9434C65.0372 90.8475 65.3272 91.965 65.3272 93.2956C65.3272 94.5922 65.0286 95.701 64.4316 96.6223C63.8345 97.5264 63.0327 98.2088 62.0261 98.6694L66.3764 106.27H61.9238L57.2153 97.8506L59.7743 99.3603H55.2449V106.27H51.2785ZM55.2449 95.9058H58.5971C59.1601 95.9058 59.6463 95.7949 60.0557 95.5731C60.4652 95.3513 60.7808 95.0442 61.0026 94.6519C61.2414 94.2595 61.3608 93.8074 61.3608 93.2956C61.3608 92.7668 61.2414 92.3061 61.0026 91.9138C60.7808 91.5214 60.4652 91.2143 60.0557 90.9926C59.6463 90.7708 59.1601 90.6599 58.5971 90.6599H55.2449V95.9058ZM74.0205 106.577C72.5363 106.577 71.2482 106.252 70.1564 105.604C69.0646 104.939 68.2201 104.052 67.6231 102.943C67.026 101.834 66.7274 100.606 66.7274 99.258C66.7274 97.8591 67.0345 96.6137 67.6486 95.5219C68.2799 94.4301 69.1243 93.5686 70.182 92.9374C71.2397 92.3061 72.4339 91.9905 73.7646 91.9905C74.8734 91.9905 75.8544 92.1697 76.7074 92.5279C77.5603 92.8691 78.2769 93.3553 78.8569 93.9865C79.454 94.6177 79.9061 95.3513 80.2131 96.1872C80.5202 97.0061 80.6737 97.9017 80.6737 98.8741C80.6737 99.1471 80.6567 99.4201 80.6226 99.693C80.6055 99.9489 80.5629 100.171 80.4946 100.358H70.0285V97.5435H78.3195L76.5026 98.8741C76.6732 98.1406 76.6647 97.4923 76.4771 96.9293C76.2894 96.3493 75.9567 95.8972 75.4791 95.5731C75.0184 95.2319 74.4469 95.0613 73.7646 95.0613C73.0992 95.0613 72.5277 95.2234 72.0501 95.5475C71.5724 95.8716 71.2141 96.3493 70.9753 96.9805C70.7365 97.6117 70.6426 98.3794 70.6938 99.2836C70.6256 100.068 70.7194 100.759 70.9753 101.356C71.2312 101.953 71.6236 102.423 72.1524 102.764C72.6813 103.088 73.321 103.25 74.0716 103.25C74.754 103.25 75.3341 103.113 75.8117 102.841C76.3065 102.568 76.6903 102.192 76.9633 101.715L80.034 103.173C79.761 103.856 79.326 104.453 78.7289 104.964C78.1489 105.476 77.458 105.877 76.6562 106.167C75.8544 106.44 74.9758 106.577 74.0205 106.577ZM87.0599 106.27L81.5582 92.2976H85.7037L89.5165 102.866H87.93L91.7428 92.2976H95.8883L90.3866 106.27H87.0599ZM97.5781 106.27V92.2976H101.416V106.27H97.5781ZM97.5781 91.0437V87.2053H101.416V91.0437H97.5781ZM110.955 106.577C109.471 106.577 108.183 106.252 107.091 105.604C106 104.939 105.155 104.052 104.558 102.943C103.961 101.834 103.662 100.606 103.662 99.258C103.662 97.8591 103.969 96.6137 104.584 95.5219C105.215 94.4301 106.059 93.5686 107.117 92.9374C108.175 92.3061 109.369 91.9905 110.7 91.9905C111.808 91.9905 112.789 92.1697 113.642 92.5279C114.495 92.8691 115.212 93.3553 115.792 93.9865C116.389 94.6177 116.841 95.3513 117.148 96.1872C117.455 97.0061 117.609 97.9017 117.609 98.8741C117.609 99.1471 117.592 99.4201 117.558 99.693C117.54 99.9489 117.498 100.171 117.43 100.358H106.963V97.5435H115.254L113.438 98.8741C113.608 98.1406 113.6 97.4923 113.412 96.9293C113.224 96.3493 112.892 95.8972 112.414 95.5731C111.953 95.2319 111.382 95.0613 110.7 95.0613C110.034 95.0613 109.463 95.2234 108.985 95.5475C108.507 95.8716 108.149 96.3493 107.91 96.9805C107.671 97.6117 107.578 98.3794 107.629 99.2836C107.561 100.068 107.654 100.759 107.91 101.356C108.166 101.953 108.559 102.423 109.087 102.764C109.616 103.088 110.256 103.25 111.007 103.25C111.689 103.25 112.269 103.113 112.747 102.841C113.241 102.568 113.625 102.192 113.898 101.715L116.969 103.173C116.696 103.856 116.261 104.453 115.664 104.964C115.084 105.476 114.393 105.877 113.591 106.167C112.789 106.44 111.911 106.577 110.955 106.577ZM123.554 106.27L118.743 92.2976H122.709L126.087 102.38L124.705 102.354L128.467 92.2976H131.794L135.53 102.354L134.148 102.38L137.526 92.2976H141.518L136.681 106.27H133.355L129.465 95.4707H130.796L126.881 106.27H123.554ZM148.686 106.577C147.15 106.577 145.811 106.218 144.668 105.502C143.542 104.768 142.774 103.787 142.365 102.559L145.18 101.228C145.538 101.979 146.024 102.568 146.638 102.994C147.253 103.421 147.935 103.634 148.686 103.634C149.232 103.634 149.65 103.523 149.94 103.301C150.23 103.079 150.375 102.772 150.375 102.38C150.375 102.175 150.323 102.005 150.221 101.868C150.119 101.715 149.965 101.578 149.76 101.459C149.556 101.339 149.3 101.237 148.993 101.152L146.613 100.486C145.47 100.162 144.591 99.6418 143.977 98.9253C143.363 98.1918 143.056 97.3302 143.056 96.3408C143.056 95.4707 143.278 94.7116 143.721 94.0633C144.165 93.415 144.788 92.9118 145.589 92.5535C146.391 92.1782 147.312 91.9905 148.353 91.9905C149.718 91.9905 150.912 92.3147 151.936 92.9629C152.976 93.5942 153.71 94.4898 154.136 95.6499L151.296 96.9805C151.091 96.4005 150.716 95.9399 150.17 95.5987C149.641 95.2404 149.035 95.0613 148.353 95.0613C147.858 95.0613 147.466 95.1637 147.176 95.3684C146.903 95.5731 146.766 95.8546 146.766 96.2128C146.766 96.4005 146.818 96.5711 146.92 96.7246C147.022 96.8782 147.184 97.0146 147.406 97.1341C147.645 97.2535 147.935 97.3644 148.276 97.4667L150.503 98.132C151.663 98.4732 152.55 98.9936 153.164 99.693C153.778 100.375 154.085 101.22 154.085 102.226C154.085 103.096 153.855 103.856 153.394 104.504C152.951 105.152 152.328 105.664 151.526 106.039C150.724 106.397 149.777 106.577 148.686 106.577Z" fill="black"/>
<path d="M340.822 94.6514V91.7853H332.813V88.5355L338.622 76.2269H342.613L336.805 88.5355H340.822V83.9293H344.354V88.5355H345.991V91.7853H344.354V94.6514H340.822ZM349.131 94.6514V91.1712H352.611V94.6514H349.131ZM362.241 95.0352C361.311 95.0352 360.437 94.8433 359.618 94.4594C358.808 94.0756 358.108 93.5425 357.52 92.8601C356.931 92.1777 356.509 91.3844 356.253 90.4803L359.605 89.5846C359.716 90.0197 359.912 90.395 360.194 90.7106C360.484 91.0262 360.817 91.2735 361.192 91.4527C361.576 91.6233 361.968 91.7086 362.369 91.7086C362.898 91.7086 363.38 91.5806 363.815 91.3247C364.258 91.0688 364.608 90.7234 364.864 90.2883C365.128 89.8533 365.261 89.3714 365.261 88.8425C365.261 88.3137 365.128 87.8317 364.864 87.3967C364.608 86.9617 364.258 86.6162 363.815 86.3603C363.38 86.1044 362.898 85.9765 362.369 85.9765C361.721 85.9765 361.192 86.0874 360.782 86.3092C360.373 86.5224 360.066 86.7271 359.861 86.9233L356.918 86.0277L357.481 76.2269H367.538V79.4767H359.401L360.629 78.3252L360.245 84.6458L359.657 83.9293C360.117 83.554 360.642 83.2811 361.23 83.1105C361.819 82.9399 362.369 82.8546 362.881 82.8546C364.041 82.8546 365.06 83.1147 365.939 83.6351C366.826 84.1468 367.517 84.8548 368.012 85.759C368.515 86.6546 368.766 87.6825 368.766 88.8425C368.766 90.0026 368.464 91.0518 367.858 91.9901C367.252 92.9198 366.455 93.6619 365.465 94.2163C364.476 94.7623 363.401 95.0352 362.241 95.0352Z" fill="black"/>
<rect x="313.416" y="97.6514" width="75.2358" height="23.2358" rx="11.6179" fill="#1D4ED8"/>
<path d="M321.358 112.908C320.99 112.908 320.642 112.836 320.314 112.693C319.987 112.549 319.702 112.346 319.46 112.084C319.221 111.821 319.048 111.511 318.943 111.152L320.135 110.83C320.22 111.123 320.376 111.35 320.601 111.511C320.829 111.667 321.08 111.744 321.353 111.741C321.595 111.741 321.812 111.685 322.003 111.572C322.194 111.459 322.344 111.308 322.454 111.116C322.563 110.922 322.617 110.705 322.617 110.466C322.617 110.101 322.5 109.796 322.264 109.55C322.029 109.305 321.725 109.182 321.353 109.182C321.241 109.182 321.13 109.197 321.021 109.228C320.915 109.259 320.812 109.301 320.713 109.356L320.15 108.383L322.628 106.265L322.735 106.561H319.229V105.4H323.748V106.567L321.757 108.481L321.747 108.117C322.194 108.148 322.575 108.273 322.889 108.491C323.206 108.709 323.448 108.991 323.615 109.335C323.786 109.68 323.871 110.057 323.871 110.466C323.871 110.93 323.757 111.347 323.528 111.715C323.303 112.084 322.999 112.375 322.617 112.59C322.239 112.802 321.819 112.908 321.358 112.908ZM324.993 112.759V111.685L328.145 108.875C328.391 108.656 328.561 108.45 328.657 108.256C328.753 108.061 328.8 107.873 328.8 107.693C328.8 107.447 328.747 107.229 328.642 107.037C328.536 106.843 328.389 106.689 328.202 106.577C328.017 106.464 327.804 106.408 327.562 106.408C327.306 106.408 327.079 106.468 326.881 106.587C326.687 106.703 326.535 106.858 326.426 107.053C326.316 107.247 326.265 107.457 326.272 107.682H325.003C325.003 107.191 325.112 106.763 325.33 106.398C325.552 106.033 325.856 105.749 326.241 105.548C326.63 105.347 327.079 105.246 327.587 105.246C328.058 105.246 328.481 105.352 328.857 105.564C329.232 105.772 329.527 106.062 329.742 106.434C329.957 106.802 330.064 107.227 330.064 107.708C330.064 108.059 330.017 108.354 329.921 108.593C329.826 108.832 329.682 109.052 329.491 109.254C329.304 109.455 329.07 109.678 328.79 109.924L326.554 111.905L326.441 111.598H330.064V112.759H324.993ZM331.09 112.759V111.685L334.243 108.875C334.488 108.656 334.659 108.45 334.755 108.256C334.85 108.061 334.898 107.873 334.898 107.693C334.898 107.447 334.845 107.229 334.739 107.037C334.633 106.843 334.487 106.689 334.299 106.577C334.115 106.464 333.902 106.408 333.659 106.408C333.403 106.408 333.176 106.468 332.979 106.587C332.784 106.703 332.632 106.858 332.523 107.053C332.414 107.247 332.363 107.457 332.37 107.682H331.1C331.1 107.191 331.21 106.763 331.428 106.398C331.65 106.033 331.953 105.749 332.339 105.548C332.728 105.347 333.176 105.246 333.685 105.246C334.156 105.246 334.579 105.352 334.954 105.564C335.329 105.772 335.625 106.062 335.84 106.434C336.054 106.802 336.162 107.227 336.162 107.708C336.162 108.059 336.114 108.354 336.019 108.593C335.923 108.832 335.78 109.052 335.589 109.254C335.401 109.455 335.167 109.678 334.888 109.924L332.651 111.905L332.538 111.598H336.162V112.759H331.09ZM339.122 111.398V109.566H337.29V108.598H339.122V106.771H340.089V108.598H341.911V109.566H340.089V111.398H339.122ZM345.289 112.77V107.242H346.379V108.588L346.246 108.414C346.314 108.23 346.405 108.063 346.517 107.913C346.633 107.759 346.772 107.633 346.932 107.534C347.068 107.442 347.219 107.37 347.382 107.319C347.55 107.264 347.72 107.232 347.894 107.222C348.068 107.208 348.237 107.215 348.401 107.242V108.394C348.237 108.346 348.048 108.331 347.833 108.348C347.621 108.365 347.43 108.424 347.26 108.527C347.089 108.619 346.949 108.737 346.84 108.88C346.734 109.023 346.656 109.187 346.604 109.371C346.553 109.552 346.528 109.748 346.528 109.96V112.77H345.289ZM351.79 112.923C351.231 112.923 350.74 112.802 350.316 112.56C349.893 112.317 349.562 111.981 349.324 111.551C349.088 111.122 348.97 110.627 348.97 110.067C348.97 109.463 349.086 108.94 349.318 108.496C349.55 108.049 349.873 107.703 350.286 107.457C350.699 107.211 351.176 107.089 351.719 107.089C352.292 107.089 352.778 107.223 353.177 107.493C353.58 107.759 353.878 108.136 354.073 108.624C354.267 109.112 354.341 109.687 354.293 110.349H353.07V109.898C353.066 109.298 352.961 108.859 352.753 108.583C352.544 108.307 352.217 108.169 351.77 108.169C351.265 108.169 350.89 108.325 350.644 108.639C350.398 108.95 350.275 109.405 350.275 110.006C350.275 110.565 350.398 110.999 350.644 111.306C350.89 111.613 351.248 111.766 351.719 111.766C352.022 111.766 352.283 111.7 352.502 111.567C352.724 111.43 352.894 111.234 353.014 110.978L354.232 111.347C354.02 111.845 353.693 112.232 353.249 112.509C352.809 112.785 352.323 112.923 351.79 112.923ZM349.887 110.349V109.417H353.689V110.349H349.887ZM356.729 112.77L354.723 107.242H355.957L357.349 111.25L358.736 107.242H359.974L357.968 112.77H356.729ZM360.995 106.403V105.272H362.229V106.403H360.995ZM360.995 112.77V107.242H362.229V112.77H360.995ZM366.274 112.923C365.715 112.923 365.224 112.802 364.801 112.56C364.377 112.317 364.046 111.981 363.808 111.551C363.572 111.122 363.455 110.627 363.455 110.067C363.455 109.463 363.571 108.94 363.803 108.496C364.035 108.049 364.357 107.703 364.77 107.457C365.183 107.211 365.66 107.089 366.203 107.089C366.776 107.089 367.262 107.223 367.661 107.493C368.064 107.759 368.363 108.136 368.557 108.624C368.752 109.112 368.825 109.687 368.777 110.349H367.554V109.898C367.551 109.298 367.445 108.859 367.237 108.583C367.029 108.307 366.701 108.169 366.254 108.169C365.749 108.169 365.374 108.325 365.128 108.639C364.882 108.95 364.76 109.405 364.76 110.006C364.76 110.565 364.882 110.999 365.128 111.306C365.374 111.613 365.732 111.766 366.203 111.766C366.506 111.766 366.768 111.7 366.986 111.567C367.208 111.43 367.378 111.234 367.498 110.978L368.716 111.347C368.504 111.845 368.177 112.232 367.733 112.509C367.293 112.785 366.807 112.923 366.274 112.923ZM364.371 110.349V109.417H368.173V110.349H364.371ZM370.896 112.77L369.207 107.232L370.415 107.242L371.495 110.789L372.59 107.242H373.629L374.719 110.789L375.804 107.242H377.012L375.323 112.77H374.361L373.107 108.967L371.858 112.77H370.896ZM379.87 112.923C379.188 112.923 378.633 112.77 378.207 112.462C377.78 112.155 377.521 111.724 377.429 111.168L378.688 110.973C378.753 111.246 378.896 111.461 379.118 111.618C379.34 111.775 379.619 111.853 379.957 111.853C380.254 111.853 380.483 111.795 380.643 111.679C380.807 111.56 380.889 111.398 380.889 111.193C380.889 111.067 380.858 110.966 380.796 110.891C380.738 110.813 380.609 110.738 380.407 110.666C380.206 110.594 379.897 110.504 379.481 110.395C379.017 110.272 378.649 110.141 378.376 110.001C378.103 109.857 377.906 109.689 377.787 109.494C377.668 109.3 377.608 109.064 377.608 108.788C377.608 108.443 377.698 108.143 377.879 107.887C378.06 107.631 378.313 107.435 378.637 107.298C378.961 107.159 379.343 107.089 379.783 107.089C380.213 107.089 380.593 107.155 380.924 107.288C381.259 107.421 381.528 107.611 381.733 107.856C381.938 108.102 382.064 108.39 382.112 108.721L380.853 108.946C380.822 108.711 380.715 108.525 380.53 108.389C380.349 108.252 380.107 108.175 379.804 108.158C379.514 108.141 379.28 108.186 379.102 108.291C378.925 108.394 378.836 108.539 378.836 108.726C378.836 108.832 378.872 108.923 378.944 108.998C379.015 109.073 379.159 109.148 379.374 109.223C379.592 109.298 379.916 109.39 380.346 109.499C380.786 109.612 381.138 109.741 381.4 109.888C381.666 110.031 381.858 110.204 381.974 110.405C382.093 110.606 382.153 110.85 382.153 111.137C382.153 111.693 381.95 112.13 381.544 112.447C381.141 112.764 380.583 112.923 379.87 112.923Z" fill="white"/>
<g filter="url(#filter1_d_168_1484)">
<rect x="49.5896" y="136.24" width="339.062" height="71.6508" rx="7.67687" fill="white" shape-rendering="crispEdges"/>
<rect x="50.2293" y="136.88" width="337.782" height="70.3713" rx="7.03714" stroke="#EFEFEF" stroke-width="1.27948" shape-rendering="crispEdges"/>
<rect width="40.9433" height="51.1792" transform="translate(59.8254 146.476)" fill="#3B82F6"/>
<path d="M74.3719 178.065V167.011H76.0378L79.8608 174.841L83.6839 167.011H85.3498V178.065H83.6225V170.98L80.2293 178.065H79.4924L76.1069 170.98V178.065H74.3719Z" fill="white"/>
<path d="M106.992 164.476V153.037H108.988L113.272 158.856H112.32L116.512 153.037H118.508V164.476H116.404V155.417L117.218 155.616L112.873 161.405H112.627L108.389 155.616L109.08 155.417V164.476H106.992ZM123.061 164.66C122.478 164.66 121.971 164.563 121.541 164.368C121.111 164.174 120.778 163.897 120.543 163.539C120.308 163.171 120.19 162.746 120.19 162.265C120.19 161.804 120.292 161.395 120.497 161.036C120.702 160.668 121.019 160.361 121.449 160.115C121.879 159.869 122.421 159.695 123.076 159.593L125.809 159.148V160.683L123.46 161.082C123.061 161.154 122.764 161.282 122.57 161.466C122.375 161.65 122.278 161.891 122.278 162.188C122.278 162.474 122.386 162.705 122.6 162.879C122.826 163.043 123.102 163.124 123.43 163.124C123.849 163.124 124.218 163.037 124.535 162.863C124.863 162.679 125.113 162.428 125.287 162.111C125.472 161.794 125.564 161.446 125.564 161.067V158.918C125.564 158.559 125.42 158.262 125.134 158.027C124.857 157.781 124.489 157.659 124.028 157.659C123.598 157.659 123.215 157.776 122.877 158.012C122.549 158.237 122.309 158.539 122.155 158.918L120.512 158.119C120.676 157.679 120.932 157.3 121.28 156.983C121.638 156.655 122.058 156.4 122.539 156.215C123.02 156.031 123.542 155.939 124.105 155.939C124.791 155.939 125.395 156.067 125.917 156.323C126.439 156.568 126.843 156.916 127.13 157.367C127.427 157.807 127.575 158.324 127.575 158.918V164.476H125.671V163.048L126.101 163.017C125.886 163.375 125.63 163.677 125.333 163.923C125.037 164.158 124.699 164.343 124.32 164.476C123.941 164.598 123.522 164.66 123.061 164.66ZM132.413 164.66C131.768 164.66 131.205 164.517 130.724 164.23C130.253 163.943 129.89 163.544 129.634 163.032C129.388 162.521 129.265 161.922 129.265 161.236V156.123H131.277V161.067C131.277 161.415 131.343 161.722 131.476 161.988C131.619 162.244 131.819 162.449 132.075 162.602C132.341 162.746 132.638 162.817 132.965 162.817C133.293 162.817 133.585 162.746 133.841 162.602C134.097 162.449 134.296 162.239 134.439 161.973C134.583 161.707 134.654 161.389 134.654 161.021V156.123H136.666V164.476H134.762V162.833L134.931 163.124C134.736 163.636 134.414 164.02 133.963 164.276C133.523 164.532 133.006 164.66 132.413 164.66ZM142.42 164.66C141.611 164.66 140.89 164.47 140.255 164.092C139.62 163.703 139.119 163.176 138.75 162.51C138.382 161.845 138.198 161.108 138.198 160.299C138.198 159.48 138.382 158.744 138.75 158.088C139.119 157.433 139.62 156.911 140.255 156.522C140.9 156.133 141.616 155.939 142.405 155.939C143.039 155.939 143.602 156.067 144.093 156.323C144.595 156.568 144.989 156.916 145.276 157.367L144.969 157.781V152.853H146.98V164.476H145.076V162.863L145.291 163.263C145.004 163.713 144.605 164.061 144.093 164.307C143.582 164.542 143.024 164.66 142.42 164.66ZM142.635 162.817C143.095 162.817 143.5 162.71 143.848 162.495C144.196 162.28 144.467 161.983 144.662 161.604C144.866 161.226 144.969 160.791 144.969 160.299C144.969 159.818 144.866 159.388 144.662 159.01C144.467 158.621 144.196 158.319 143.848 158.104C143.5 157.889 143.095 157.781 142.635 157.781C142.184 157.781 141.78 157.894 141.422 158.119C141.064 158.334 140.782 158.631 140.577 159.01C140.383 159.378 140.286 159.808 140.286 160.299C140.286 160.791 140.383 161.226 140.577 161.604C140.782 161.983 141.064 162.28 141.422 162.495C141.78 162.71 142.184 162.817 142.635 162.817ZM148.851 164.476V156.123H150.863V164.476H148.851ZM148.851 155.187V153.037H150.863V155.187H148.851ZM156.681 164.66C155.821 164.66 155.069 164.465 154.424 164.076C153.779 163.687 153.277 163.16 152.919 162.495C152.561 161.83 152.382 161.093 152.382 160.284C152.382 159.445 152.561 158.703 152.919 158.058C153.288 157.403 153.784 156.886 154.409 156.507C155.043 156.128 155.749 155.939 156.527 155.939C157.182 155.939 157.756 156.046 158.247 156.261C158.749 156.476 159.173 156.773 159.521 157.152C159.869 157.531 160.135 157.966 160.32 158.457C160.504 158.938 160.596 159.46 160.596 160.023C160.596 160.166 160.586 160.315 160.565 160.468C160.555 160.622 160.53 160.755 160.489 160.867H154.04V159.332H159.352L158.401 160.054C158.493 159.583 158.467 159.163 158.324 158.795C158.191 158.426 157.965 158.134 157.648 157.92C157.341 157.705 156.967 157.597 156.527 157.597C156.108 157.597 155.734 157.705 155.407 157.92C155.079 158.124 154.828 158.431 154.654 158.841C154.49 159.24 154.429 159.726 154.47 160.299C154.429 160.811 154.496 161.267 154.67 161.666C154.854 162.055 155.12 162.357 155.468 162.572C155.826 162.787 156.236 162.894 156.696 162.894C157.157 162.894 157.546 162.797 157.863 162.602C158.191 162.408 158.447 162.147 158.631 161.819L160.258 162.618C160.095 163.017 159.839 163.37 159.491 163.677C159.143 163.984 158.728 164.225 158.247 164.399C157.776 164.573 157.254 164.66 156.681 164.66Z" fill="#050505"/>
<path d="M106.736 182.476V174.85H107.739V182.476H106.736ZM109.323 182.476V176.958H110.254V178.033L110.101 177.941C110.237 177.593 110.455 177.324 110.756 177.132C111.063 176.935 111.421 176.836 111.83 176.836C112.226 176.836 112.578 176.924 112.885 177.102C113.199 177.279 113.444 177.525 113.622 177.839C113.806 178.153 113.898 178.507 113.898 178.903V182.476H112.936V179.21C112.936 178.903 112.881 178.644 112.772 178.432C112.663 178.221 112.506 178.057 112.301 177.941C112.103 177.818 111.875 177.757 111.615 177.757C111.356 177.757 111.124 177.818 110.919 177.941C110.721 178.057 110.565 178.224 110.449 178.443C110.333 178.654 110.275 178.91 110.275 179.21V182.476H109.323ZM117.236 182.598C116.683 182.598 116.202 182.462 115.792 182.189C115.383 181.916 115.093 181.548 114.922 181.084L115.68 180.715C115.837 181.043 116.052 181.302 116.325 181.493C116.598 181.684 116.901 181.78 117.236 181.78C117.536 181.78 117.785 181.708 117.983 181.565C118.181 181.421 118.28 181.234 118.28 181.002C118.28 180.838 118.232 180.708 118.136 180.613C118.048 180.51 117.939 180.432 117.809 180.377C117.679 180.316 117.56 180.271 117.451 180.244L116.622 180.009C116.123 179.865 115.758 179.661 115.526 179.395C115.301 179.128 115.189 178.818 115.189 178.463C115.189 178.136 115.27 177.852 115.434 177.614C115.605 177.368 115.833 177.177 116.12 177.04C116.413 176.904 116.741 176.836 117.103 176.836C117.587 176.836 118.02 176.958 118.403 177.204C118.792 177.45 119.068 177.794 119.232 178.238L118.454 178.596C118.331 178.31 118.147 178.084 117.901 177.921C117.655 177.75 117.379 177.665 117.072 177.665C116.792 177.665 116.57 177.736 116.407 177.88C116.243 178.016 116.161 178.19 116.161 178.402C116.161 178.559 116.202 178.688 116.284 178.791C116.366 178.886 116.465 178.961 116.581 179.016C116.697 179.064 116.809 179.105 116.918 179.139L117.819 179.405C118.27 179.534 118.618 179.736 118.863 180.009C119.116 180.282 119.242 180.609 119.242 180.991C119.242 181.298 119.157 181.575 118.986 181.82C118.815 182.066 118.58 182.257 118.28 182.394C117.98 182.53 117.631 182.598 117.236 182.598ZM120.488 182.476V176.958H121.44V182.476H120.488ZM120.488 176.078V174.85H121.44V176.078H120.488ZM125.548 184.727C125.159 184.727 124.797 184.666 124.463 184.543C124.135 184.42 123.852 184.25 123.613 184.031C123.381 183.82 123.204 183.571 123.081 183.284L123.971 182.875C124.067 183.134 124.248 183.352 124.514 183.53C124.787 183.714 125.128 183.806 125.537 183.806C125.851 183.806 126.135 183.745 126.387 183.622C126.646 183.506 126.851 183.329 127.001 183.09C127.151 182.858 127.226 182.575 127.226 182.24V181.002L127.4 181.186C127.209 181.561 126.933 181.848 126.571 182.046C126.216 182.244 125.824 182.343 125.394 182.343C124.876 182.343 124.411 182.223 124.002 181.984C123.593 181.739 123.272 181.408 123.04 180.991C122.808 180.568 122.692 180.101 122.692 179.589C122.692 179.07 122.808 178.603 123.04 178.187C123.272 177.771 123.589 177.443 123.992 177.204C124.401 176.958 124.865 176.836 125.384 176.836C125.814 176.836 126.203 176.935 126.551 177.132C126.906 177.324 127.189 177.59 127.4 177.931L127.257 178.187V176.958H128.189V182.24C128.189 182.718 128.076 183.144 127.851 183.52C127.626 183.895 127.312 184.188 126.909 184.4C126.513 184.618 126.059 184.727 125.548 184.727ZM125.476 181.421C125.804 181.421 126.097 181.339 126.356 181.176C126.622 181.012 126.834 180.793 126.991 180.521C127.148 180.241 127.226 179.93 127.226 179.589C127.226 179.255 127.148 178.948 126.991 178.668C126.834 178.388 126.622 178.166 126.356 178.003C126.097 177.839 125.804 177.757 125.476 177.757C125.142 177.757 124.838 177.839 124.565 178.003C124.292 178.166 124.077 178.388 123.92 178.668C123.77 178.941 123.695 179.248 123.695 179.589C123.695 179.93 123.77 180.241 123.92 180.521C124.077 180.793 124.289 181.012 124.555 181.176C124.828 181.339 125.135 181.421 125.476 181.421ZM129.664 182.476V174.727H130.616V178.033L130.442 177.941C130.579 177.593 130.797 177.324 131.097 177.132C131.404 176.935 131.763 176.836 132.172 176.836C132.568 176.836 132.919 176.924 133.226 177.102C133.54 177.279 133.786 177.525 133.963 177.839C134.148 178.153 134.24 178.507 134.24 178.903V182.476H133.278V179.21C133.278 178.903 133.22 178.644 133.104 178.432C132.994 178.221 132.841 178.057 132.643 177.941C132.445 177.818 132.216 177.757 131.957 177.757C131.705 177.757 131.476 177.818 131.271 177.941C131.067 178.057 130.906 178.224 130.79 178.443C130.674 178.654 130.616 178.91 130.616 179.21V182.476H129.664ZM137.844 182.537C137.304 182.537 136.888 182.383 136.595 182.076C136.308 181.769 136.165 181.336 136.165 180.776V177.869H135.162V176.958H135.366C135.612 176.958 135.807 176.883 135.95 176.733C136.093 176.583 136.165 176.385 136.165 176.14V175.689H137.117V176.958H138.355V177.869H137.117V180.746C137.117 180.93 137.144 181.09 137.199 181.227C137.26 181.363 137.359 181.472 137.496 181.554C137.632 181.629 137.813 181.667 138.038 181.667C138.086 181.667 138.144 181.664 138.212 181.657C138.287 181.65 138.355 181.643 138.417 181.636V182.476C138.328 182.496 138.229 182.51 138.12 182.517C138.011 182.53 137.919 182.537 137.844 182.537ZM144.05 182.598C143.518 182.598 143.037 182.476 142.607 182.23C142.177 181.977 141.836 181.633 141.583 181.196C141.331 180.759 141.204 180.265 141.204 179.712C141.204 179.159 141.327 178.668 141.573 178.238C141.825 177.808 142.167 177.467 142.596 177.214C143.026 176.962 143.511 176.836 144.05 176.836C144.582 176.836 145.063 176.962 145.493 177.214C145.923 177.46 146.261 177.798 146.506 178.228C146.759 178.658 146.885 179.152 146.885 179.712C146.885 180.271 146.756 180.77 146.496 181.206C146.237 181.636 145.892 181.977 145.462 182.23C145.039 182.476 144.569 182.598 144.05 182.598ZM144.05 181.677C144.391 181.677 144.698 181.592 144.971 181.421C145.251 181.251 145.469 181.015 145.626 180.715C145.79 180.415 145.872 180.08 145.872 179.712C145.872 179.337 145.79 179.006 145.626 178.719C145.469 178.426 145.251 178.194 144.971 178.023C144.698 177.846 144.391 177.757 144.05 177.757C143.702 177.757 143.388 177.846 143.108 178.023C142.835 178.194 142.617 178.426 142.453 178.719C142.289 179.006 142.207 179.337 142.207 179.712C142.207 180.08 142.289 180.415 142.453 180.715C142.617 181.015 142.835 181.251 143.108 181.421C143.388 181.592 143.702 181.677 144.05 181.677ZM150.983 182.598C150.539 182.598 150.133 182.499 149.765 182.302C149.403 182.104 149.123 181.824 148.925 181.462L149.058 181.298V182.476H148.127V174.727H149.079V178.146L148.935 177.91C149.14 177.583 149.42 177.324 149.775 177.132C150.13 176.935 150.536 176.836 150.993 176.836C151.511 176.836 151.975 176.962 152.385 177.214C152.801 177.467 153.129 177.811 153.368 178.248C153.606 178.678 153.726 179.169 153.726 179.722C153.726 180.261 153.606 180.749 153.368 181.186C153.129 181.623 152.801 181.967 152.385 182.22C151.975 182.472 151.508 182.598 150.983 182.598ZM150.911 181.677C151.259 181.677 151.569 181.592 151.842 181.421C152.115 181.251 152.327 181.019 152.477 180.725C152.634 180.425 152.712 180.091 152.712 179.722C152.712 179.34 152.634 179.006 152.477 178.719C152.327 178.426 152.115 178.194 151.842 178.023C151.569 177.846 151.259 177.757 150.911 177.757C150.563 177.757 150.249 177.842 149.969 178.013C149.696 178.183 149.478 178.419 149.314 178.719C149.157 179.012 149.079 179.347 149.079 179.722C149.079 180.091 149.157 180.425 149.314 180.725C149.478 181.019 149.696 181.251 149.969 181.421C150.249 181.592 150.563 181.677 150.911 181.677ZM154.032 184.727C153.971 184.727 153.896 184.724 153.807 184.717C153.718 184.71 153.647 184.7 153.592 184.687V183.827C153.729 183.847 153.865 183.857 154.002 183.857C154.281 183.857 154.513 183.779 154.698 183.622C154.882 183.465 154.974 183.226 154.974 182.905V176.958H155.926V182.905C155.926 183.301 155.844 183.632 155.68 183.898C155.517 184.171 155.291 184.376 155.005 184.513C154.718 184.656 154.394 184.727 154.032 184.727ZM154.974 176.078V174.85H155.926V176.078H154.974ZM159.942 182.598C159.409 182.598 158.935 182.472 158.519 182.22C158.102 181.967 157.775 181.623 157.536 181.186C157.297 180.742 157.178 180.248 157.178 179.702C157.178 179.149 157.294 178.658 157.526 178.228C157.765 177.798 158.085 177.46 158.488 177.214C158.897 176.962 159.355 176.836 159.86 176.836C160.269 176.836 160.631 176.911 160.945 177.061C161.265 177.204 161.535 177.402 161.753 177.655C161.978 177.9 162.149 178.183 162.265 178.504C162.388 178.818 162.449 179.146 162.449 179.487C162.449 179.562 162.442 179.647 162.429 179.743C162.422 179.831 162.412 179.917 162.398 179.999H157.874V179.18H161.845L161.395 179.548C161.456 179.193 161.422 178.876 161.293 178.596C161.163 178.316 160.972 178.095 160.719 177.931C160.467 177.767 160.18 177.685 159.86 177.685C159.539 177.685 159.245 177.767 158.979 177.931C158.713 178.095 158.505 178.33 158.355 178.637C158.212 178.937 158.154 179.296 158.181 179.712C158.154 180.115 158.215 180.469 158.365 180.776C158.522 181.077 158.741 181.312 159.02 181.483C159.307 181.646 159.617 181.728 159.952 181.728C160.32 181.728 160.631 181.643 160.883 181.472C161.136 181.302 161.34 181.084 161.497 180.817L162.296 181.227C162.187 181.479 162.016 181.711 161.784 181.923C161.559 182.128 161.289 182.291 160.975 182.414C160.668 182.537 160.324 182.598 159.942 182.598ZM163.69 182.476V174.727H164.642V180.039L164.253 179.947L167.181 176.958H168.399L166.28 179.18L168.542 182.476H167.416L165.349 179.487L165.942 179.456L164.335 181.135L164.642 180.439V182.476H163.69ZM171.64 182.537C171.101 182.537 170.684 182.383 170.391 182.076C170.104 181.769 169.961 181.336 169.961 180.776V177.869H168.958V176.958H169.163C169.408 176.958 169.603 176.883 169.746 176.733C169.889 176.583 169.961 176.385 169.961 176.14V175.689H170.913V176.958H172.152V177.869H170.913V180.746C170.913 180.93 170.94 181.09 170.995 181.227C171.056 181.363 171.155 181.472 171.292 181.554C171.428 181.629 171.609 181.667 171.834 181.667C171.882 181.667 171.94 181.664 172.008 181.657C172.083 181.65 172.152 181.643 172.213 181.636V182.476C172.124 182.496 172.025 182.51 171.916 182.517C171.807 182.53 171.715 182.537 171.64 182.537ZM173.456 182.476V176.958H174.408V182.476H173.456ZM173.456 176.078V174.85H174.408V176.078H173.456ZM176.469 182.476V177.869H175.415V176.958H176.469V176.57C176.469 176.174 176.554 175.839 176.725 175.566C176.902 175.293 177.134 175.085 177.421 174.942C177.714 174.799 178.038 174.727 178.393 174.727C178.468 174.727 178.55 174.734 178.639 174.748C178.734 174.754 178.813 174.765 178.874 174.778V175.628C178.82 175.614 178.755 175.607 178.68 175.607C178.605 175.601 178.547 175.597 178.506 175.597C178.192 175.597 177.933 175.672 177.728 175.822C177.53 175.972 177.431 176.221 177.431 176.57V176.958H178.741V177.869H177.431V182.476H176.469ZM184.231 182.598C183.712 182.598 183.245 182.472 182.829 182.22C182.419 181.967 182.095 181.623 181.856 181.186C181.617 180.749 181.498 180.261 181.498 179.722C181.498 179.169 181.617 178.678 181.856 178.248C182.095 177.811 182.419 177.467 182.829 177.214C183.245 176.962 183.712 176.836 184.231 176.836C184.688 176.836 185.094 176.935 185.449 177.132C185.804 177.324 186.084 177.583 186.288 177.91L186.135 178.146V174.727H187.097V182.476H186.165V181.298L186.288 181.462C186.097 181.824 185.817 182.104 185.449 182.302C185.087 182.499 184.681 182.598 184.231 182.598ZM184.313 181.677C184.661 181.677 184.971 181.592 185.244 181.421C185.517 181.251 185.732 181.019 185.889 180.725C186.053 180.425 186.135 180.091 186.135 179.722C186.135 179.347 186.053 179.012 185.889 178.719C185.732 178.419 185.517 178.183 185.244 178.013C184.971 177.842 184.661 177.757 184.313 177.757C183.972 177.757 183.661 177.846 183.381 178.023C183.108 178.194 182.893 178.426 182.736 178.719C182.58 179.006 182.501 179.34 182.501 179.722C182.501 180.091 182.58 180.425 182.736 180.725C182.893 181.019 183.108 181.251 183.381 181.421C183.654 181.592 183.965 181.677 184.313 181.677ZM190.188 182.598C189.826 182.598 189.505 182.534 189.225 182.404C188.952 182.267 188.738 182.083 188.581 181.851C188.424 181.612 188.345 181.339 188.345 181.032C188.345 180.739 188.407 180.476 188.529 180.244C188.659 180.005 188.857 179.804 189.123 179.64C189.396 179.476 189.737 179.36 190.147 179.292L192.194 178.954V179.753L190.362 180.06C190.007 180.121 189.747 180.234 189.584 180.398C189.427 180.561 189.348 180.763 189.348 181.002C189.348 181.227 189.437 181.414 189.614 181.565C189.799 181.715 190.027 181.79 190.3 181.79C190.648 181.79 190.948 181.718 191.201 181.575C191.46 181.425 191.662 181.223 191.805 180.971C191.955 180.718 192.03 180.439 192.03 180.132V178.729C192.03 178.429 191.917 178.187 191.692 178.003C191.474 177.811 191.184 177.716 190.822 177.716C190.508 177.716 190.229 177.798 189.983 177.962C189.744 178.119 189.567 178.33 189.451 178.596L188.622 178.166C188.724 177.914 188.888 177.689 189.113 177.491C189.338 177.286 189.601 177.126 189.901 177.01C190.201 176.894 190.515 176.836 190.843 176.836C191.266 176.836 191.638 176.918 191.958 177.081C192.279 177.238 192.528 177.46 192.706 177.747C192.89 178.026 192.982 178.354 192.982 178.729V182.476H192.051V181.432L192.225 181.493C192.109 181.711 191.952 181.902 191.754 182.066C191.556 182.23 191.324 182.36 191.058 182.455C190.792 182.551 190.501 182.598 190.188 182.598ZM194.458 182.476V176.958H195.389V177.972L195.287 177.829C195.417 177.515 195.615 177.283 195.881 177.132C196.147 176.976 196.471 176.897 196.853 176.897H197.191V177.798H196.71C196.321 177.798 196.007 177.921 195.768 178.166C195.529 178.405 195.41 178.746 195.41 179.19V182.476H194.458ZM198.036 182.476V176.958H198.988V182.476H198.036ZM198.036 176.078V174.85H198.988V176.078H198.036ZM204.476 182.537C203.937 182.537 203.521 182.383 203.228 182.076C202.941 181.769 202.798 181.336 202.798 180.776V177.869H201.795V176.958H201.999C202.245 176.958 202.439 176.883 202.583 176.733C202.726 176.583 202.798 176.385 202.798 176.14V175.689H203.75V176.958H204.988V177.869H203.75V180.746C203.75 180.93 203.777 181.09 203.832 181.227C203.893 181.363 203.992 181.472 204.128 181.554C204.265 181.629 204.446 181.667 204.671 181.667C204.719 181.667 204.777 181.664 204.845 181.657C204.92 181.65 204.988 181.643 205.05 181.636V182.476C204.961 182.496 204.862 182.51 204.753 182.517C204.644 182.53 204.551 182.537 204.476 182.537ZM206.293 182.476V176.958H207.245V182.476H206.293ZM206.293 176.078V174.85H207.245V176.078H206.293ZM208.722 182.476V176.958H209.654V178.084L209.521 177.91C209.657 177.562 209.875 177.296 210.176 177.112C210.476 176.928 210.814 176.836 211.189 176.836C211.619 176.836 212.004 176.955 212.346 177.194C212.694 177.433 212.932 177.747 213.062 178.136L212.796 178.146C212.939 177.716 213.182 177.392 213.523 177.173C213.864 176.948 214.243 176.836 214.659 176.836C215.041 176.836 215.386 176.924 215.693 177.102C216.007 177.279 216.256 177.525 216.44 177.839C216.624 178.153 216.716 178.507 216.716 178.903V182.476H215.754V179.21C215.754 178.903 215.7 178.644 215.59 178.432C215.481 178.221 215.331 178.057 215.14 177.941C214.956 177.818 214.737 177.757 214.485 177.757C214.239 177.757 214.017 177.818 213.82 177.941C213.629 178.057 213.475 178.224 213.359 178.443C213.25 178.654 213.195 178.91 213.195 179.21V182.476H212.233V179.21C212.233 178.903 212.178 178.644 212.069 178.432C211.96 178.221 211.81 178.057 211.619 177.941C211.435 177.818 211.216 177.757 210.964 177.757C210.718 177.757 210.496 177.818 210.298 177.941C210.107 178.057 209.954 178.224 209.838 178.443C209.729 178.654 209.674 178.91 209.674 179.21V182.476H208.722ZM221.455 182.598C221.093 182.598 220.772 182.534 220.493 182.404C220.22 182.267 220.005 182.083 219.848 181.851C219.691 181.612 219.612 181.339 219.612 181.032C219.612 180.739 219.674 180.476 219.797 180.244C219.926 180.005 220.124 179.804 220.39 179.64C220.663 179.476 221.004 179.36 221.414 179.292L223.461 178.954V179.753L221.629 180.06C221.274 180.121 221.015 180.234 220.851 180.398C220.694 180.561 220.616 180.763 220.616 181.002C220.616 181.227 220.704 181.414 220.882 181.565C221.066 181.715 221.295 181.79 221.567 181.79C221.915 181.79 222.216 181.718 222.468 181.575C222.728 181.425 222.929 181.223 223.072 180.971C223.222 180.718 223.297 180.439 223.297 180.132V178.729C223.297 178.429 223.185 178.187 222.96 178.003C222.741 177.811 222.451 177.716 222.089 177.716C221.776 177.716 221.496 177.798 221.25 177.962C221.011 178.119 220.834 178.33 220.718 178.596L219.889 178.166C219.991 177.914 220.155 177.689 220.38 177.491C220.605 177.286 220.868 177.126 221.168 177.01C221.469 176.894 221.782 176.836 222.11 176.836C222.533 176.836 222.905 176.918 223.226 177.081C223.546 177.238 223.795 177.46 223.973 177.747C224.157 178.026 224.249 178.354 224.249 178.729V182.476H223.318V181.432L223.492 181.493C223.376 181.711 223.219 181.902 223.021 182.066C222.823 182.23 222.591 182.36 222.325 182.455C222.059 182.551 221.769 182.598 221.455 182.598ZM225.725 182.476V174.727H226.677V178.033L226.503 177.941C226.64 177.593 226.858 177.324 227.158 177.132C227.465 176.935 227.824 176.836 228.233 176.836C228.629 176.836 228.98 176.924 229.287 177.102C229.601 177.279 229.847 177.525 230.024 177.839C230.208 178.153 230.301 178.507 230.301 178.903V182.476H229.338V179.21C229.338 178.903 229.28 178.644 229.164 178.432C229.055 178.221 228.902 178.057 228.704 177.941C228.506 177.818 228.277 177.757 228.018 177.757C227.766 177.757 227.537 177.818 227.332 177.941C227.128 178.057 226.967 178.224 226.851 178.443C226.735 178.654 226.677 178.91 226.677 179.21V182.476H225.725ZM231.663 182.476V174.727H232.615V182.476H231.663ZM234.092 182.476V176.958H235.044V182.476H234.092ZM234.092 176.078V174.85H235.044V176.078H234.092Z" fill="#868686"/>
<path d="M297.2 164.982C297.391 164.393 298.225 164.393 298.417 164.982L299.676 168.856C299.761 169.12 300.007 169.298 300.284 169.298H304.357C304.977 169.298 305.235 170.091 304.734 170.455L301.438 172.85C301.214 173.013 301.12 173.301 301.206 173.565L302.464 177.439C302.656 178.028 301.981 178.519 301.48 178.154L298.184 175.76C297.96 175.597 297.657 175.597 297.432 175.76L294.137 178.154C293.636 178.519 292.961 178.028 293.152 177.439L294.411 173.565C294.497 173.301 294.403 173.013 294.179 172.85L290.883 170.455C290.382 170.091 290.64 169.298 291.259 169.298H295.333C295.61 169.298 295.856 169.12 295.941 168.856L297.2 164.982Z" fill="#F7871B"/>
<path d="M315.113 164.982C315.304 164.393 316.138 164.393 316.329 164.982L317.588 168.856C317.674 169.12 317.919 169.298 318.197 169.298H322.27C322.89 169.298 323.147 170.091 322.646 170.455L319.351 172.85C319.126 173.013 319.033 173.301 319.118 173.565L320.377 177.439C320.568 178.028 319.894 178.519 319.393 178.154L316.097 175.76C315.873 175.597 315.569 175.597 315.345 175.76L312.049 178.154C311.548 178.519 310.874 178.028 311.065 177.439L312.324 173.565C312.409 173.301 312.316 173.013 312.091 172.85L308.796 170.455C308.295 170.091 308.552 169.298 309.172 169.298H313.245C313.523 169.298 313.768 169.12 313.854 168.856L315.113 164.982Z" fill="#F7871B"/>
<path d="M333.025 164.982C333.217 164.393 334.051 164.393 334.242 164.982L335.501 168.856C335.586 169.12 335.832 169.298 336.109 169.298H340.183C340.802 169.298 341.06 170.091 340.559 170.455L337.263 172.85C337.039 173.013 336.945 173.301 337.031 173.565L338.29 177.439C338.481 178.028 337.806 178.519 337.305 178.154L334.01 175.76C333.785 175.597 333.482 175.597 333.258 175.76L329.962 178.154C329.461 178.519 328.786 178.028 328.978 177.439L330.236 173.565C330.322 173.301 330.228 173.013 330.004 172.85L326.708 170.455C326.207 170.091 326.465 169.298 327.085 169.298H331.158C331.435 169.298 331.681 169.12 331.766 168.856L333.025 164.982Z" fill="#F7871B"/>
<path d="M350.938 164.982C351.13 164.393 351.964 164.393 352.155 164.982L353.414 168.856C353.5 169.12 353.745 169.298 354.022 169.298H358.096C358.715 169.298 358.973 170.091 358.472 170.455L355.176 172.85C354.952 173.013 354.858 173.301 354.944 173.565L356.203 177.439C356.394 178.028 355.72 178.519 355.218 178.154L351.923 175.76C351.698 175.597 351.395 175.597 351.171 175.76L347.875 178.154C347.374 178.519 346.699 178.028 346.891 177.439L348.149 173.565C348.235 173.301 348.141 173.013 347.917 172.85L344.622 170.455C344.12 170.091 344.378 169.298 344.998 169.298H349.071C349.348 169.298 349.594 169.12 349.679 168.856L350.938 164.982Z" fill="#F7871B"/>
<path d="M368.851 164.982C369.042 164.393 369.876 164.393 370.068 164.982L371.326 168.856C371.412 169.12 371.658 169.298 371.935 169.298H376.008C376.628 169.298 376.886 170.091 376.384 170.455L373.089 172.85C372.865 173.013 372.771 173.301 372.856 173.565L374.115 177.439C374.307 178.028 373.632 178.519 373.131 178.154L369.835 175.76C369.611 175.597 369.307 175.597 369.083 175.76L365.788 178.154C365.286 178.519 364.612 178.028 364.803 177.439L366.062 173.565C366.148 173.301 366.054 173.013 365.83 172.85L362.534 170.455C362.033 170.091 362.29 169.298 362.91 169.298H366.984C367.261 169.298 367.506 169.12 367.592 168.856L368.851 164.982Z" fill="#F7871B"/>
</g>
<g filter="url(#filter2_d_168_1484)">
<rect x="49.5896" y="223.245" width="339.062" height="75.4717" rx="7.67687" fill="white" shape-rendering="crispEdges"/>
<rect x="50.2293" y="223.885" width="337.782" height="74.1922" rx="7.03714" stroke="#EFEFEF" stroke-width="1.27948" shape-rendering="crispEdges"/>
</g>
</g>
<defs>
<filter id="filter0_d_168_1484" x="-14.3844" y="0.000278473" width="492.6" height="380.603" filterUnits="userSpaceOnUse" color-interpolation-filters="sRGB">
<feFlood flood-opacity="0" result="BackgroundImageFix"/>
<feColorMatrix in="SourceAlpha" type="matrix" values="0 0 0 0 0 0 0 0 0 0 0 0 0 0 0 0 0 0 127 0" result="hardAlpha"/>
<feOffset dx="12.7948" dy="5.11792"/>
<feGaussianBlur stdDeviation="25.5896"/>
<feComposite in2="hardAlpha" operator="out"/>
<feColorMatrix type="matrix" values="0 0 0 0 0 0 0 0 0 0 0 0 0 0 0 0 0 0 0.16 0"/>
<feBlend mode="normal" in2="BackgroundImageFix" result="effect1_dropShadow_168_1484"/>
<feBlend mode="normal" in="SourceGraphic" in2="effect1_dropShadow_168_1484" result="shape"/>
</filter>
<filter id="filter1_d_168_1484" x="11.2052" y="90.179" width="441.42" height="174.009" filterUnits="userSpaceOnUse" color-interpolation-filters="sRGB">
<feFlood flood-opacity="0" result="BackgroundImageFix"/>
<feColorMatrix in="SourceAlpha" type="matrix" values="0 0 0 0 0 0 0 0 0 0 0 0 0 0 0 0 0 0 127 0" result="hardAlpha"/>
<feOffset dx="12.7948" dy="5.11792"/>
<feGaussianBlur stdDeviation="25.5896"/>
<feComposite in2="hardAlpha" operator="out"/>
<feColorMatrix type="matrix" values="0 0 0 0 0 0 0 0 0 0 0 0 0 0 0 0 0 0 0.04 0"/>
<feBlend mode="normal" in2="BackgroundImageFix" result="effect1_dropShadow_168_1484"/>
<feBlend mode="normal" in="SourceGraphic" in2="effect1_dropShadow_168_1484" result="shape"/>
</filter>
<filter id="filter2_d_168_1484" x="11.2052" y="177.184" width="441.42" height="177.83" filterUnits="userSpaceOnUse" color-interpolation-filters="sRGB">
<feFlood flood-opacity="0" result="BackgroundImageFix"/>
<feColorMatrix in="SourceAlpha" type="matrix" values="0 0 0 0 0 0 0 0 0 0 0 0 0 0 0 0 0 0 127 0" result="hardAlpha"/>
<feOffset dx="12.7948" dy="5.11792"/>
<feGaussianBlur stdDeviation="25.5896"/>
<feComposite in2="hardAlpha" operator="out"/>
<feColorMatrix type="matrix" values="0 0 0 0 0 0 0 0 0 0 0 0 0 0 0 0 0 0 0.04 0"/>
<feBlend mode="normal" in2="BackgroundImageFix" result="effect1_dropShadow_168_1484"/>
<feBlend mode="normal" in="SourceGraphic" in2="effect1_dropShadow_168_1484" result="shape"/>
</filter>
</defs>
</svg>
