<svg width="457" height="423" viewBox="0 0 457 423" fill="none" xmlns="http://www.w3.org/2000/svg">
<path d="M215.605 423H6.19236C4.55004 423 2.97499 422.348 1.8137 421.186C0.652408 420.025 0 418.45 0 416.808V6.13814C0.0142992 4.50523 0.673013 2.94408 1.83276 1.79449C2.99251 0.644897 4.55939 -6.26024e-05 6.19236 4.55756e-09H215.605C216.418 4.55757e-09 217.223 0.160169 217.974 0.471364C218.726 0.782559 219.408 1.23869 219.983 1.8137C220.558 2.38871 221.015 3.07136 221.326 3.82265C221.637 4.57394 221.797 5.37917 221.797 6.19236V416.808C221.797 417.621 221.637 418.426 221.326 419.177C221.015 419.929 220.558 420.611 219.983 421.186C219.408 421.761 218.726 422.217 217.974 422.529C217.223 422.84 216.418 423 215.605 423ZM6.19236 0.216896C4.62283 0.219763 3.1184 0.844525 2.00858 1.95435C0.898748 3.06418 0.273986 4.56861 0.271119 6.13814V416.808C0.273986 418.377 0.898748 419.882 2.00858 420.991C3.1184 422.101 4.62283 422.726 6.19236 422.729H215.605C217.174 422.726 218.679 422.101 219.789 420.991C220.898 419.882 221.523 418.377 221.526 416.808V6.13814C221.523 4.56861 220.898 3.06418 219.789 1.95435C218.679 0.844525 217.174 0.219763 215.605 0.216896H6.19236Z" fill="#EBEBEB"/>
<path d="M450.177 423H240.765C239.122 423 237.547 422.348 236.386 421.186C235.225 420.025 234.572 418.45 234.572 416.808V6.13814C234.587 4.50523 235.245 2.94408 236.405 1.79449C237.565 0.644897 239.132 -6.26024e-05 240.765 4.55756e-09H450.177C451.819 4.55758e-09 453.394 0.652408 454.556 1.8137C455.717 2.97499 456.369 4.55004 456.369 6.19236V416.808C456.369 417.621 456.209 418.426 455.898 419.177C455.587 419.929 455.131 420.611 454.556 421.186C453.981 421.761 453.298 422.217 452.547 422.529C451.795 422.84 450.99 423 450.177 423ZM240.765 0.216896C239.195 0.219763 237.691 0.844525 236.581 1.95435C235.471 3.06418 234.846 4.56861 234.843 6.13814V416.808C234.846 418.377 235.471 419.882 236.581 420.991C237.691 422.101 239.195 422.726 240.765 422.729H450.177C451.747 422.726 453.251 422.101 454.361 420.991C455.471 419.882 456.095 418.377 456.098 416.808V6.13814C456.095 4.56861 455.471 3.06418 454.361 1.95435C453.251 0.844525 451.747 0.219763 450.177 0.216896H240.765Z" fill="#EBEBEB"/>
<path d="M79.664 122.817L81.4208 126.364L85.3467 126.938L82.5053 129.704L83.1777 133.608L79.664 131.764L76.1611 133.608L76.8335 129.704L73.9922 126.938L77.918 126.364L79.664 122.817Z" fill="#EBEBEB"/>
<path d="M430.657 290.076L432.414 293.633L436.34 294.208L433.498 296.963L434.171 300.878L430.657 299.034L427.154 300.878L427.827 296.963L424.985 294.208L428.911 293.633L430.657 290.076Z" fill="#F5F5F5"/>
<path d="M361.143 393.198L362.899 396.744L366.814 397.319L363.973 400.084L364.645 403.988L361.143 402.145L357.64 403.988L358.301 400.084L355.471 397.319L359.386 396.744L361.143 393.198Z" fill="#F5F5F5"/>
<path d="M202.094 59.8094L202.745 61.1324L204.209 61.3493C204.29 61.36 204.367 61.3937 204.43 61.4466C204.494 61.4994 204.541 61.5692 204.566 61.6477C204.591 61.7262 204.593 61.8102 204.572 61.8899C204.551 61.9695 204.508 62.0416 204.447 62.0976L203.363 63.1279L203.612 64.5811C203.625 64.6619 203.615 64.7448 203.584 64.8205C203.553 64.8961 203.501 64.9617 203.435 65.0099C203.369 65.0582 203.29 65.0872 203.209 65.0938C203.127 65.1004 203.045 65.0843 202.972 65.0474L201.671 64.3533L200.37 65.0474C200.296 65.0843 200.215 65.1004 200.133 65.0938C200.051 65.0872 199.973 65.0582 199.907 65.0099C199.841 64.9617 199.789 64.8961 199.758 64.8205C199.727 64.7448 199.717 64.6619 199.73 64.5811L199.968 63.1279L198.884 62.0976C198.823 62.0409 198.78 61.9679 198.759 61.8874C198.739 61.8069 198.742 61.7222 198.768 61.6434C198.795 61.5646 198.843 61.495 198.908 61.4428C198.972 61.3907 199.051 61.3582 199.133 61.3493L200.586 61.1324L201.237 59.8094C201.263 59.7158 201.319 59.6333 201.396 59.5745C201.474 59.5157 201.568 59.4839 201.665 59.4839C201.763 59.4839 201.857 59.5157 201.934 59.5745C202.012 59.6333 202.068 59.7158 202.094 59.8094Z" fill="#EBEBEB"/>
<path d="M22.9787 376.314L23.6294 377.627L25.0826 377.843C25.1651 377.855 25.2428 377.889 25.3067 377.942C25.3707 377.996 25.4184 378.066 25.4444 378.145C25.4704 378.224 25.4736 378.309 25.4538 378.39C25.4339 378.471 25.3917 378.544 25.3321 378.603L24.2476 379.622L24.497 381.075C24.5098 381.156 24.5 381.239 24.4688 381.315C24.4375 381.39 24.3859 381.456 24.3197 381.504C24.2536 381.552 24.1753 381.581 24.0937 381.588C24.0121 381.594 23.9302 381.578 23.8572 381.541L22.5558 380.858L21.2544 381.541C21.1814 381.578 21.0995 381.594 21.0179 381.588C20.9363 381.581 20.858 381.552 20.7919 381.504C20.7257 381.456 20.6741 381.39 20.6428 381.315C20.6115 381.239 20.6018 381.156 20.6146 381.075L20.864 379.622L19.7795 378.603C19.7201 378.545 19.6777 378.472 19.6573 378.392C19.6369 378.312 19.6392 378.228 19.664 378.149C19.6888 378.07 19.735 378 19.7976 377.946C19.8601 377.892 19.9365 377.856 20.0181 377.843L21.4713 377.627L22.1329 376.314C22.1618 376.225 22.2184 376.147 22.2944 376.092C22.3703 376.037 22.4619 376.007 22.5558 376.007C22.6497 376.007 22.7413 376.037 22.8172 376.092C22.8932 376.147 22.9498 376.225 22.9787 376.314Z" fill="#F5F5F5"/>
<path d="M52.2264 45.8738L52.8771 47.1968L54.3412 47.4029C54.4228 47.4159 54.4991 47.4514 54.5617 47.5054C54.6242 47.5594 54.6705 47.6298 54.6953 47.7086C54.72 47.7875 54.7224 47.8717 54.702 47.9517C54.6815 48.0318 54.6392 48.1046 54.5797 48.162L53.4953 49.2465L53.7447 50.6888C53.762 50.7707 53.7553 50.8559 53.7253 50.934C53.6954 51.0121 53.6434 51.0799 53.5758 51.1292C53.5082 51.1785 53.4277 51.2072 53.3442 51.2118C53.2606 51.2164 53.1775 51.1967 53.1049 51.1552L51.8035 50.4719L50.5021 51.1552C50.4295 51.1967 50.3464 51.2164 50.2628 51.2118C50.1792 51.2072 50.0988 51.1785 50.0312 51.1292C49.9635 51.0799 49.9116 51.0121 49.8816 50.934C49.8517 50.8559 49.8449 50.7707 49.8623 50.6888L50.1009 49.2465L49.0164 48.162C48.9567 48.1039 48.9145 48.0303 48.8947 47.9494C48.8748 47.8685 48.8781 47.7837 48.9041 47.7046C48.93 47.6254 48.9777 47.5552 49.0417 47.5019C49.1057 47.4485 49.1833 47.4142 49.2658 47.4029L50.719 47.1968L51.4131 45.8738C51.4479 45.795 51.5049 45.728 51.5771 45.6809C51.6493 45.6339 51.7336 45.6089 51.8198 45.6089C51.9059 45.6089 51.9902 45.6339 52.0624 45.6809C52.1346 45.728 52.1916 45.795 52.2264 45.8738Z" fill="#EBEBEB"/>
<path d="M50.4706 307.253C50.4727 307.539 50.39 307.819 50.2328 308.058C50.0756 308.296 49.8511 308.483 49.5878 308.594C49.3244 308.704 49.0341 308.735 48.7536 308.68C48.4731 308.626 48.2151 308.489 48.0123 308.288C47.8094 308.087 47.671 307.83 47.6145 307.55C47.5579 307.269 47.5858 306.979 47.6947 306.715C47.8035 306.451 47.9884 306.225 48.2258 306.066C48.4632 305.907 48.7425 305.822 49.0283 305.822C49.4089 305.822 49.7741 305.972 50.0443 306.24C50.3145 306.509 50.4677 306.873 50.4706 307.253Z" fill="#EBEBEB"/>
<path d="M256.023 126.764C256.025 127.05 255.943 127.33 255.786 127.568C255.628 127.807 255.404 127.993 255.14 128.104C254.877 128.215 254.587 128.245 254.306 128.191C254.026 128.136 253.768 128 253.565 127.799C253.362 127.597 253.224 127.34 253.167 127.06C253.111 126.78 253.139 126.49 253.247 126.225C253.356 125.961 253.541 125.735 253.779 125.576C254.016 125.417 254.295 125.333 254.581 125.333C254.77 125.331 254.957 125.367 255.132 125.438C255.307 125.51 255.466 125.615 255.6 125.748C255.734 125.881 255.841 126.039 255.913 126.214C255.986 126.388 256.023 126.575 256.023 126.764Z" fill="#EBEBEB"/>
<path d="M181.236 47.0669C181.236 47.3521 181.152 47.631 180.993 47.8682C180.835 48.1054 180.609 48.2903 180.346 48.3994C180.082 48.5086 179.792 48.5372 179.513 48.4815C179.233 48.4259 178.976 48.2885 178.774 48.0868C178.572 47.885 178.435 47.628 178.379 47.3483C178.324 47.0685 178.352 46.7785 178.461 46.5149C178.571 46.2513 178.755 46.0261 178.993 45.8676C179.23 45.7091 179.509 45.6245 179.794 45.6245C180.176 45.6273 180.541 45.7802 180.811 46.0501C181.081 46.32 181.233 46.6852 181.236 47.0669Z" fill="#F5F5F5"/>
<path d="M183.522 398.593C187.807 397.581 190.46 393.288 189.449 389.004C188.438 384.719 184.145 382.066 179.86 383.077C175.576 384.088 172.922 388.381 173.934 392.666C174.945 396.95 179.238 399.604 183.522 398.593Z" fill="#F0F0F0"/>
<path d="M178.951 386.17C177.318 386.167 175.727 386.684 174.407 387.645C173.733 389.191 173.568 390.912 173.935 392.558C174.302 394.204 175.182 395.691 176.449 396.805C177.716 397.918 179.303 398.601 180.983 398.753C182.663 398.906 184.347 398.522 185.794 397.655C186.435 396.47 186.757 395.14 186.728 393.793C186.7 392.447 186.322 391.131 185.632 389.974C184.943 388.817 183.964 387.86 182.793 387.195C181.622 386.53 180.298 386.181 178.951 386.181V386.17Z" fill="#E6E6E6"/>
<path d="M117.222 252.29H51.2314V222.5L117.222 144.049H148.802V224.192H165.167V252.29H148.802V276.669H117.222V252.29ZM117.222 224.192V183.155L82.3451 224.192H117.222Z" fill="#4F46E5"/>
<path d="M176.456 210.941C176.456 186.149 180.917 168.798 189.839 158.886C198.76 148.974 212.356 144.021 230.626 144.028C239.396 144.028 246.6 145.113 252.239 147.282C257.362 149.128 262.053 152.003 266.023 155.73C269.369 158.925 272.204 162.615 274.428 166.672C276.628 170.908 278.286 175.404 279.362 180.055C281.814 189.989 283.038 200.187 283.006 210.42C283.006 234.076 279.004 251.388 271.001 262.356C262.997 273.323 249.214 278.811 229.65 278.818C218.675 278.818 209.807 277.068 203.048 273.569C196.233 270.013 190.494 264.7 186.423 258.18C183.278 253.38 180.83 246.811 179.081 238.475C177.264 229.411 176.385 220.184 176.456 210.941ZM212.396 211.027C212.396 227.656 213.86 238.996 216.788 245.047C219.716 251.099 223.971 254.139 229.552 254.168C231.323 254.188 233.081 253.856 234.723 253.191C236.365 252.526 237.858 251.542 239.117 250.296C241.821 247.715 243.809 243.637 245.082 238.063C246.354 232.489 246.991 223.813 246.991 212.036C246.991 194.728 245.523 183.091 242.588 177.127C239.652 171.162 235.249 168.183 229.379 168.19C223.392 168.19 219.054 171.231 216.365 177.311C213.675 183.391 212.352 194.63 212.396 211.027Z" fill="#4F46E5"/>
<path d="M360.211 252.29H294.221V222.5L360.211 144.049H391.791V224.192H408.21V252.29H391.791V276.669H360.211V252.29ZM360.211 224.192V183.155L325.345 224.192H360.211Z" fill="#4F46E5"/>
<g opacity="0.3">
<path d="M175.046 98.276C175.046 98.6776 174.927 99.0701 174.704 99.4038C174.48 99.7376 174.163 99.9975 173.792 100.151C173.421 100.304 173.012 100.343 172.619 100.264C172.225 100.185 171.864 99.9909 171.58 99.7062C171.297 99.4215 171.105 99.0591 171.028 98.665C170.951 98.2709 170.993 97.8628 171.148 97.4924C171.303 97.1221 171.565 96.8061 171.899 96.5846C172.234 96.363 172.627 96.2459 173.029 96.2481C173.295 96.2481 173.558 96.3006 173.803 96.4026C174.049 96.5047 174.272 96.6542 174.459 96.8427C174.647 97.0312 174.795 97.2548 174.896 97.5008C174.996 97.7468 175.048 98.0102 175.046 98.276Z" fill="#4F46E5"/>
<path d="M36.201 176.175C36.9916 176.175 37.6325 175.534 37.6325 174.743C37.6325 173.952 36.9916 173.312 36.201 173.312C35.4104 173.312 34.7695 173.952 34.7695 174.743C34.7695 175.534 35.4104 176.175 36.201 176.175Z" fill="#4F46E5"/>
<path d="M272.704 385.229C273.836 385.229 274.754 384.312 274.754 383.18C274.754 382.048 273.836 381.13 272.704 381.13C271.572 381.13 270.654 382.048 270.654 383.18C270.654 384.312 271.572 385.229 272.704 385.229Z" fill="#4F46E5"/>
<path d="M321.992 301.832C322.783 301.832 323.424 301.191 323.424 300.4C323.424 299.61 322.783 298.969 321.992 298.969C321.201 298.969 320.561 299.61 320.561 300.4C320.561 301.191 321.201 301.832 321.992 301.832Z" fill="#4F46E5"/>
<path d="M417.07 44.0521C417.07 44.3352 416.986 44.612 416.829 44.8474C416.672 45.0828 416.448 45.2663 416.186 45.3747C415.925 45.483 415.637 45.5113 415.359 45.4561C415.082 45.4009 414.827 45.2645 414.626 45.0643C414.426 44.8641 414.29 44.6091 414.235 44.3314C414.179 44.0537 414.208 43.7659 414.316 43.5043C414.424 43.2427 414.608 43.0192 414.843 42.8619C415.079 42.7046 415.355 42.6206 415.639 42.6206C416.018 42.6206 416.382 42.7714 416.651 43.0399C416.919 43.3083 417.07 43.6725 417.07 44.0521Z" fill="#4F46E5"/>
<path d="M144.411 15.1835C144.411 15.4666 144.327 15.7434 144.17 15.9788C144.012 16.2142 143.789 16.3977 143.527 16.506C143.266 16.6144 142.978 16.6427 142.7 16.5875C142.422 16.5322 142.167 16.3959 141.967 16.1957C141.767 15.9955 141.631 15.7404 141.575 15.4627C141.52 15.1851 141.548 14.8972 141.657 14.6356C141.765 14.3741 141.949 14.1505 142.184 13.9932C142.419 13.8359 142.696 13.752 142.979 13.752C143.358 13.7548 143.721 13.9065 143.988 14.1744C144.256 14.4422 144.408 14.8047 144.411 15.1835Z" fill="#4F46E5"/>
<path d="M258.225 90.2942C259.016 90.2942 259.657 89.6533 259.657 88.8627C259.657 88.0721 259.016 87.4312 258.225 87.4312C257.435 87.4312 256.794 88.0721 256.794 88.8627C256.794 89.6533 257.435 90.2942 258.225 90.2942Z" fill="#4F46E5"/>
</g>
<path d="M110.228 90.3045C123.35 90.3045 133.989 79.6664 133.989 66.5436C133.989 53.4208 123.35 42.7827 110.228 42.7827C97.1049 42.7827 86.4668 53.4208 86.4668 66.5436C86.4668 79.6664 97.1049 90.3045 110.228 90.3045Z" fill="#4F46E5"/>
<path opacity="0.7" d="M110.228 90.3045C123.35 90.3045 133.989 79.6664 133.989 66.5436C133.989 53.4208 123.35 42.7827 110.228 42.7827C97.1049 42.7827 86.4668 53.4208 86.4668 66.5436C86.4668 79.6664 97.1049 90.3045 110.228 90.3045Z" fill="white"/>
<path opacity="0.2" d="M102.039 48.6183C98.8026 48.6084 95.599 49.2616 92.6253 50.5378C88.9706 54.5546 86.8014 59.7016 86.4786 65.1226C86.1558 70.5436 87.6988 75.9117 90.8509 80.3339C94.0031 84.756 98.5743 87.9656 103.804 89.4286C109.034 90.8916 114.607 90.5198 119.596 88.3752C122.689 84.9663 124.726 80.7326 125.46 76.1882C126.193 71.6439 125.592 66.9843 123.728 62.7754C121.864 58.5665 118.818 54.9892 114.96 52.478C111.102 49.9669 106.598 48.6298 101.995 48.6291L102.039 48.6183Z" fill="#4F46E5"/>
<path opacity="0.2" d="M99.6748 54.8965C99.6748 55.3255 99.5476 55.7448 99.3093 56.1015C99.071 56.4582 98.7322 56.7362 98.3359 56.9003C97.9396 57.0645 97.5035 57.1075 97.0827 57.0238C96.662 56.9401 96.2755 56.7335 95.9722 56.4302C95.6689 56.1268 95.4623 55.7404 95.3786 55.3196C95.2949 54.8989 95.3379 54.4628 95.502 54.0665C95.6662 53.6701 95.9442 53.3314 96.3009 53.0931C96.6575 52.8547 97.0769 52.7275 97.5059 52.7275C98.0811 52.7275 98.6328 52.9561 99.0395 53.3628C99.4463 53.7696 99.6748 54.3212 99.6748 54.8965Z" fill="#4F46E5"/>
<path opacity="0.2" d="M125.226 52.729C125.226 53.158 125.098 53.5773 124.86 53.934C124.622 54.2907 124.283 54.5687 123.887 54.7329C123.49 54.897 123.054 54.94 122.634 54.8563C122.213 54.7726 121.826 54.566 121.523 54.2627C121.22 53.9594 121.013 53.5729 120.929 53.1521C120.846 52.7314 120.889 52.2953 121.053 51.899C121.217 51.5027 121.495 51.1639 121.852 50.9256C122.208 50.6873 122.628 50.5601 123.057 50.5601C123.632 50.5601 124.184 50.7886 124.59 51.1953C124.997 51.6021 125.226 52.1538 125.226 52.729Z" fill="#4F46E5"/>
<path opacity="0.2" d="M120.889 68.2148C120.889 68.9183 120.68 69.606 120.289 70.191C119.898 70.776 119.343 71.2319 118.693 71.5011C118.043 71.7703 117.328 71.8408 116.638 71.7035C115.948 71.5663 115.314 71.2275 114.816 70.73C114.319 70.2326 113.98 69.5988 113.843 68.9087C113.706 68.2187 113.776 67.5035 114.045 66.8536C114.314 66.2036 114.77 65.648 115.355 65.2572C115.94 64.8663 116.628 64.6577 117.331 64.6577C118.275 64.6577 119.18 65.0325 119.847 65.6996C120.514 66.3666 120.889 67.2714 120.889 68.2148Z" fill="#4F46E5"/>
<path opacity="0.2" d="M109.586 78.354C109.586 79.2935 109.307 80.2118 108.785 80.993C108.264 81.7741 107.522 82.3829 106.654 82.7424C105.786 83.102 104.831 83.196 103.909 83.0127C102.988 82.8295 102.141 82.3771 101.477 81.7128C100.813 81.0485 100.36 80.2021 100.177 79.2807C99.9939 78.3593 100.088 77.4042 100.448 76.5363C100.807 75.6683 101.416 74.9265 102.197 74.4045C102.978 73.8826 103.896 73.604 104.836 73.604C106.096 73.604 107.304 74.1044 108.195 74.9952C109.086 75.886 109.586 77.0942 109.586 78.354Z" fill="#4F46E5"/>
<path d="M391.834 353.156C394.48 341.946 387.538 330.714 376.328 328.068C365.118 325.423 353.886 332.365 351.241 343.575C348.595 354.784 355.537 366.016 366.747 368.662C377.957 371.308 389.189 364.365 391.834 353.156Z" fill="#4F46E5"/>
<path opacity="0.3" d="M391.834 353.156C394.48 341.946 387.538 330.714 376.328 328.068C365.118 325.423 353.886 332.365 351.241 343.575C348.595 354.784 355.537 366.016 366.747 368.662C377.957 371.308 389.189 364.365 391.834 353.156Z" fill="white"/>
<path opacity="0.4" d="M384.707 332.22C380.084 330.824 375.12 331.077 370.663 332.936C366.206 334.794 362.532 338.143 360.27 342.409C358.008 346.675 357.297 351.594 358.259 356.327C359.221 361.059 361.796 365.31 365.545 368.354C367.489 368.945 369.51 369.245 371.542 369.244C375.847 369.243 380.047 367.909 383.564 365.426C387.081 362.944 389.744 359.433 391.186 355.376C392.629 351.32 392.78 346.916 391.62 342.77C390.46 338.624 388.045 334.939 384.707 332.22Z" fill="#4F46E5"/>
<path d="M351.63 354.625C329.366 365.101 345.969 373.181 377.343 361.902C406.396 351.459 417.469 338.293 391.441 342.381C392.84 347.858 356.456 362.032 351.63 354.625Z" fill="#4F46E5"/>
<path opacity="0.2" d="M384.46 144.051C355.298 163.756 317.547 189.783 307.126 252.292H304.902C315.042 190.477 351.416 163.832 380.588 144.051H384.46Z" fill="black"/>
<path d="M233.609 339.733C215.173 339.733 196.943 331.416 188.061 317.838C182.584 309.444 176.218 291.865 195.175 268.407L196.856 269.774C183.452 286.366 180.979 303.013 189.883 316.656C200.727 333.248 226.31 341.599 248.152 335.656C270.524 329.572 284.102 310.116 285.414 282.278C289.893 187.05 340.484 157.715 377.421 136.297C400.379 122.99 416.961 113.382 413.317 93.091C412.808 90.2822 411.691 88.341 409.879 87.1481C405.162 84.0356 395.944 86.1937 385.273 88.6772C364.331 93.5573 335.658 100.238 318.577 71.1846L320.454 70.1001C336.721 97.7868 363.366 91.5727 384.785 86.5841C395.944 83.9922 405.574 81.7474 411.072 85.3587C413.404 86.8878 414.836 89.3062 415.41 92.7331C419.325 114.509 401.312 124.964 378.484 138.194C341.97 159.363 291.975 188.351 287.551 282.43C286.184 311.277 272.021 331.459 248.683 337.803C243.766 339.112 238.697 339.762 233.609 339.733Z" fill="#4F46E5"/>
<path opacity="0.2" d="M233.609 339.733C215.173 339.733 196.943 331.416 188.061 317.838C182.584 309.444 176.218 291.865 195.175 268.407L196.856 269.774C183.452 286.366 180.979 303.013 189.883 316.656C200.727 333.248 226.31 341.599 248.152 335.656C270.524 329.572 284.102 310.116 285.414 282.278C289.893 187.05 340.484 157.715 377.421 136.297C400.379 122.99 416.961 113.382 413.317 93.091C412.808 90.2822 411.691 88.341 409.879 87.1481C405.162 84.0356 395.944 86.1937 385.273 88.6772C364.331 93.5573 335.658 100.238 318.577 71.1846L320.454 70.1001C336.721 97.7868 363.366 91.5727 384.785 86.5841C395.944 83.9922 405.574 81.7474 411.072 85.3587C413.404 86.8878 414.836 89.3062 415.41 92.7331C419.325 114.509 401.312 124.964 378.484 138.194C341.97 159.363 291.975 188.351 287.551 282.43C286.184 311.277 272.021 331.459 248.683 337.803C243.766 339.112 238.697 339.762 233.609 339.733Z" fill="white"/>
<path d="M296.249 45.5488C301.246 45.5777 306.21 46.3563 310.976 47.8588C310.976 47.8588 322.905 68.2144 324.315 72.8776C323.816 77.4758 316.062 85.0129 316.062 85.0129L296.249 45.5488Z" fill="#4F46E5"/>
<path opacity="0.3" d="M296.249 45.5488C301.246 45.5777 306.21 46.3563 310.976 47.8588C310.976 47.8588 322.905 68.2144 324.315 72.8776C323.816 77.4758 316.062 85.0129 316.062 85.0129L296.249 45.5488Z" fill="white"/>
<path d="M331.58 144.377C326.986 138.76 322.797 132.824 319.043 126.613C318.132 125.044 317.269 123.447 316.452 121.82C315.985 120.898 315.541 119.976 315.107 119.044C314.538 118.136 314.096 117.154 313.795 116.126C312.493 102.386 317.2 92.2679 312.71 81.2388L294.838 88.2228C294.838 88.2228 296.356 107.874 299.826 119.673C301.995 126.971 306.854 133.283 311.55 139.128C313.014 140.95 314.424 142.826 315.888 144.659C317.352 146.492 318.827 147.977 320.225 149.702C322.34 152.315 323.034 154.82 321.44 157.9L321.169 158.388C320.713 159.191 322.839 160.102 324.184 158.388C326.353 155.59 326.049 155.764 327.936 153.378C329.086 151.936 330.398 150.363 331.537 149.04C332.086 148.39 332.391 147.568 332.399 146.716C332.407 145.865 332.117 145.038 331.58 144.377Z" fill="#4F46E5"/>
<path opacity="0.7" d="M331.58 144.377C326.986 138.76 322.797 132.824 319.043 126.613C318.132 125.044 317.269 123.447 316.452 121.82C315.985 120.898 315.541 119.976 315.107 119.044C314.538 118.136 314.096 117.154 313.795 116.126C312.493 102.386 317.2 92.2679 312.71 81.2388L294.838 88.2228C294.838 88.2228 296.356 107.874 299.826 119.673C301.995 126.971 306.854 133.283 311.55 139.128C313.014 140.95 314.424 142.826 315.888 144.659C317.352 146.492 318.827 147.977 320.225 149.702C322.34 152.315 323.034 154.82 321.44 157.9L321.169 158.388C320.713 159.191 322.839 160.102 324.184 158.388C326.353 155.59 326.049 155.764 327.936 153.378C329.086 151.936 330.398 150.363 331.537 149.04C332.086 148.39 332.391 147.568 332.399 146.716C332.407 145.865 332.117 145.038 331.58 144.377Z" fill="white"/>
<path opacity="0.3" d="M327.208 138.727C324.372 141.767 321.224 144.501 317.816 146.882C318.283 147.403 318.738 147.967 319.205 148.466C322.616 146.161 325.715 143.423 328.423 140.321L327.208 138.727Z" fill="#4F46E5"/>
<path opacity="0.3" d="M331.578 144.375L331.448 144.224C330.614 145.181 330.128 146.393 330.071 147.661C330.001 148.532 330.143 149.406 330.483 150.21L331.513 148.984C332.052 148.341 332.352 147.531 332.364 146.692C332.376 145.852 332.099 145.034 331.578 144.375Z" fill="#4F46E5"/>
<path d="M291.997 58.5624C290.059 61.4635 287.735 64.0868 285.089 66.3598C283.621 67.6247 282.013 68.7164 280.295 69.6133C279.393 70.0756 278.458 70.4707 277.498 70.7953L276.76 71.0339L276.522 71.099L276.012 71.24C275.698 71.3144 275.379 71.3652 275.057 71.3918C274.143 71.4618 273.222 71.3774 272.335 71.1424C271.217 70.8249 270.145 70.3618 269.147 69.7651C268.344 69.2957 267.566 68.7853 266.815 68.236C265.46 67.2274 264.163 66.1411 262.933 64.9825C260.561 62.7349 258.384 60.2896 256.426 57.6732C256.049 57.1634 255.862 56.5381 255.897 55.9051C255.931 55.272 256.186 54.671 256.617 54.2056C257.047 53.7403 257.627 53.4399 258.255 53.3562C258.884 53.2726 259.522 53.4109 260.059 53.7474H260.146C262.705 55.3741 265.286 57.0876 267.802 58.6167C269.082 59.365 270.318 60.1241 271.544 60.7097C272.103 61.0026 272.679 61.2633 273.268 61.4905C273.635 61.6526 274.028 61.748 274.428 61.7725C274.494 61.7725 274.428 61.6966 274.027 61.7074C273.901 61.6999 273.774 61.6999 273.648 61.7074L273.409 61.7616L273.767 61.5773C274.249 61.318 274.716 61.032 275.166 60.7205C276.136 60.0364 277.044 59.267 277.877 58.4215C279.772 56.436 281.546 54.3392 283.191 52.1423C284.092 51.1341 285.338 50.4989 286.683 50.3616C288.028 50.2242 289.376 50.5945 290.463 51.3998C291.549 52.2051 292.296 53.3872 292.555 54.7144C292.815 56.0415 292.57 57.4178 291.867 58.5733L291.997 58.5624Z" fill="#4F46E5"/>
<path opacity="0.7" d="M291.997 58.5624C290.059 61.4635 287.735 64.0868 285.089 66.3598C283.621 67.6247 282.013 68.7164 280.295 69.6133C279.393 70.0756 278.458 70.4707 277.498 70.7953L276.76 71.0339L276.522 71.099L276.012 71.24C275.698 71.3144 275.379 71.3652 275.057 71.3918C274.143 71.4618 273.222 71.3774 272.335 71.1424C271.217 70.8249 270.145 70.3618 269.147 69.7651C268.344 69.2957 267.566 68.7853 266.815 68.236C265.46 67.2274 264.163 66.1411 262.933 64.9825C260.561 62.7349 258.384 60.2896 256.426 57.6732C256.049 57.1634 255.862 56.5381 255.897 55.9051C255.931 55.272 256.186 54.671 256.617 54.2056C257.047 53.7403 257.627 53.4399 258.255 53.3562C258.884 53.2726 259.522 53.4109 260.059 53.7474H260.146C262.705 55.3741 265.286 57.0876 267.802 58.6167C269.082 59.365 270.318 60.1241 271.544 60.7097C272.103 61.0026 272.679 61.2633 273.268 61.4905C273.635 61.6526 274.028 61.748 274.428 61.7725C274.494 61.7725 274.428 61.6966 274.027 61.7074C273.901 61.6999 273.774 61.6999 273.648 61.7074L273.409 61.7616L273.767 61.5773C274.249 61.318 274.716 61.032 275.166 60.7205C276.136 60.0364 277.044 59.267 277.877 58.4215C279.772 56.436 281.546 54.3392 283.191 52.1423C284.092 51.1341 285.338 50.4989 286.683 50.3616C288.028 50.2242 289.376 50.5945 290.463 51.3998C291.549 52.2051 292.296 53.3872 292.555 54.7144C292.815 56.0415 292.57 57.4178 291.867 58.5733L291.997 58.5624Z" fill="white"/>
<path d="M252.359 51.4257L253.627 53.5947C253.627 53.5947 254.593 56.436 256.534 56.9565L261.804 55.2539L261.533 54.8093C260.861 53.7899 260.937 51.8053 261.165 50.1569C261.392 48.5085 260.546 48.4543 259.917 48.8664C259.472 49.3791 259.159 49.9936 259.006 50.6557C258.748 50.2976 258.461 49.9604 258.15 49.6472L256.545 48.0422C256.208 47.713 255.759 47.5234 255.289 47.5114C254.818 47.4993 254.36 47.6657 254.007 47.9771L252.706 49.1375C252.397 49.423 252.194 49.805 252.131 50.2208C252.068 50.6366 252.148 51.0615 252.359 51.4257Z" fill="#4F46E5"/>
<path opacity="0.7" d="M252.359 51.4257L253.627 53.5947C253.627 53.5947 254.593 56.436 256.534 56.9565L261.804 55.2539L261.533 54.8093C260.861 53.7899 260.937 51.8053 261.165 50.1569C261.392 48.5085 260.546 48.4543 259.917 48.8664C259.472 49.3791 259.159 49.9936 259.006 50.6557C258.748 50.2976 258.461 49.9604 258.15 49.6472L256.545 48.0422C256.208 47.713 255.759 47.5234 255.289 47.5114C254.818 47.4993 254.36 47.6657 254.007 47.9771L252.706 49.1375C252.397 49.423 252.194 49.805 252.131 50.2208C252.068 50.6366 252.148 51.0615 252.359 51.4257Z" fill="white"/>
<path d="M301.572 43.6185C295.726 45.1681 290.126 47.5299 284.936 50.6351C284.126 51.1418 283.491 51.8839 283.115 52.762C282.739 53.64 282.64 54.612 282.832 55.5477C284.925 65.7852 289.686 79.493 294.826 88.223L318.804 78.3001C318.967 74.0706 313.143 60.3845 307.211 47.1539C306.148 44.7789 304.098 43.0112 301.572 43.6185Z" fill="#4F46E5"/>
<path opacity="0.8" d="M301.572 43.6185C295.726 45.1681 290.126 47.5299 284.936 50.6351C284.126 51.1418 283.491 51.8839 283.115 52.762C282.739 53.64 282.64 54.612 282.832 55.5477C284.925 65.7852 289.686 79.493 294.826 88.223L318.804 78.3001C318.967 74.0706 313.143 60.3845 307.211 47.1539C306.148 44.7789 304.098 43.0112 301.572 43.6185Z" fill="white"/>
<path opacity="0.3" d="M310.932 55.5361L306.171 53.9419C307.255 56.729 311.084 60.2536 313.762 62.3249C312.895 60.1559 311.929 57.8785 310.932 55.5361Z" fill="#4F46E5"/>
<path d="M299.999 32.8817C298.014 29.1077 293.731 27.2099 288.59 27.6329C284.252 28.0016 280.413 32.4262 280.869 34.8121C281.324 37.1979 284.968 38.2173 285.662 39.0415L282.658 41.2105C282.302 41.4674 282.002 41.7936 281.776 42.1695C281.549 42.5454 281.401 42.9632 281.34 43.3979C281.28 43.8325 281.307 44.275 281.422 44.6986C281.537 45.1222 281.736 45.5183 282.008 45.8629C283.276 47.4679 284.947 49.1163 285.912 50.3309C294.219 50.1141 300.368 46.9474 302.591 43.9C301.756 40.0393 301.929 36.634 299.999 32.8817Z" fill="#4F46E5"/>
<path opacity="0.8" d="M299.999 32.8817C298.014 29.1077 293.731 27.2099 288.59 27.6329C284.252 28.0016 280.413 32.4262 280.869 34.8121C281.324 37.1979 284.968 38.2173 285.662 39.0415L282.658 41.2105C282.302 41.4674 282.002 41.7936 281.776 42.1695C281.549 42.5454 281.401 42.9632 281.34 43.3979C281.28 43.8325 281.307 44.275 281.422 44.6986C281.537 45.1222 281.736 45.5183 282.008 45.8629C283.276 47.4679 284.947 49.1163 285.912 50.3309C294.219 50.1141 300.368 46.9474 302.591 43.9C301.756 40.0393 301.929 36.634 299.999 32.8817Z" fill="white"/>
<path d="M295.925 35.224C296.514 36.7364 296.642 38.3897 296.293 39.9749C295.943 41.5601 295.131 43.006 293.96 44.13C292.788 45.2539 291.31 46.0053 289.712 46.2892C288.114 46.5732 286.467 46.3769 284.98 45.7252C283.493 45.0735 282.233 43.9956 281.359 42.6279C280.485 41.2601 280.035 39.6639 280.068 38.0409C280.101 36.4179 280.614 34.841 281.543 33.5096C282.471 32.1782 283.774 31.152 285.286 30.5607C287.315 29.7702 289.575 29.8172 291.57 30.6915C293.564 31.5658 295.131 33.1959 295.925 35.224Z" fill="#263238"/>
<path d="M366.338 132.956C366.219 129.389 366.056 129.703 365.958 126.699C365.893 124.855 365.882 122.806 365.871 121.038C365.868 120.199 365.575 119.386 365.041 118.738C364.507 118.09 363.767 117.646 362.943 117.481C361.512 117.188 360.07 116.917 358.606 116.613C356.729 116.212 354.875 115.778 353.042 115.247C351.611 114.835 350.201 114.379 348.802 113.87C347.403 113.36 345.83 112.785 344.377 112.113C342.664 111.386 340.972 110.605 339.302 109.792C337.426 108.903 335.571 107.97 333.717 107.027C326.581 95.2167 326.429 87.4301 318.773 78.2988L302.332 85.7383C302.332 85.7383 314.413 107.168 322.633 116.256C327.373 121.483 334.801 123.847 341.427 125.56C346.21 126.786 351.058 127.729 355.905 128.629C357.792 128.976 359.842 129.107 361.469 130.234C362.672 131.157 363.497 132.488 363.789 133.976C363.862 134.279 363.927 134.583 363.985 134.887C364.191 135.798 366.414 135.104 366.338 132.956Z" fill="#4F46E5"/>
<path opacity="0.8" d="M366.338 132.956C366.219 129.389 366.056 129.703 365.958 126.699C365.893 124.855 365.882 122.806 365.871 121.038C365.868 120.199 365.575 119.386 365.041 118.738C364.507 118.09 363.767 117.646 362.943 117.481C361.512 117.188 360.07 116.917 358.606 116.613C356.729 116.212 354.875 115.778 353.042 115.247C351.611 114.835 350.201 114.379 348.802 113.87C347.403 113.36 345.83 112.785 344.377 112.113C342.664 111.386 340.972 110.605 339.302 109.792C337.426 108.903 335.571 107.97 333.717 107.027C326.581 95.2167 326.429 87.4301 318.773 78.2988L302.332 85.7383C302.332 85.7383 314.413 107.168 322.633 116.256C327.373 121.483 334.801 123.847 341.427 125.56C346.21 126.786 351.058 127.729 355.905 128.629C357.792 128.976 359.842 129.107 361.469 130.234C362.672 131.157 363.497 132.488 363.789 133.976C363.862 134.279 363.927 134.583 363.985 134.887C364.191 135.798 366.414 135.104 366.338 132.956Z" fill="white"/>
<path opacity="0.3" d="M357.997 116.473C357.346 116.332 356.695 116.191 356.034 116.029C356.088 119.781 354.331 126.245 353.691 128.207L355.752 128.598C357.102 124.691 357.859 120.604 357.997 116.473Z" fill="#4F46E5"/>
<path opacity="0.3" d="M365.916 121.039C365.913 120.201 365.621 119.39 365.089 118.742C364.558 118.094 363.82 117.649 362.999 117.482L361.914 117.276C362.088 118.509 362.719 119.631 363.682 120.421C364.301 120.993 365.043 121.416 365.851 121.657C365.916 121.462 365.916 121.245 365.916 121.039Z" fill="#4F46E5"/>
<path d="M294.393 35.289C294.827 36.9374 292.983 38.6617 291.519 37.2411C290.153 35.776 288.657 34.4367 287.051 33.2394C285.544 32.2959 287.55 30.6475 289.925 31.2873C290.938 31.5419 291.875 32.0392 292.653 32.7364C293.431 33.4336 294.029 34.3096 294.393 35.289Z" fill="white"/>
<path d="M294.513 87.6918C293.754 87.9737 295.142 89.2751 295.142 89.2751C295.142 89.2751 310.325 84.0805 319.543 78.734C319.565 78.4103 319.51 78.086 319.382 77.788C319.253 77.4899 319.056 77.2268 318.805 77.0205C310.916 81.0337 302.806 84.5965 294.513 87.6918Z" fill="#4F46E5"/>
<path opacity="0.5" d="M294.513 87.6918C293.754 87.9737 295.142 89.2751 295.142 89.2751C295.142 89.2751 310.325 84.0805 319.543 78.734C319.565 78.4103 319.51 78.086 319.382 77.788C319.253 77.4899 319.056 77.2268 318.805 77.0205C310.916 81.0337 302.806 84.5965 294.513 87.6918Z" fill="white"/>
<path d="M305.681 42.9027C308.675 44.421 311.483 46.0152 314.357 47.7829C315.756 48.6721 317.144 49.5722 318.522 50.5483C319.899 51.5243 321.265 52.522 322.643 53.6499L323.152 54.0728L323.792 54.6584C324.174 54.9996 324.536 55.3616 324.877 55.7429C325.224 56.1225 325.517 56.4912 325.798 56.8274C326.08 57.1636 326.384 57.5648 326.634 57.9119C327.644 59.3061 328.578 60.7542 329.431 62.2498C331.112 65.1501 332.563 68.1778 333.769 71.3052C333.992 71.896 334.004 72.5459 333.802 73.1443C333.6 73.7428 333.197 74.2527 332.662 74.5876C332.126 74.9224 331.491 75.0615 330.865 74.9811C330.238 74.9006 329.659 74.6057 329.225 74.1465L329.171 74.0814C327.002 71.7715 324.909 69.3423 322.805 67.0757C320.701 64.8091 318.565 62.51 316.797 61.5015C314.336 59.9724 311.592 58.4433 308.87 56.9467L300.671 52.3919C299.4 51.7188 298.448 50.5684 298.025 49.1935C297.602 47.8187 297.742 46.3321 298.415 45.0608C299.088 43.7895 300.239 42.8377 301.614 42.4147C302.989 41.9916 304.475 42.1321 305.747 42.8051L305.681 42.9027Z" fill="#4F46E5"/>
<path opacity="0.8" d="M305.681 42.9027C308.675 44.421 311.483 46.0152 314.357 47.7829C315.756 48.6721 317.144 49.5722 318.522 50.5483C319.899 51.5243 321.265 52.522 322.643 53.6499L323.152 54.0728L323.792 54.6584C324.174 54.9996 324.536 55.3616 324.877 55.7429C325.224 56.1225 325.517 56.4912 325.798 56.8274C326.08 57.1636 326.384 57.5648 326.634 57.9119C327.644 59.3061 328.578 60.7542 329.431 62.2498C331.112 65.1501 332.563 68.1778 333.769 71.3052C333.992 71.896 334.004 72.5459 333.802 73.1443C333.6 73.7428 333.197 74.2527 332.662 74.5876C332.126 74.9224 331.491 75.0615 330.865 74.9811C330.238 74.9006 329.659 74.6057 329.225 74.1465L329.171 74.0814C327.002 71.7715 324.909 69.3423 322.805 67.0757C320.701 64.8091 318.565 62.51 316.797 61.5015C314.336 59.9724 311.592 58.4433 308.87 56.9467L300.671 52.3919C299.4 51.7188 298.448 50.5684 298.025 49.1935C297.602 47.8187 297.742 46.3321 298.415 45.0608C299.088 43.7895 300.239 42.8377 301.614 42.4147C302.989 41.9916 304.475 42.1321 305.747 42.8051L305.681 42.9027Z" fill="white"/>
<path d="M336.342 76.7162L335.421 74.4063C335.421 74.4063 334.911 71.4565 333.078 70.6323L327.656 71.4891L327.84 71.9662C328.339 73.0507 327.959 75.0353 327.471 76.6186C326.983 78.202 327.808 78.408 328.502 78.0935C328.892 77.92 329.272 77.2151 329.684 76.4668C329.886 76.8438 330.114 77.2062 330.367 77.5513L331.701 79.384C331.98 79.7638 332.392 80.0241 332.854 80.1126C333.317 80.2012 333.796 80.1113 334.195 79.8612L335.67 78.9177C336.015 78.6815 336.27 78.3349 336.392 77.9348C336.514 77.5348 336.497 77.105 336.342 76.7162Z" fill="#4F46E5"/>
<path opacity="0.8" d="M336.342 76.7162L335.421 74.4063C335.421 74.4063 334.911 71.4565 333.078 70.6323L327.656 71.4891L327.84 71.9662C328.339 73.0507 327.959 75.0353 327.471 76.6186C326.983 78.202 327.808 78.408 328.502 78.0935C328.892 77.92 329.272 77.2151 329.684 76.4668C329.886 76.8438 330.114 77.2062 330.367 77.5513L331.701 79.384C331.98 79.7638 332.392 80.0241 332.854 80.1126C333.317 80.2012 333.796 80.1113 334.195 79.8612L335.67 78.9177C336.015 78.6815 336.27 78.3349 336.392 77.9348C336.514 77.5348 336.497 77.105 336.342 76.7162Z" fill="white"/>
<path opacity="0.3" d="M301.106 55.374L299.783 55.4825L291.66 75.0898C292.104 75.1217 292.55 75.0852 292.983 74.9814C292.983 74.9814 303.568 71.0339 306.767 69.559C304.62 65.1235 301.106 55.374 301.106 55.374Z" fill="#4F46E5"/>
<path d="M286.281 60.5129C287.268 65.6384 289.101 70.564 291.704 75.0883C295.673 73.7218 302.288 71.1408 305.498 69.6659C303.341 65.0405 301.426 60.3058 299.761 55.481C296.367 55.7087 288.917 58.5609 286.281 60.5129Z" fill="white"/>
<path opacity="0.3" d="M294.34 64.7551C294.181 65.2854 293.869 65.7568 293.443 66.1096C293.016 66.4625 292.495 66.6808 291.944 66.7371C291.393 66.7935 290.838 66.6852 290.349 66.426C289.86 66.1668 289.459 65.7684 289.196 65.2811C288.934 64.7939 288.821 64.2397 288.874 63.6886C288.926 63.1376 289.141 62.6145 289.491 62.1855C289.841 61.7565 290.31 61.4409 290.839 61.2787C291.368 61.1164 291.934 61.1148 292.464 61.2739C293.174 61.4872 293.771 61.9736 294.122 62.6263C294.474 63.279 294.552 64.0447 294.34 64.7551Z" fill="#4F46E5"/>
<path opacity="0.6" d="M296.41 61.024C296.368 61.205 296.272 61.369 296.135 61.4945C295.998 61.62 295.826 61.7011 295.642 61.7271C295.458 61.7531 295.27 61.7229 295.103 61.6404C294.937 61.5579 294.799 61.427 294.708 61.2648C294.618 61.1026 294.578 60.9167 294.595 60.7316C294.611 60.5464 294.684 60.3707 294.802 60.2274C294.92 60.084 295.079 59.9798 295.258 59.9285C295.437 59.8771 295.627 59.8809 295.803 59.9395C296.023 60.0098 296.208 60.1608 296.32 60.3621C296.433 60.5634 296.465 60.7999 296.41 61.024Z" fill="#4F46E5"/>
<path opacity="0.6" d="M298.84 60.08C298.814 60.2058 298.763 60.3249 298.689 60.4297C298.615 60.5345 298.52 60.6226 298.409 60.6884C298.299 60.7543 298.176 60.7964 298.049 60.8121C297.922 60.8278 297.792 60.8167 297.67 60.7795C297.547 60.7423 297.433 60.6799 297.336 60.5963C297.238 60.5126 297.159 60.4096 297.104 60.2937C297.049 60.1778 297.019 60.0517 297.015 59.9234C297.011 59.7951 297.035 59.6674 297.083 59.5486C297.118 59.4338 297.175 59.3271 297.251 59.2344C297.327 59.1417 297.421 59.065 297.526 59.0085C297.632 58.9521 297.748 58.9171 297.867 58.9056C297.987 58.8941 298.107 58.9062 298.222 58.9413C298.454 59.0116 298.649 59.1706 298.765 59.3837C298.88 59.5969 298.907 59.847 298.84 60.08Z" fill="#4F46E5"/>
<path opacity="0.5" d="M302.246 68.5279L292.215 72.4863L291.618 70.5125L301.639 66.5542L302.246 68.5279Z" fill="#4F46E5"/>
<path opacity="0.2" d="M246.904 219.25C246.88 225.565 246.27 231.864 245.082 238.066C243.802 243.64 241.814 247.718 239.117 250.299C237.861 251.546 236.369 252.53 234.729 253.195C233.089 253.86 231.333 254.191 229.563 254.171C223.989 254.171 219.734 251.13 216.799 245.05C216.283 243.958 215.844 242.831 215.486 241.677C209.287 247.002 203.515 252.803 198.221 259.029L192.463 265.818C195.562 268.959 199.138 271.59 203.058 273.615C209.811 277.107 218.675 278.857 229.65 278.864C231.58 278.864 233.445 278.81 235.256 278.701C241.896 268.877 247.39 258.325 251.632 247.252L267.736 205.261L246.904 219.25Z" fill="black"/>
<path d="M101.725 276.543L120.703 295.521L173.842 245.451C155.525 238.456 119.911 258.313 101.725 276.543Z" fill="#263238"/>
<path d="M167.911 342.695C161.849 336.622 148.933 323.717 148.933 323.717L199.003 270.578C205.954 288.851 186.098 324.498 167.911 342.695Z" fill="#263238"/>
<path d="M240.549 223.078L261.251 183.158L221.332 203.883C208.51 210.532 196.67 218.927 186.151 228.826L118.101 292.886L151.535 326.32L215.595 258.269C225.499 247.748 233.896 235.905 240.549 223.078Z" fill="#4F46E5"/>
<path opacity="0.6" d="M240.549 223.078L261.251 183.158L221.332 203.883C208.51 210.532 196.67 218.927 186.151 228.826L118.101 292.886L151.535 326.32L215.595 258.269C225.499 247.748 233.896 235.905 240.549 223.078Z" fill="white"/>
<path d="M198.037 260.362C205.763 260.362 212.026 254.099 212.026 246.373C212.026 238.646 205.763 232.383 198.037 232.383C190.31 232.383 184.047 238.646 184.047 246.373C184.047 254.099 190.31 260.362 198.037 260.362Z" fill="white"/>
<path d="M198.04 255.362C203.005 255.362 207.03 251.337 207.03 246.372C207.03 241.407 203.005 237.382 198.04 237.382C193.075 237.382 189.05 241.407 189.05 246.372C189.05 251.337 193.075 255.362 198.04 255.362Z" fill="#4F46E5"/>
<path opacity="0.3" d="M162.847 314.304L130.106 281.563L156.915 256.338L188.072 287.506L162.847 314.304Z" fill="#4F46E5"/>
<path d="M109.133 306.496C84.6238 308.48 76.501 324.173 73.7248 345.027C72.315 355.666 71.686 366.435 62.7607 372.66C62.2238 373.024 61.8195 373.553 61.6085 374.167C61.3974 374.781 61.391 375.447 61.59 376.065C61.7891 376.683 62.183 377.22 62.7127 377.595C63.2424 377.97 63.8794 378.164 64.5284 378.147C97.4314 377.117 112.777 361.012 114.707 354.288C114.2 357.803 113.294 361.249 112.007 364.558C111.77 365.142 111.724 365.786 111.874 366.398C112.025 367.01 112.365 367.559 112.846 367.966C113.326 368.374 113.923 368.619 114.552 368.667C115.18 368.715 115.807 368.564 116.345 368.235C125.574 362.455 137.156 351.805 137.926 334.529C131.137 324.91 109.133 306.496 109.133 306.496Z" fill="#4F46E5"/>
<path opacity="0.2" d="M109.133 306.496C84.6238 308.48 76.501 324.173 73.7248 345.027C72.315 355.666 71.686 366.435 62.7607 372.66C62.2238 373.024 61.8195 373.553 61.6085 374.167C61.3974 374.781 61.391 375.447 61.59 376.065C61.7891 376.683 62.183 377.22 62.7127 377.595C63.2424 377.97 63.8794 378.164 64.5284 378.147C97.4314 377.117 112.777 361.012 114.707 354.288C114.2 357.803 113.294 361.249 112.007 364.558C111.77 365.142 111.724 365.786 111.874 366.398C112.025 367.01 112.365 367.559 112.846 367.966C113.326 368.374 113.923 368.619 114.552 368.667C115.18 368.715 115.807 368.564 116.345 368.235C125.574 362.455 137.156 351.805 137.926 334.529C131.137 324.91 109.133 306.496 109.133 306.496Z" fill="white"/>
<path d="M141.734 341.936L102.476 302.678L123.384 298.155L146.256 321.027L141.734 341.936Z" fill="#4F46E5"/>
</svg>
