<svg width="128" height="98" viewBox="0 0 128 98" fill="none" xmlns="http://www.w3.org/2000/svg">
<path d="M18.6845 88.2305C43.5971 101.256 83.9893 101.256 108.902 88.2305C133.815 75.2047 133.815 54.115 108.902 41.1013C83.9893 28.0875 43.5971 28.0754 18.6845 41.1013C-6.22816 54.1271 -6.22816 75.2138 18.6845 88.2305Z" fill="#FFEDD5"/>
<path d="M32.4491 28.3636L38.4531 24.8981L32.4491 21.4326L26.3906 24.8981L32.4491 28.3636Z" stroke="#FB923C" stroke-width="1.08419" stroke-linecap="round" stroke-linejoin="round"/>
<path d="M27.7871 24.9007L32.4522 11.4175V27.5937L27.7871 24.9007Z" fill="#FDBA74"/>
<path d="M32.4512 27.5937L37.1132 24.9007L32.4512 11.4175V27.5937Z" fill="#FB923C"/>
<path d="M25.1113 32.5926L31.1153 29.1271L25.1113 25.6616L19.0527 29.1271L25.1113 32.5926Z" stroke="#FB923C" stroke-width="1.08419" stroke-linecap="round" stroke-linejoin="round"/>
<path d="M20.4492 29.1299L25.1113 9.10645V31.8229L20.4492 29.1299Z" fill="#FDBA74"/>
<path d="M25.1104 31.8229L29.7724 29.1299L25.1104 9.10645V31.8229Z" fill="#FB923C"/>
<path d="M17.7744 36.8211L23.7784 33.3556L17.7744 29.8901L11.7129 33.3556L17.7744 36.8211Z" stroke="#FB923C" stroke-width="1.08419" stroke-linecap="round" stroke-linejoin="round"/>
<path d="M13.1123 33.3588L17.7743 21.4326V36.0518L13.1123 33.3588Z" fill="#FDBA74"/>
<path d="M17.7754 36.0518L22.4374 33.3588L17.7754 21.4326V36.0518Z" fill="#FB923C"/>
<path d="M10.4375 41.0496L16.4415 37.5841L10.4375 34.1187L4.37598 37.5841L10.4375 41.0496Z" stroke="#FB923C" stroke-width="1.08419" stroke-linecap="round" stroke-linejoin="round"/>
<path d="M5.77246 37.5874L10.4375 17.3398V40.2804L5.77246 37.5874Z" fill="#FDBA74"/>
<path d="M10.4385 40.2804L15.1005 37.5874L10.4385 17.3398V40.2804Z" fill="#FB923C"/>
<path d="M90.4561 23.7563L122.475 42.2409" stroke="#FB923C" stroke-width="1.08419" stroke-miterlimit="10" stroke-linecap="round"/>
<path d="M122.475 40.2801C122.437 37.9597 122.274 35.6431 121.988 33.3401C121.685 30.8379 121.079 26.6151 118.671 25.2217C116.262 23.8282 115.353 26.3485 115.005 27.5875C114.551 29.1961 112.191 28.1782 111.864 25.5276C111.537 22.877 111.322 14.4314 108.492 12.8047C105.663 11.178 104.751 15.1009 104.43 16.1975C103.797 18.3513 101.94 17.7576 101.334 16.3308C100.728 14.904 99.0742 14.5556 98.4502 16.564C97.8262 18.5724 97.4415 20.8777 95.4209 19.6933C93.6458 18.6542 94.4607 16.7609 92.731 15.8612C91.3617 15.1524 90.7256 18.5331 90.7256 21.9531L122.475 40.2801Z" fill="#FDBA74"/>
<path d="M120.148 22.6534C120.148 23.0229 119.815 23.129 119.409 22.8957L116.985 21.4901C116.786 21.3772 116.616 21.2197 116.487 21.03C116.359 20.8403 116.277 20.6235 116.246 20.3966C116.246 20.03 116.579 19.921 116.985 20.1572L119.409 21.5628C119.608 21.6751 119.778 21.832 119.906 22.0212C120.035 22.2104 120.117 22.4268 120.148 22.6534Z" fill="#FB923C"/>
<path d="M110.201 10.7696C110.201 11.1391 109.87 11.2452 109.461 11.0119L107.038 9.60633C106.838 9.49397 106.668 9.33664 106.539 9.14683C106.411 8.95701 106.329 8.73992 106.299 8.51277C106.299 8.14623 106.629 8.03717 107.038 8.27346L109.461 9.67903C109.661 9.79092 109.831 9.94772 109.96 10.137C110.088 10.3263 110.17 10.5429 110.201 10.7696Z" fill="#FB923C"/>
<path d="M102.322 12.9561C102.322 13.3257 101.991 13.4317 101.585 13.1984L99.162 11.7929C98.9623 11.6805 98.7916 11.5232 98.6633 11.3333C98.535 11.1435 98.4527 10.9264 98.4229 10.6993C98.4229 10.3327 98.753 10.2237 99.162 10.46L101.585 11.8656C101.784 11.978 101.954 12.135 102.082 12.3242C102.209 12.5135 102.292 12.7298 102.322 12.9561Z" fill="#FB923C"/>
<path d="M94.8508 13.6802C94.8508 14.0498 94.5206 14.1558 94.1117 13.9195L91.6883 12.517C91.4895 12.4039 91.3196 12.2463 91.1919 12.0566C91.0641 11.8669 90.9821 11.6501 90.9521 11.4234C90.9521 11.0569 91.2823 10.9478 91.6883 11.1841L94.1117 12.5867C94.311 12.6994 94.4815 12.8568 94.6098 13.0466C94.738 13.2363 94.8205 13.4532 94.8508 13.6802Z" fill="#FB923C"/>
<path d="M89.123 21.0265V1" stroke="#FB923C" stroke-width="1.08419" stroke-miterlimit="10" stroke-linecap="round"/>
<path d="M11.508 65.3239C11.508 65.3239 12.0048 60.8769 10.6265 56.642C9.32998 52.6374 6.72481 50.5138 5.14657 49.8777C2.16275 48.6872 1.89617 51.9739 4.13177 54.2489C5.7706 55.9211 9.7147 59.3684 10.3933 65.2148L11.508 65.3239Z" fill="#F97316"/>
<path opacity="0.7" d="M11.508 65.3239C11.508 65.3239 12.0048 60.8769 10.6265 56.642C9.32998 52.6374 6.72481 50.5138 5.14657 49.8777C2.16275 48.6872 1.89617 51.9739 4.13177 54.2489C5.7706 55.9211 9.7147 59.3684 10.3933 65.2148L11.508 65.3239Z" fill="white"/>
<path d="M4.34082 50.7954C6.14323 52.0071 10.987 55.5059 11.1627 65.2904" stroke="#FAFAFA" stroke-width="1.08419" stroke-miterlimit="10" stroke-linecap="round"/>
<path d="M10.2394 68.362C9.31247 63.8787 7.41918 62.252 4.03549 60.5192C2.58751 59.7801 0.89112 58.9561 0.279209 58.014C-0.332702 57.0719 -0.0237171 55.8057 2.06042 55.833C5.8682 55.8844 10.2061 60.4738 10.7847 65.5024L10.2394 68.362Z" fill="#F97316"/>
<path opacity="0.8" d="M10.2394 68.362C9.31247 63.8787 7.41918 62.252 4.03549 60.5192C2.58751 59.7801 0.89112 58.9561 0.279209 58.014C-0.332702 57.0719 -0.0237171 55.8057 2.06042 55.833C5.8682 55.8844 10.2061 60.4738 10.7847 65.5024L10.2394 68.362Z" fill="white"/>
<path d="M1.74023 56.8086C4.615 57.1994 9.15587 60.5497 10.5978 66.5022" stroke="#FAFAFA" stroke-width="1.08419" stroke-miterlimit="10" stroke-linecap="round"/>
<path d="M116.442 63.2244C117.608 60.9827 118.514 54.694 117.015 51.7859C115.515 48.8778 113.286 49.111 112.94 50.0531C112.637 50.9225 113.386 52.4766 114.355 54.3274C115.324 56.1783 116.142 60.1436 115.224 61.9915L116.442 63.2244Z" fill="#F97316"/>
<path opacity="0.7" d="M116.442 63.2244C117.608 60.9827 118.514 54.694 117.015 51.7859C115.515 48.8778 113.286 49.111 112.94 50.0531C112.637 50.9225 113.386 52.4766 114.355 54.3274C115.324 56.1783 116.142 60.1436 115.224 61.9915L116.442 63.2244Z" fill="white"/>
<path d="M114.413 50.2051C115.367 50.9715 118.1 55.6578 116.188 62.0889" stroke="#FAFAFA" stroke-width="1.08419" stroke-miterlimit="10" stroke-linecap="round"/>
<path d="M116.073 65.5995C115.37 64.1939 113.831 61.8675 114.879 60.271C115.927 58.6746 117.024 60.0862 117.866 59.0442C118.708 58.0021 117.745 56.3178 118.472 55.4091C119.878 53.6218 120.895 55.6969 121.998 55.4242C122.795 55.2273 123.682 53.4613 125.976 53.6763C128.269 53.8914 128.154 55.709 127.133 56.5632C126.112 57.4175 124.9 58.2687 125.688 59.5501C126.385 60.686 126.745 62.7853 124.361 63.6002C122.083 64.3787 123.21 65.3663 122.846 66.481C122.483 67.5958 120.332 68.653 118.045 67.7927L116.073 65.5995Z" fill="#F97316"/>
<path opacity="0.8" d="M116.073 65.5995C115.37 64.1939 113.831 61.8675 114.879 60.271C115.927 58.6746 117.024 60.0862 117.866 59.0442C118.708 58.0021 117.745 56.3178 118.472 55.4091C119.878 53.6218 120.895 55.6969 121.998 55.4242C122.795 55.2273 123.682 53.4613 125.976 53.6763C128.269 53.8914 128.154 55.709 127.133 56.5632C126.112 57.4175 124.9 58.2687 125.688 59.5501C126.385 60.686 126.745 62.7853 124.361 63.6002C122.083 64.3787 123.21 65.3663 122.846 66.481C122.483 67.5958 120.332 68.653 118.045 67.7927L116.073 65.5995Z" fill="white"/>
<path d="M126.291 54.7061C123.807 55.3725 117.857 60.2072 117.354 66.2748" stroke="#FAFAFA" stroke-width="1.08419" stroke-miterlimit="10" stroke-linecap="round"/>
<path d="M124.5 61.0766C123.274 60.7979 120.157 60.7585 118.99 61.325" stroke="#FAFAFA" stroke-width="1.08419" stroke-miterlimit="10" stroke-linecap="round"/>
<path d="M119.683 55.9419C119.683 55.9419 120.591 57.7019 120.461 59.1832" stroke="#FAFAFA" stroke-width="1.08419" stroke-miterlimit="10" stroke-linecap="round"/>
<path d="M85.7984 38.7504C85.3923 37.3446 84.6666 36.0517 83.6779 34.973C82.5094 33.6987 81.1428 32.6216 79.6308 31.7831C77.8752 30.7886 76.0084 30.0047 74.0691 29.4476C71.9328 28.831 69.7413 28.4251 67.5259 28.2359C65.2375 28.0268 62.9348 28.0268 60.6464 28.2359C58.432 28.4251 56.2415 28.831 54.1062 29.4476C52.1658 30.0042 50.2979 30.7881 48.5415 31.7831C47.0294 32.6289 45.6638 33.7132 44.4974 34.9942C43.5096 36.0736 42.784 37.3662 42.3769 38.7716C42.015 40.0717 42.015 41.446 42.3769 42.746C42.7807 44.1519 43.5068 45.4443 44.4974 46.5205C45.6647 47.8027 47.0313 48.888 48.5445 49.7345C50.2988 50.7288 52.1647 51.5117 54.1032 52.0671C56.2394 52.6864 58.4308 53.0963 60.6464 53.2909C62.9349 53.4969 65.2373 53.4969 67.5259 53.2909C69.7426 53.0955 71.935 52.6846 74.0721 52.0641C76.0106 51.5087 77.8765 50.7257 79.6308 49.7315C81.1445 48.8857 82.5113 47.8003 83.6779 46.5175C84.6671 45.4403 85.393 44.1482 85.7984 42.743C86.1607 41.4368 86.1607 40.0566 85.7984 38.7504Z" fill="#37474F"/>
<path d="M42.1045 38.7568H86.0682V40.9985L42.1045 40.8743V38.7568Z" fill="#37474F"/>
<path d="M60.6476 26.228L64.0828 38.751L54.1074 27.4518C56.2422 26.8311 58.4328 26.4212 60.6476 26.228Z" fill="#455A64"/>
<path d="M67.5266 26.2282L64.0914 38.7512L60.6562 26.2222C62.9418 26.0157 65.2414 26.0178 67.5266 26.2282Z" fill="#455A64"/>
<path d="M74.0692 27.4516L64.0908 38.7507L67.526 26.2217C69.742 26.4169 71.9336 26.8288 74.0692 27.4516Z" fill="#455A64"/>
<path d="M83.6749 32.9951C84.663 34.0755 85.3886 35.3692 85.7954 36.7756L64.0938 38.7507L83.6749 32.9951Z" fill="#455A64"/>
<path d="M85.7984 36.7783C86.1573 38.0778 86.1573 39.4502 85.7984 40.7497L64.0938 38.7504L85.7984 36.7783Z" fill="#455A64"/>
<path d="M85.7984 40.7501C85.3925 42.156 84.6667 43.4488 83.6779 44.5276L64.0938 38.772L85.7984 40.7501Z" fill="#455A64"/>
<path d="M83.6771 44.5278C82.5103 45.8096 81.1436 46.8939 79.6301 47.7388L64.0869 38.751L83.6771 44.5278Z" fill="#455A64"/>
<path d="M64.0899 38.7659L74.0714 50.0742C71.9341 50.691 69.7416 51.0969 67.5251 51.2859L64.0869 38.7568L64.0899 38.7659Z" fill="#455A64"/>
<path d="M64.0877 38.7686L67.5259 51.2976C65.2376 51.5066 62.9349 51.5066 60.6465 51.2976L64.0877 38.7686Z" fill="#455A64"/>
<path d="M64.0822 38.7656L60.641 51.2947C58.4245 51.1057 56.232 50.6998 54.0947 50.0829L64.0822 38.7656Z" fill="#455A64"/>
<path d="M64.0826 38.7656L54.086 50.0739C52.1479 49.5162 50.2822 48.7323 48.5273 47.7383L64.0826 38.7656Z" fill="#455A64"/>
<path d="M64.0787 38.751L44.4945 44.5066C43.5044 43.4288 42.7784 42.1356 42.374 40.7291L64.0787 38.751Z" fill="#455A64"/>
<path d="M64.0786 38.7504L42.377 40.7497C42.015 39.4506 42.015 38.0774 42.377 36.7783L64.0786 38.7504Z" fill="#455A64"/>
<path d="M64.0786 38.7505L42.377 36.7664C42.7846 35.3603 43.5101 34.0668 44.4974 32.9858L64.0786 38.7505Z" fill="#455A64"/>
<path d="M48.5421 29.79L64.0792 38.7506L44.498 32.995C45.6649 31.7161 47.0305 30.6339 48.5421 29.79Z" fill="#455A64"/>
<path d="M79.6309 29.7905L64.0908 38.751L74.0692 27.4458C76.0093 28.0046 77.8763 28.7916 79.6309 29.7905Z" fill="#455A64"/>
<path d="M79.6308 29.79C81.143 30.6331 82.5087 31.7154 83.6749 32.995L64.0938 38.7506L79.6308 29.79Z" fill="#455A64"/>
<path d="M64.0816 38.751L48.5354 47.7267C47.0223 46.8811 45.6557 45.7968 44.4883 44.5157L64.0725 38.7601L64.0816 38.751Z" fill="#455A64"/>
<path d="M54.1058 27.4521L64.0811 38.7513L48.541 29.7786C50.2973 28.7855 52.1653 28.0046 54.1058 27.4521Z" fill="#455A64"/>
<path d="M64.0908 38.7656L79.6309 47.7383C77.8761 48.7323 76.0104 49.5162 74.0722 50.0739L64.0908 38.7656Z" fill="#455A64"/>
<path d="M50.793 26.113L63.1372 33.2378L62.5314 23.1655C57.9905 23.3594 54.1342 24.3288 50.793 26.113Z" fill="#4F46E5"/>
<path opacity="0.2" d="M50.793 26.113L63.1372 33.2378L62.5314 23.1655C57.9905 23.3594 54.1342 24.3288 50.793 26.113Z" fill="white"/>
<path d="M63.1372 33.2371V37.1267L50.793 29.9988V26.1123L63.1372 33.2371Z" fill="#4F46E5"/>
<path opacity="0.1" d="M63.1372 33.2371V37.1267L50.793 29.9988V26.1123L63.1372 33.2371Z" fill="black"/>
<path d="M79.1395 27.1128L64.9717 33.5045V37.3911L79.1395 30.9993V27.1128Z" fill="#4F46E5"/>
<path opacity="0.3" d="M79.1395 27.1128L64.9717 33.5045V37.3911L79.1395 30.9993V27.1128Z" fill="black"/>
<path d="M79.1396 27.1124C75.3258 24.5163 70.2397 23.1471 64.3447 23.1289L64.7234 29.4267L64.9718 33.5041L79.1396 27.1124Z" fill="#4F46E5"/>
<path opacity="0.1" d="M79.1396 27.1124C75.3258 24.5163 70.2397 23.1471 64.3447 23.1289L64.7234 29.4267L64.9718 33.5041L79.1396 27.1124Z" fill="black"/>
<path d="M64.3418 23.1289V27.0155L64.9719 37.3907V33.5041L64.3418 23.1289Z" fill="#263238"/>
<path d="M67.8526 40.9898L75.0955 47.9571C75.5015 47.8026 75.8771 47.6542 76.3072 47.4482C81.2964 45.2005 83.9046 41.8319 83.9016 38.4331V34.5859C83.3533 33.1228 81.8447 33.1258 80.2665 31.8384L65.4746 38.5028L65.3262 38.5694L67.8526 40.9898Z" fill="#4F46E5"/>
<path opacity="0.6" d="M67.8526 40.9898L75.0955 47.9571C75.5015 47.8026 75.8771 47.6542 76.3072 47.4482C81.2964 45.2005 83.9046 41.8319 83.9016 38.4331V34.5859C83.3533 33.1228 81.8447 33.1258 80.2665 31.8384L65.4746 38.5028L65.3262 38.5694L67.8526 40.9898Z" fill="white"/>
<path d="M67.8534 37.103L75.0963 44.0703C75.5022 43.9158 75.8779 43.7673 76.308 43.5583C84.6597 39.7869 86.3319 32.8802 80.2733 27.9395L65.4814 34.6038L65.333 34.6705L67.8534 37.103Z" fill="#4F46E5"/>
<path opacity="0.8" d="M67.8534 37.103L75.0963 44.0703C75.5022 43.9158 75.8779 43.7673 76.308 43.5583C84.6597 39.7869 86.3319 32.8802 80.2733 27.9395L65.4814 34.6038L65.333 34.6705L67.8534 37.103Z" fill="white"/>
<path d="M75.0837 47.9509V44.0613L65.3174 34.6797V38.5662L75.0837 47.9509Z" fill="#4F46E5"/>
<path opacity="0.6" d="M75.0837 47.9509V44.0613L65.3174 34.6797V38.5662L75.0837 47.9509Z" fill="white"/>
<path d="M49.508 30.7412C47.4269 32.0529 45.1156 32.8799 44.2734 34.4733V38.3628C44.2734 40.3894 45.2155 42.4433 47.1694 44.3214C49.8957 46.9356 54.2124 48.7835 59.341 49.5196C64.0872 50.2202 68.9294 49.8676 73.524 48.4866V44.6001L67.1474 42.3584L63.4032 38.7506L49.508 30.7412Z" fill="#4F46E5"/>
<path opacity="0.6" d="M49.508 30.7412C47.4269 32.0529 45.1156 32.8799 44.2734 34.4733V38.3628C44.2734 40.3894 45.2155 42.4433 47.1694 44.3214C49.8957 46.9356 54.2124 48.7835 59.341 49.5196C64.0872 50.2202 68.9294 49.8676 73.524 48.4866V44.6001L67.1474 42.3584L63.4032 38.7506L49.508 30.7412Z" fill="black"/>
<path d="M49.5081 26.855C43.5284 30.6173 42.5651 36.0094 47.1695 40.4321C49.8959 43.0494 54.2126 44.8942 59.3411 45.6334C64.0874 46.3324 68.9293 45.9798 73.5241 44.6004L67.1475 38.4722L63.4034 34.8765L49.5081 26.855Z" fill="#4F46E5"/>
<path opacity="0.3" d="M49.5081 26.855C43.5284 30.6173 42.5651 36.0094 47.1695 40.4321C49.8959 43.0494 54.2126 44.8942 59.3411 45.6334C64.0874 46.3324 68.9293 45.9798 73.5241 44.6004L67.1475 38.4722L63.4034 34.8765L49.5081 26.855Z" fill="black"/>
<path d="M118.894 69.2404C118.488 67.8346 117.762 66.5417 116.773 65.4629C115.608 64.1814 114.242 63.097 112.729 62.2519C110.974 61.2574 109.107 60.4735 107.168 59.9163C105.031 59.2997 102.84 58.8939 100.624 58.7046C98.3361 58.4956 96.0334 58.4956 93.745 58.7046C91.5307 58.8942 89.3402 59.3 87.2049 59.9163C85.2656 60.4735 83.3987 61.2574 81.6431 62.2519C80.1296 63.0967 78.7629 64.1811 77.596 65.4629C76.6082 66.5423 75.8826 67.835 75.4755 69.2404C75.1136 70.5405 75.1136 71.9147 75.4755 73.2148C75.8794 74.6207 76.6054 75.913 77.596 76.9893C78.7633 78.2714 80.1299 79.3567 81.6431 80.2033C83.398 81.1965 85.2637 81.9794 87.2018 82.5358C89.3395 83.151 91.5319 83.5568 93.7481 83.7475C96.0366 83.9535 98.339 83.9535 100.628 83.7475C102.844 83.5571 105.036 83.1512 107.174 82.5358C109.113 81.9808 110.979 81.1967 112.732 80.2003C114.247 79.3557 115.615 78.2713 116.783 76.9893C117.771 75.9115 118.497 74.6196 118.903 73.2148C119.261 71.9137 119.257 70.5398 118.894 69.2404Z" fill="#37474F"/>
<path d="M75.1992 69.2373H119.163V71.479L75.1992 71.3548V69.2373Z" fill="#37474F"/>
<path d="M93.7413 56.708L97.1796 69.237L87.2012 57.9318C89.3361 57.3114 91.5266 56.9015 93.7413 56.708Z" fill="#455A64"/>
<path d="M100.62 56.7083L97.1853 69.2373L93.7471 56.7083C96.0335 56.4996 98.3341 56.4996 100.62 56.7083Z" fill="#455A64"/>
<path d="M107.163 57.9318L97.1846 69.237L100.62 56.708C102.836 56.9012 105.027 57.3111 107.163 57.9318Z" fill="#455A64"/>
<path d="M116.77 63.4785C117.758 64.5584 118.484 65.8523 118.89 67.259L97.1885 69.2432L116.77 63.4785Z" fill="#455A64"/>
<path d="M118.893 67.2593C119.253 68.5585 119.253 69.9314 118.893 71.2306L97.1914 69.2434L118.893 67.2593Z" fill="#455A64"/>
<path d="M118.893 71.2301C118.486 72.6356 117.761 73.9282 116.773 75.0076L97.1885 69.252L118.893 71.2301Z" fill="#455A64"/>
<path d="M116.775 75.0083C115.606 76.2887 114.238 77.3728 112.725 78.2194L97.1816 69.2437L116.775 75.0083Z" fill="#455A64"/>
<path d="M97.1847 69.2464L107.166 80.5546C105.029 81.1701 102.836 81.5759 100.62 81.7663L97.1816 69.2373L97.1847 69.2464Z" fill="#455A64"/>
<path d="M97.1825 69.2495L100.621 81.7664C98.3322 81.9739 96.0297 81.9739 93.7412 81.7664L97.1825 69.2495Z" fill="#455A64"/>
<path d="M97.1798 69.2466L93.7415 81.7665C91.5253 81.5758 89.333 81.17 87.1953 80.5548L97.1798 69.2466Z" fill="#455A64"/>
<path d="M97.1803 69.2466L87.1837 80.5548C85.246 79.996 83.3803 79.2122 81.625 78.2193L97.1803 69.2466Z" fill="#455A64"/>
<path d="M97.1734 69.2437L77.5892 74.9992C76.5991 73.9215 75.8732 72.6283 75.4688 71.2218L97.1734 69.2437Z" fill="#455A64"/>
<path d="M97.1733 69.2434L75.4717 71.2306C75.1097 69.9316 75.1097 68.5583 75.4717 67.2593L97.1733 69.2434Z" fill="#455A64"/>
<path d="M97.1733 69.2403L75.4717 67.2561C75.8786 65.8497 76.6042 64.5561 77.5922 63.4756L97.1733 69.2403Z" fill="#455A64"/>
<path d="M81.6399 60.2588L97.1739 69.2284L77.5928 63.4728C78.7594 62.19 80.1261 61.1046 81.6399 60.2588Z" fill="#455A64"/>
<path d="M112.725 60.2584L97.1846 69.2281L107.163 57.9229C109.103 58.4787 110.97 59.2627 112.725 60.2584Z" fill="#455A64"/>
<path d="M112.725 60.2588C114.238 61.1027 115.604 62.1861 116.77 63.4668L97.1914 69.2224L112.725 60.2588Z" fill="#455A64"/>
<path d="M97.1801 69.2402L81.6369 78.219C80.1245 77.3724 78.7581 76.2883 77.5898 75.008L97.174 69.2524L97.1801 69.2402Z" fill="#455A64"/>
<path d="M87.2004 57.9321L97.1788 69.2373L81.6387 60.2586C83.3941 59.266 85.2611 58.4851 87.2004 57.9321Z" fill="#455A64"/>
<path d="M97.1846 69.2466L112.725 78.2193C110.97 79.2132 109.104 79.9971 107.166 80.5548L97.1846 69.2466Z" fill="#455A64"/>
<path d="M77.8166 64.3203V70.6151C77.6571 70.0399 77.5755 69.4459 77.5742 68.8491V64.3203H77.8166Z" fill="#4F46E5"/>
<path opacity="0.3" d="M77.8166 64.3203V70.6151C77.6571 70.0399 77.5755 69.4459 77.5742 68.8491V64.3203H77.8166Z" fill="black"/>
<path d="M97.1731 64.3268L77.8161 66.0959C77.4949 64.9373 77.4949 63.7132 77.8161 62.5547L97.1731 64.3268Z" fill="#4F46E5"/>
<path d="M97.1724 64.3209L77.8154 62.5488C78.1792 61.2945 78.8271 60.1408 79.7087 59.1772L97.1724 64.3209Z" fill="#4F46E5"/>
<path d="M83.3178 56.3203L97.1737 64.3206L79.71 59.1708C80.7517 58.0331 81.9699 57.0706 83.3178 56.3203Z" fill="#4F46E5"/>
<path d="M88.2793 54.2363L97.1793 64.3177L83.3174 56.3205C84.8832 55.4322 86.5488 54.7326 88.2793 54.2363Z" fill="#4F46E5"/>
<path d="M94.1146 53.1455L97.1802 64.3174L88.2803 54.236C90.1846 53.6821 92.1388 53.3168 94.1146 53.1455Z" fill="#4F46E5"/>
<path d="M100.266 53.1457L97.1857 64.3176L94.1201 53.1457C96.1646 52.9573 98.222 52.9573 100.266 53.1457Z" fill="#4F46E5"/>
<path d="M106.085 54.236L97.1846 64.3174L100.265 53.1455C102.236 53.3178 104.185 53.6831 106.085 54.236Z" fill="#4F46E5"/>
<g opacity="0.2">
<path d="M97.174 64.3268L77.817 66.0959C77.4959 64.9373 77.4959 63.7132 77.817 62.5547L97.174 64.3268Z" fill="white"/>
<path d="M97.1734 64.3204L77.8164 62.5483C78.1802 61.294 78.828 60.1403 79.7097 59.1768L97.1734 64.3204Z" fill="white"/>
<path d="M83.3188 56.3203L97.1746 64.3206L79.7109 59.1708C80.7527 58.0331 81.9709 57.0706 83.3188 56.3203Z" fill="white"/>
<path d="M88.2803 54.2363L97.1803 64.3177L83.3184 56.3205C84.8842 55.4322 86.5498 54.7326 88.2803 54.2363Z" fill="white"/>
<path d="M94.1146 53.1455L97.1802 64.3174L88.2803 54.236C90.1846 53.6821 92.1388 53.3168 94.1146 53.1455Z" fill="white"/>
<path d="M100.267 53.1457L97.1867 64.3176L94.1211 53.1457C96.1656 52.9573 98.223 52.9573 100.267 53.1457Z" fill="white"/>
<path d="M106.086 54.236L97.1855 64.3174L100.266 53.1455C102.237 53.3178 104.186 53.6831 106.086 54.236Z" fill="white"/>
</g>
<path d="M113.595 67.3439L110.69 70.0702L108.482 72.1574L106.376 74.1385L106.095 74.4021V78.9248C107.825 78.4289 109.49 77.7304 111.057 76.8437C112.406 76.087 113.625 75.1184 114.668 73.975C115.549 73.0145 116.195 71.8624 116.555 70.6094C116.715 70.0344 116.798 69.4404 116.8 68.8434V64.3237L113.595 67.3439Z" fill="#4F46E5"/>
<path opacity="0.3" d="M113.595 67.3439L110.69 70.0702L108.482 72.1574L106.376 74.1385L106.095 74.4021V78.9248C107.825 78.4289 109.49 77.7304 111.057 76.8437C112.406 76.087 113.625 75.1184 114.668 73.975C115.549 73.0145 116.195 71.8624 116.555 70.6094C116.715 70.0344 116.798 69.4404 116.8 68.8434V64.3237L113.595 67.3439Z" fill="black"/>
<path d="M114.655 59.1826C115.536 60.147 116.183 61.3004 116.548 62.5542L97.1885 64.3263L114.655 59.1826Z" fill="#4F46E5"/>
<path d="M116.791 64.3294C116.788 64.9274 116.706 65.5223 116.545 66.0984L110.681 65.5592L97.1885 64.3233L113.586 62.8087L116.545 62.5391C116.708 63.122 116.79 63.7243 116.791 64.3294Z" fill="#4F46E5"/>
<path d="M116.545 66.0992C116.185 67.3518 115.539 68.5038 114.658 69.4647L108.472 67.6471L97.1885 64.3149L110.681 65.5509L116.545 66.0992Z" fill="#4F46E5"/>
<path d="M114.658 69.4642C113.616 70.6076 112.397 71.5762 111.047 72.3329L106.367 69.6247L97.1914 64.3296L108.475 67.6618L114.658 69.4642Z" fill="#4F46E5"/>
<path d="M111.046 56.3207L97.1846 64.3241L106.085 54.2427C107.814 54.7382 109.48 55.4357 111.046 56.3207Z" fill="#4F46E5"/>
<path d="M111.047 56.3203C112.396 57.075 113.614 58.0416 114.655 59.183L97.1885 64.3327L111.047 56.3203Z" fill="#4F46E5"/>
<path d="M111.047 72.3329C109.481 73.2186 107.815 73.9162 106.085 74.411L97.1914 64.3296L106.367 69.6247L111.047 72.3329Z" fill="#4F46E5"/>
<g opacity="0.2">
<path d="M114.655 59.1831C115.536 60.1475 116.183 61.3009 116.548 62.5547L97.1885 64.3268L114.655 59.1831Z" fill="white"/>
<path d="M116.791 64.3298C116.788 64.9279 116.706 65.5228 116.545 66.0989L110.681 65.5597L97.1885 64.3238L113.586 62.8092L116.545 62.5396C116.708 63.1225 116.79 63.7247 116.791 64.3298Z" fill="white"/>
<path d="M116.545 66.0987C116.185 67.3513 115.539 68.5033 114.658 69.4642L108.472 67.6466L97.1885 64.3145L110.681 65.5504L116.545 66.0987Z" fill="white"/>
<path d="M114.658 69.4642C113.616 70.6076 112.397 71.5762 111.047 72.3329L106.367 69.6247L97.1914 64.3296L108.475 67.6618L114.658 69.4642Z" fill="white"/>
<path d="M111.047 56.3203L97.1855 64.3236L106.086 54.2422C107.815 54.7377 109.481 55.4352 111.047 56.3203Z" fill="white"/>
<path d="M111.047 56.3208C112.396 57.0755 113.614 58.0421 114.655 59.1835L97.1885 64.3332L111.047 56.3208Z" fill="white"/>
<path d="M111.047 72.3329C109.481 73.2186 107.815 73.9162 106.085 74.411L97.1914 64.3296L106.367 69.6247L111.047 72.3329Z" fill="white"/>
</g>
<path d="M106.088 74.4144V78.9371L97.1787 68.8436V64.3179L106.088 74.4144Z" fill="#263238"/>
<path d="M97.1785 68.8436L77.8154 70.6218V66.096L97.1785 64.3179V68.8436Z" fill="#4F46E5"/>
<path opacity="0.1" d="M97.1785 68.8436L77.8154 70.6218V66.096L97.1785 64.3179V68.8436Z" fill="black"/>
<path d="M52.7064 69.2404C52.3004 67.8346 51.5746 66.5417 50.586 65.4629C49.4195 64.1819 48.0539 63.0976 46.5419 62.2519C44.7855 61.2569 42.9176 60.4729 40.9771 59.9163C38.8419 59.2997 36.6514 58.8939 34.437 58.7046C32.1486 58.4956 29.8459 58.4956 27.5575 58.7046C25.3421 58.8942 23.1506 59.3 21.0143 59.9163C19.0729 60.473 17.2041 61.2569 15.4465 62.2519C13.9341 63.097 12.5684 64.1814 11.4025 65.4629C10.4138 66.5417 9.68804 67.8346 9.28197 69.2404C8.92294 70.5409 8.92294 71.9143 9.28197 73.2148C9.68734 74.62 10.4132 75.912 11.4025 76.9893C12.5682 78.2719 13.9339 79.3573 15.4465 80.2033C17.2008 81.1975 19.0667 81.9805 21.0052 82.5358C23.1428 83.1512 25.3352 83.5571 27.5515 83.7475C29.84 83.9535 32.1424 83.9535 34.4309 83.7475C36.6471 83.5571 38.8396 83.1512 40.9771 82.5358C42.9162 81.9808 44.7822 81.1967 46.5358 80.2003C48.0506 79.356 49.4185 78.2716 50.586 76.9893C51.5752 75.912 52.3011 74.62 52.7064 73.2148C53.0655 71.9143 53.0655 70.5409 52.7064 69.2404Z" fill="#37474F"/>
<path d="M9.00977 69.2373H52.9734V71.479L9.00977 71.3548V69.2373Z" fill="#37474F"/>
<path d="M27.5637 56.708L30.9989 69.237L21.0205 57.9318C23.1564 57.3114 25.3479 56.9015 27.5637 56.708Z" fill="#455A64"/>
<path d="M34.4318 56.708L30.9966 69.237L27.5645 56.708C29.8488 56.4997 32.1474 56.4997 34.4318 56.708Z" fill="#455A64"/>
<path d="M40.9715 57.9318L30.9961 69.237L34.4313 56.708C36.6461 56.9012 38.8366 57.3111 40.9715 57.9318Z" fill="#455A64"/>
<path d="M50.5861 63.4785C51.5749 64.5584 52.3006 65.8523 52.7066 67.259L31.002 69.2432L50.5861 63.4785Z" fill="#455A64"/>
<path d="M52.7066 67.2593C53.0655 68.5587 53.0655 69.9312 52.7066 71.2306L31.002 69.2434L52.7066 67.2593Z" fill="#455A64"/>
<path d="M52.7066 71.2301C52.3007 72.6359 51.5749 73.9288 50.5861 75.0076L31.002 69.252L52.7066 71.2301Z" fill="#455A64"/>
<path d="M50.5864 75.0083C49.4182 76.2887 48.0517 77.3728 46.5393 78.2194L30.9932 69.2437L50.5864 75.0083Z" fill="#455A64"/>
<path d="M30.9953 69.2464L40.9767 80.5546C38.8392 81.1701 36.6467 81.5759 34.4305 81.7663L30.9893 69.2373L30.9953 69.2464Z" fill="#455A64"/>
<path d="M30.9905 69.2495L34.4318 81.7664C32.1473 81.9732 29.8489 81.9732 27.5645 81.7664L30.9905 69.2495Z" fill="#455A64"/>
<path d="M30.9859 69.2466L27.5628 81.7665C25.3466 81.5761 23.1542 81.1702 21.0166 80.5548L30.9859 69.2466Z" fill="#455A64"/>
<path d="M30.9864 69.2466L20.9898 80.5548C19.0569 79.996 17.1963 79.2121 15.4463 78.2193L30.9864 69.2466Z" fill="#455A64"/>
<path d="M30.984 69.2437L11.3998 74.9992C10.411 73.9205 9.68526 72.6276 9.2793 71.2218L30.984 69.2437Z" fill="#455A64"/>
<path d="M30.9836 69.2434L9.27896 71.2306C8.92003 69.9312 8.92003 68.5587 9.27896 67.2593L30.9836 69.2434Z" fill="#455A64"/>
<path d="M30.984 69.2403L9.2793 67.2561C9.68534 65.8494 10.4111 64.5555 11.3998 63.4756L30.984 69.2403Z" fill="#455A64"/>
<path d="M15.4474 60.2588L30.9845 69.2284L11.4033 63.4728C12.5688 62.19 13.9345 61.1046 15.4474 60.2588Z" fill="#455A64"/>
<path d="M46.5362 60.2584L30.9961 69.2281L40.9715 57.9229C42.9123 58.4782 44.7804 59.2622 46.5362 60.2584Z" fill="#455A64"/>
<path d="M46.5359 60.2588C48.0508 61.1067 49.4185 62.1941 50.586 63.4789L31.0049 69.2345L46.5359 60.2588Z" fill="#455A64"/>
<path d="M30.9876 69.2402L15.4475 78.219C13.9346 77.3732 12.568 76.289 11.4004 75.008L30.9846 69.2524L30.9876 69.2402Z" fill="#455A64"/>
<path d="M21.008 57.9321L30.9864 69.2373L15.4463 60.2586C17.2017 59.266 19.0687 58.4851 21.008 57.9321Z" fill="#455A64"/>
<path d="M30.9961 69.2466L46.5362 78.2193C44.7814 79.2132 42.9156 79.9971 40.9775 80.5548L30.9961 69.2466Z" fill="#455A64"/>
<path d="M36.8367 61.4699L39.3419 58.6285C39.3419 55.2963 35.2705 55.2145 33.4712 55.054C31.6718 54.8934 28.585 53.8604 28.585 57.6531L29.4453 60.7914C31.9294 60.6318 34.4232 60.8607 36.8367 61.4699Z" fill="#4F46E5"/>
<path opacity="0.6" d="M36.8367 61.4699L39.3419 58.6285C39.3419 55.2963 35.2705 55.2145 33.4712 55.054C31.6718 54.8934 28.585 53.8604 28.585 57.6531L29.4453 60.7914C31.9294 60.6318 34.4232 60.8607 36.8367 61.4699Z" fill="white"/>
<path d="M36.8367 57.0076L39.3419 54.1692C35.834 53.2563 32.1998 52.9268 28.585 53.1938L29.4453 56.32C31.9298 56.1634 34.4236 56.3954 36.8367 57.0076Z" fill="#4F46E5"/>
<path opacity="0.8" d="M36.8367 57.0076L39.3419 54.1692C35.834 53.2563 32.1998 52.9268 28.585 53.1938L29.4453 56.32C31.9298 56.1634 34.4236 56.3954 36.8367 57.0076Z" fill="white"/>
<path d="M29.4453 56.3322V60.7973L28.585 57.659V53.1938L29.4453 56.3322Z" fill="#4F46E5"/>
<path d="M39.3421 54.1699L36.8369 57.0083V61.4765L39.3421 58.6351V54.1699Z" fill="#4F46E5"/>
<g opacity="0.6">
<path d="M29.4453 56.3322V60.7973L28.585 57.659V53.1938L29.4453 56.3322Z" fill="white"/>
<path d="M39.3421 54.1689L36.8369 57.0074V61.4755L39.3421 58.6341V54.1689Z" fill="white"/>
</g>
<path d="M38.0596 57.3688V61.8339C39.1048 62.1714 40.1136 62.6128 41.0707 63.1517C41.9058 63.6259 42.6731 64.2108 43.3517 64.8905L48.2652 63.4455C47.2882 62.4483 46.1756 61.5937 44.9602 60.907C43.6183 60.1375 42.1824 57.0174 38.0596 57.3688Z" fill="#4F46E5"/>
<path opacity="0.6" d="M38.0596 57.3688V61.8339C39.1048 62.1714 40.1136 62.6128 41.0707 63.1517C41.9058 63.6259 42.6731 64.2108 43.3517 64.8905L48.2652 63.4455C47.2882 62.4483 46.1756 61.5937 44.9602 60.907C43.6183 60.1375 42.1824 57.0174 38.0596 57.3688Z" fill="black"/>
<path d="M40.5648 54.5337L38.0596 57.3691C39.1058 57.7039 40.1148 58.1455 41.0707 58.6868C41.9058 59.161 42.6731 59.7459 43.3517 60.4256L48.2652 58.9806C47.2898 57.9816 46.177 57.1269 44.9602 56.4421C43.5675 55.6506 42.094 55.0108 40.5648 54.5337Z" fill="#4F46E5"/>
<path opacity="0.3" d="M40.5648 54.5337L38.0596 57.3691C39.1058 57.7039 40.1148 58.1455 41.0707 58.6868C41.9058 59.161 42.6731 59.7459 43.3517 60.4256L48.2652 58.9806C47.2898 57.9816 46.177 57.1269 44.9602 56.4421C43.5675 55.6506 42.094 55.0108 40.5648 54.5337Z" fill="black"/>
<path d="M43.3525 60.4245L48.266 58.9766V63.4447L43.3525 64.8897V60.4245Z" fill="#4F46E5"/>
<path opacity="0.6" d="M43.3525 60.4245L48.266 58.9766V63.4447L43.3525 64.8897V60.4245Z" fill="black"/>
<path d="M50.7317 64.3871H49.0717C49.0111 64.3084 48.9596 64.2296 48.899 64.1508L43.9795 61.1216V65.5897C45.0276 66.9378 45.4244 68.41 45.1518 69.8549L50.5863 70.3608C50.6783 69.9103 50.724 69.4515 50.7226 68.9916L50.7317 64.3871Z" fill="#4F46E5"/>
<path opacity="0.6" d="M50.7317 64.3871H49.0717C49.0111 64.3084 48.9596 64.2296 48.899 64.1508L43.9795 61.1216V65.5897C45.0276 66.9378 45.4244 68.41 45.1518 69.8549L50.5863 70.3608C50.6783 69.9103 50.724 69.4515 50.7226 68.9916L50.7317 64.3871Z" fill="black"/>
<path d="M45.1489 65.4083L50.5864 65.896C51.0287 63.7967 50.4683 61.6369 48.8961 59.686L43.9766 61.131C45.0247 62.479 45.4367 63.9543 45.1489 65.4083Z" fill="#4F46E5"/>
<path opacity="0.3" d="M45.1489 65.4083L50.5864 65.896C51.0287 63.7967 50.4683 61.6369 48.8961 59.686L43.9766 61.131C45.0247 62.479 45.4367 63.9543 45.1489 65.4083Z" fill="black"/>
<path d="M50.586 65.8962V70.3644L45.1484 69.8645V65.3994L50.586 65.8962Z" fill="#4F46E5"/>
<path opacity="0.6" d="M50.586 65.8962V70.3644L45.1484 69.8645V65.3994L50.586 65.8962Z" fill="black"/>
<path d="M28.0883 60.9246V56.4564C25.0591 55.0599 19.4186 56.4776 17.5283 60.6368L21.4179 62.8845C23.5071 61.8396 25.766 61.1759 28.0883 60.9246Z" fill="#4F46E5"/>
<path opacity="0.3" d="M28.0883 60.9246V56.4564C25.0591 55.0599 19.4186 56.4776 17.5283 60.6368L21.4179 62.8845C23.5071 61.8396 25.766 61.1759 28.0883 60.9246Z" fill="black"/>
<path d="M28.0882 56.457L27.2249 53.3096C23.5625 53.7215 20.2091 54.7303 17.5312 56.1722L21.4208 58.4169C23.5091 57.3724 25.7669 56.7087 28.0882 56.457Z" fill="#4F46E5"/>
<path opacity="0.1" d="M28.0882 56.457L27.2249 53.3096C23.5625 53.7215 20.2091 54.7303 17.5312 56.1722L21.4208 58.4169C23.5091 57.3724 25.7669 56.7087 28.0882 56.457Z" fill="black"/>
<path d="M21.4179 58.4166V62.8847L17.5283 60.637V56.1719L21.4179 58.4166Z" fill="#263238"/>
<path d="M17.3499 58.98L16.5502 61.1944C13.9359 62.812 12.285 64.7598 11.6064 66.7985L17.0591 67.2953C17.5589 65.8988 18.6979 64.569 20.461 63.4481V58.98H17.3499Z" fill="#4F46E5"/>
<path opacity="0.3" d="M17.3499 58.98L16.5502 61.1944C13.9359 62.812 12.285 64.7598 11.6064 66.7985L17.0591 67.2953C17.5589 65.8988 18.6979 64.569 20.461 63.4481V58.98H17.3499Z" fill="black"/>
<path d="M20.4489 58.9807L16.5502 56.73C13.9359 58.3446 12.285 60.2954 11.6064 62.3311L17.0591 62.8309C17.5468 61.4344 18.6858 60.1015 20.4489 58.9807Z" fill="#4F46E5"/>
<path opacity="0.1" d="M20.4489 58.9807L16.5502 56.73C13.9359 58.3446 12.285 60.2954 11.6064 62.3311L17.0591 62.8309C17.5468 61.4344 18.6858 60.1015 20.4489 58.9807Z" fill="black"/>
<path d="M11.6064 62.3311V66.7992L17.047 67.296V62.8309L11.6064 62.3311Z" fill="#263238"/>
<path d="M16.8319 68.0804V63.6122L15.2142 63.4668L11.252 64.4998V68.9619C11.2773 70.7348 11.9201 72.4434 13.0695 73.7936L17.989 72.3486C16.9621 71.0006 16.5622 69.5253 16.8319 68.0804Z" fill="#4F46E5"/>
<path opacity="0.3" d="M16.8319 68.0804V63.6122L15.2142 63.4668L11.252 64.4998V68.9619C11.2773 70.7348 11.9201 72.4434 13.0695 73.7936L17.989 72.3486C16.9621 71.0006 16.5622 69.5253 16.8319 68.0804Z" fill="black"/>
<path d="M13.0869 69.3284L18.0064 67.8804V72.3485L13.0869 73.7935V69.3284Z" fill="#263238"/>
<path d="M16.8342 63.6115L11.3816 63.1147C10.9393 65.2171 11.4997 67.3739 13.0719 69.3278L17.9914 67.8798C16.9615 66.5318 16.5616 65.0565 16.8342 63.6115Z" fill="#4F46E5"/>
<path opacity="0.1" d="M16.8342 63.6115L11.3816 63.1147C10.9393 65.2171 11.4997 67.3739 13.0719 69.3278L17.9914 67.8798C16.9615 66.5318 16.5616 65.0565 16.8342 63.6115Z" fill="black"/>
<path d="M22.6537 73.7877C20.3484 72.4579 19.1973 70.716 19.1973 68.9742V64.5H42.7861V68.9651C42.7861 70.71 41.635 72.4518 39.3297 73.7817C34.7253 76.4474 27.2612 76.4474 22.6537 73.7877Z" fill="#37474F"/>
<path d="M30.9941 71.3154C37.5071 71.3154 42.787 68.2665 42.787 64.5056C42.787 60.7446 37.5071 57.6958 30.9941 57.6958C24.481 57.6958 19.2012 60.7446 19.2012 64.5056C19.2012 68.2665 24.481 71.3154 30.9941 71.3154Z" fill="#455A64"/>
<path d="M21.4183 75.0653V74.4958L13.7148 70.0337V74.4958C14.6921 75.4939 15.8058 76.3486 17.0228 77.0343C18.4155 77.8258 19.8891 78.4656 21.4183 78.9428L23.9204 76.1074C23.0599 75.8273 22.2232 75.4788 21.4183 75.0653Z" fill="#4F46E5"/>
<path opacity="0.3" d="M21.4183 75.0653V74.4958L13.7148 70.0337V74.4958C14.6921 75.4939 15.8058 76.3486 17.0228 77.0343C18.4155 77.8258 19.8891 78.4656 21.4183 78.9428L23.9204 76.1074C23.0599 75.8273 22.2232 75.4788 21.4183 75.0653Z" fill="black"/>
<path d="M20.8997 70.3246C20.0635 69.8517 19.2952 69.2678 18.6156 68.5889L13.7021 70.0338C14.6802 71.031 15.7938 71.8856 17.0101 72.5723C18.4034 73.3626 19.8769 74.0023 21.4056 74.4808L23.9077 71.6424C22.8625 71.3075 21.8545 70.866 20.8997 70.3246Z" fill="#4F46E5"/>
<path opacity="0.1" d="M20.8997 70.3246C20.0635 69.8517 19.2952 69.2678 18.6156 68.5889L13.7021 70.0338C14.6802 71.031 15.7938 71.8856 17.0101 72.5723C18.4034 73.3626 19.8769 74.0023 21.4056 74.4808L23.9077 71.6424C22.8625 71.3075 21.8545 70.866 20.8997 70.3246Z" fill="black"/>
<path d="M21.418 78.9461V74.481L23.9201 71.6426V76.1107L21.418 78.9461Z" fill="#263238"/>
<path d="M22.6416 74.8413V79.3095C26.1495 80.2224 29.7836 80.5519 33.3985 80.2849V75.8198L22.6416 74.8413Z" fill="#4F46E5"/>
<path opacity="0.1" d="M22.6416 74.8413V79.3095C26.1495 80.2224 29.7836 80.5519 33.3985 80.2849V75.8198L22.6416 74.8413Z" fill="black"/>
<path d="M25.14 72.0029L22.6348 74.8414C26.1427 75.7538 29.7767 76.0844 33.3917 75.8198L32.5374 72.6785C30.0515 72.8397 27.5556 72.6118 25.14 72.0029Z" fill="#4F46E5"/>
<path opacity="0.2" d="M25.14 72.0029L22.6348 74.8414C26.1427 75.7538 29.7767 76.0844 33.3917 75.8198L32.5374 72.6785C30.0515 72.8397 27.5556 72.6118 25.14 72.0029Z" fill="white"/>
<path d="M41.5352 74.4962L45.4368 76.7499C48.0511 75.1353 49.7021 73.1845 50.3806 71.1458V66.6807L44.9279 70.649C44.4372 72.0455 43.2982 73.3784 41.5352 74.4962Z" fill="#4F46E5"/>
<path opacity="0.1" d="M41.5352 74.4962L45.4368 76.7499C48.0511 75.1353 49.7021 73.1845 50.3806 71.1458V66.6807L44.9279 70.649C44.4372 72.0455 43.2982 73.3784 41.5352 74.4962Z" fill="black"/>
<path d="M41.5352 70.0308L45.4368 72.2845C48.0511 70.6669 49.7021 68.7191 50.3806 66.6804L44.9279 66.1836C44.4372 67.5801 43.2982 68.9099 41.5352 70.0308Z" fill="#4F46E5"/>
<path opacity="0.2" d="M41.5352 70.0308L45.4368 72.2845C48.0511 70.6669 49.7021 68.7191 50.3806 66.6804L44.9279 66.1836C44.4372 67.5801 43.2982 68.9099 41.5352 70.0308Z" fill="white"/>
<path d="M45.4338 72.2845V76.7497L41.5352 74.4989V70.0308L45.4338 72.2845Z" fill="#4F46E5"/>
<path opacity="0.3" d="M45.4338 72.2845V76.7497L41.5352 74.4989V70.0308L45.4338 72.2845Z" fill="black"/>
<path d="M34.7588 75.7074V76.9191C34.4711 76.9645 34.1863 77.0039 33.8955 77.0372L34.7588 80.1816C38.2879 79.7878 41.6625 78.8336 44.4525 77.325V72.8447L34.7588 75.7074Z" fill="#4F46E5"/>
<path opacity="0.1" d="M34.7588 75.7074V76.9191C34.4711 76.9645 34.1863 77.0039 33.8955 77.0372L34.7588 80.1816C38.2879 79.7878 41.6625 78.8336 44.4525 77.325V72.8447L34.7588 75.7074Z" fill="black"/>
<path d="M33.8955 72.557L34.7588 75.7074C38.2879 75.3136 41.6625 74.3624 44.4525 72.8539L40.5538 70.6001C38.4699 71.6469 36.2145 72.3098 33.8955 72.557Z" fill="#4F46E5"/>
<path opacity="0.2" d="M33.8955 72.557L34.7588 75.7074C38.2879 75.3136 41.6625 74.3624 44.4525 72.8539L40.5538 70.6001C38.4699 71.6469 36.2145 72.3098 33.8955 72.557Z" fill="white"/>
<path d="M34.7588 75.6985V80.1636L33.8955 77.0253V72.5571L34.7588 75.6985Z" fill="#4F46E5"/>
<path opacity="0.3" d="M34.7588 75.6985V80.1636L33.8955 77.0253V72.5571L34.7588 75.6985Z" fill="black"/>
<path d="M110.357 45.8208C110.346 45.6238 110.289 45.4321 110.191 45.2611C110.092 45.0901 109.955 44.9446 109.79 44.8363L101.587 40.1016C101.284 39.9198 101.021 40.0682 101.021 40.4317V48.3593C101.031 48.5564 101.087 48.7483 101.186 48.9194C101.284 49.0905 101.422 49.2359 101.587 49.3438L105.022 51.325L106.107 55.7144C106.103 55.7947 106.131 55.8732 106.186 55.9326C106.24 55.9919 106.316 56.0273 106.396 56.0309C106.476 56.0345 106.555 56.0061 106.614 55.9518C106.673 55.8976 106.709 55.822 106.712 55.7416L107.706 52.8729L109.805 54.0846C110.108 54.2664 110.372 54.118 110.372 53.7575L110.357 45.8208Z" fill="#F97316"/>
<path opacity="0.5" d="M110.357 45.8208C110.346 45.6238 110.289 45.4321 110.191 45.2611C110.092 45.0901 109.955 44.9446 109.79 44.8363L101.587 40.1016C101.284 39.9198 101.021 40.0682 101.021 40.4317V48.3593C101.031 48.5564 101.087 48.7483 101.186 48.9194C101.284 49.0905 101.422 49.2359 101.587 49.3438L105.022 51.325L106.107 55.7144C106.103 55.7947 106.131 55.8732 106.186 55.9326C106.24 55.9919 106.316 56.0273 106.396 56.0309C106.476 56.0345 106.555 56.0061 106.614 55.9518C106.673 55.8976 106.709 55.822 106.712 55.7416L107.706 52.8729L109.805 54.0846C110.108 54.2664 110.372 54.118 110.372 53.7575L110.357 45.8208Z" fill="white"/>
<path d="M104.127 43.7119C104.295 43.8071 104.449 43.9232 104.588 44.0572C104.711 44.1776 104.822 44.3106 104.918 44.4541C105.001 44.581 105.069 44.7173 105.121 44.86C105.164 44.9814 105.191 45.1075 105.203 45.2356C105.203 45.3659 105.218 45.5022 105.218 45.6446C105.218 45.787 105.218 45.9172 105.203 46.0384C105.195 46.136 105.167 46.231 105.121 46.3171C105.076 46.3966 105.004 46.4577 104.918 46.4897C104.81 46.5194 104.696 46.5194 104.588 46.4897C104.425 46.452 104.269 46.3875 104.127 46.2989C103.959 46.2047 103.803 46.0897 103.664 45.9566C103.54 45.8397 103.43 45.7086 103.337 45.5658C103.178 45.3316 103.079 45.0623 103.049 44.7812C103.049 44.651 103.049 44.5147 103.049 44.3723C103.049 44.2299 103.049 44.0997 103.049 43.9815C103.058 43.8829 103.087 43.7872 103.134 43.6998C103.177 43.619 103.25 43.5574 103.337 43.5271C103.442 43.4937 103.555 43.4885 103.664 43.512C103.829 43.5508 103.986 43.6185 104.127 43.7119ZM107.023 45.5567C107.054 45.534 107.091 45.5203 107.129 45.5173C107.184 45.521 107.238 45.5387 107.284 45.5688L107.717 45.8203C107.767 45.8485 107.81 45.8866 107.844 45.9324C107.872 45.9711 107.888 46.0176 107.89 46.0656C107.891 46.0757 107.891 46.0859 107.89 46.0959C107.884 46.1072 107.877 46.1174 107.868 46.1262L104.3 48.7617C104.269 48.7847 104.232 48.7994 104.194 48.8041C104.138 48.8005 104.085 48.7816 104.039 48.7496L103.606 48.5012C103.556 48.4726 103.512 48.4333 103.479 48.3861C103.45 48.3487 103.433 48.3032 103.431 48.2558C103.428 48.2448 103.428 48.2335 103.431 48.2225C103.435 48.2107 103.442 48.2002 103.452 48.1922L107.023 45.5567ZM104.509 45.5567C104.513 45.5124 104.513 45.4678 104.509 45.4234V45.0327C104.513 44.9853 104.513 44.9377 104.509 44.8903C104.499 44.7839 104.467 44.6807 104.415 44.5874C104.345 44.4739 104.246 44.3817 104.127 44.3208C103.988 44.239 103.891 44.2178 103.824 44.2541C103.796 44.2772 103.772 44.3062 103.756 44.3392C103.74 44.3721 103.731 44.4083 103.73 44.445C103.73 44.4723 103.73 44.5147 103.73 44.5783C103.73 44.6419 103.73 44.7025 103.73 44.7691C103.73 44.8358 103.73 44.9024 103.73 44.966C103.73 45.0296 103.73 45.0781 103.73 45.1114C103.742 45.2175 103.774 45.3204 103.824 45.4144C103.899 45.5296 104.003 45.6219 104.127 45.6809C104.267 45.7627 104.364 45.7839 104.415 45.7476C104.442 45.7257 104.465 45.6981 104.48 45.6667C104.496 45.6353 104.505 45.6009 104.506 45.5658L104.509 45.5567ZM107.253 48.0438C107.422 48.139 107.578 48.255 107.717 48.3891C107.84 48.5094 107.949 48.6424 108.044 48.7859C108.13 48.9115 108.198 49.0481 108.247 49.1918C108.289 49.3135 108.318 49.4395 108.332 49.5675C108.332 49.6977 108.332 49.834 108.332 49.9764C108.332 50.1188 108.332 50.2491 108.332 50.3702C108.323 50.4679 108.294 50.5626 108.247 50.6489C108.226 50.6897 108.198 50.726 108.163 50.7556C108.128 50.7853 108.088 50.8077 108.044 50.8216C107.937 50.8529 107.824 50.8529 107.717 50.8216C107.553 50.7838 107.396 50.7194 107.253 50.6307C107.086 50.5365 106.931 50.4215 106.793 50.2884C106.669 50.1708 106.558 50.0398 106.463 49.8977C106.379 49.771 106.311 49.6347 106.26 49.4917C106.217 49.3703 106.19 49.2442 106.178 49.1161C106.178 48.9828 106.178 48.8465 106.178 48.7041C106.178 48.5618 106.178 48.4315 106.178 48.3134C106.185 48.2147 106.213 48.1187 106.26 48.0316C106.304 47.9514 106.376 47.89 106.463 47.859C106.571 47.8323 106.685 47.8323 106.793 47.859C106.957 47.896 107.113 47.9616 107.253 48.0528V48.0438ZM107.638 49.8977C107.641 49.8533 107.641 49.8088 107.638 49.7644V49.3827C107.638 49.3221 107.638 49.2736 107.638 49.2433C107.625 49.1375 107.594 49.0349 107.544 48.9404C107.469 48.826 107.364 48.7339 107.241 48.6738C107.102 48.5921 107.005 48.5708 106.954 48.6072C106.925 48.6302 106.902 48.6592 106.885 48.6922C106.869 48.7252 106.86 48.7613 106.86 48.798C106.857 48.8424 106.857 48.887 106.86 48.9313C106.86 48.9919 106.86 49.0555 106.86 49.1222C106.86 49.1888 106.86 49.2555 106.86 49.3221C106.857 49.3695 106.857 49.4171 106.86 49.4645C106.869 49.571 106.901 49.6743 106.954 49.7674C107.022 49.8816 107.122 49.974 107.241 50.034C107.381 50.1158 107.478 50.137 107.544 50.1006C107.573 50.0767 107.596 50.0471 107.612 50.0137C107.628 49.9803 107.637 49.9439 107.638 49.9067V49.8977Z" fill="#FAFAFA"/>
<path d="M74.8684 15.4248C74.8574 15.2279 74.8004 15.0363 74.7021 14.8653C74.6037 14.6944 74.4667 14.5488 74.3019 14.4403L66.0987 9.70862C65.7958 9.52686 65.5322 9.67227 65.5322 10.0358V17.9634C65.5428 18.1608 65.5995 18.353 65.6979 18.5246C65.7963 18.6961 65.9336 18.8421 66.0987 18.9509L69.5339 20.932L70.6184 25.3123C70.6302 25.3802 70.6649 25.442 70.7166 25.4875C70.7683 25.533 70.834 25.5596 70.9028 25.5627C70.9716 25.5659 71.0394 25.5455 71.0951 25.505C71.1508 25.4644 71.191 25.4061 71.2091 25.3396L72.2027 22.4709L74.3019 23.6826C74.6049 23.8644 74.8684 23.719 74.8684 23.3554V15.4248Z" fill="#F97316"/>
<path opacity="0.5" d="M74.8684 15.4248C74.8574 15.2279 74.8004 15.0363 74.7021 14.8653C74.6037 14.6944 74.4667 14.5488 74.3019 14.4403L66.0987 9.70862C65.7958 9.52686 65.5322 9.67227 65.5322 10.0358V17.9634C65.5428 18.1608 65.5995 18.353 65.6979 18.5246C65.7963 18.6961 65.9336 18.8421 66.0987 18.9509L69.5339 20.932L70.6184 25.3123C70.6302 25.3802 70.6649 25.442 70.7166 25.4875C70.7683 25.533 70.834 25.5596 70.9028 25.5627C70.9716 25.5659 71.0394 25.5455 71.0951 25.505C71.1508 25.4644 71.191 25.4061 71.2091 25.3396L72.2027 22.4709L74.3019 23.6826C74.6049 23.8644 74.8684 23.719 74.8684 23.3554V15.4248Z" fill="white"/>
<path d="M68.6409 13.329C68.8083 13.4242 68.9631 13.5403 69.1014 13.6743C69.2243 13.7954 69.3349 13.9283 69.4315 14.0712C69.5159 14.1975 69.5841 14.3338 69.6345 14.4771C69.6772 14.5984 69.7047 14.7246 69.7163 14.8527C69.7163 14.983 69.7315 15.1193 69.7315 15.2617C69.7315 15.4041 69.7314 15.5343 69.7163 15.6555C69.7093 15.7541 69.6815 15.8502 69.6345 15.9372C69.5906 16.0172 69.5181 16.0778 69.4315 16.1068C69.3249 16.1416 69.2108 16.1469 69.1014 16.122C68.9379 16.0842 68.7821 16.0187 68.6409 15.9281C68.472 15.8349 68.3162 15.7198 68.1774 15.5858C68.0533 15.469 67.9435 15.3378 67.8503 15.195C67.7647 15.0694 67.6965 14.9329 67.6473 14.7891C67.6052 14.6674 67.5768 14.5414 67.5625 14.4135C67.5625 14.2802 67.5625 14.1439 67.5625 14.0045C67.5625 13.8652 67.5625 13.7289 67.5625 13.6107C67.5718 13.5121 67.6007 13.4164 67.6473 13.329C67.6911 13.2482 67.7635 13.1866 67.8503 13.1563C67.9577 13.1295 68.07 13.1295 68.1774 13.1563C68.3407 13.1867 68.4975 13.2451 68.6409 13.329ZM71.5369 15.1738C71.5686 15.1524 71.6049 15.1389 71.6429 15.1344C71.6984 15.1381 71.7519 15.157 71.7974 15.189L72.2306 15.4374C72.2796 15.4665 72.3228 15.5045 72.3578 15.5495C72.3858 15.5884 72.4016 15.6348 72.4033 15.6827C72.4044 15.6938 72.4044 15.705 72.4033 15.7161C72.3972 15.7268 72.3901 15.737 72.3821 15.7464L68.8136 18.3818C68.7819 18.4032 68.7455 18.4167 68.7076 18.4212C68.652 18.4176 68.5986 18.3987 68.5531 18.3667L68.1199 18.1183C68.0697 18.0908 68.0262 18.0525 67.9927 18.0062C67.9646 17.9672 67.9488 17.9208 67.9472 17.8729C67.9444 17.863 67.9444 17.8525 67.9472 17.8426C67.9513 17.8299 67.9586 17.8184 67.9684 17.8093L71.5369 15.1738ZM69.0226 15.1738C69.027 15.1295 69.027 15.0849 69.0226 15.0405V14.6498C69.0267 14.6034 69.0267 14.5568 69.0226 14.5104C69.0137 14.4038 68.9816 14.3004 68.9287 14.2075C68.8599 14.0924 68.7602 13.999 68.6409 13.9379C68.5016 13.8591 68.4046 13.8349 68.338 13.8743C68.3099 13.8978 68.2871 13.9269 68.2709 13.9598C68.2548 13.9927 68.2456 14.0285 68.2441 14.0651C68.2441 14.0893 68.2441 14.1348 68.2441 14.1954C68.2441 14.256 68.2441 14.3196 68.2441 14.3892C68.2441 14.4589 68.2441 14.5225 68.2441 14.5861C68.2441 14.6498 68.2441 14.6982 68.2441 14.7285C68.2559 14.8345 68.2878 14.9373 68.338 15.0314C68.4123 15.1467 68.5172 15.239 68.6409 15.298C68.7803 15.3798 68.8772 15.401 68.9287 15.3647C68.9566 15.3431 68.9795 15.3156 68.9958 15.2842C69.012 15.2528 69.0211 15.2182 69.0226 15.1829V15.1738ZM71.7671 17.6609C71.9362 17.7561 72.0921 17.8732 72.2306 18.0092C72.3541 18.1278 72.4638 18.2599 72.5578 18.403C72.6427 18.5289 72.711 18.6654 72.7607 18.8089C72.8025 18.9307 72.831 19.0567 72.8455 19.1846C72.8455 19.3179 72.8455 19.4542 72.8455 19.5965C72.8455 19.7389 72.8455 19.8692 72.8455 19.9873C72.8362 20.0859 72.8074 20.1817 72.7607 20.269C72.7169 20.3498 72.6445 20.4114 72.5578 20.4417C72.4508 20.4717 72.3376 20.4717 72.2306 20.4417C72.0667 20.404 71.9101 20.3395 71.7671 20.2509C71.601 20.1549 71.4465 20.04 71.3067 19.9086C71.1831 19.7892 71.0724 19.6572 70.9765 19.5148C70.8933 19.3878 70.8252 19.2516 70.7735 19.1088C70.7308 18.9875 70.7034 18.8613 70.6917 18.7332C70.6917 18.6029 70.6766 18.4666 70.6766 18.3243C70.6766 18.1819 70.6766 18.0516 70.6917 17.9305C70.699 17.8319 70.7269 17.7359 70.7735 17.6487C70.819 17.57 70.8909 17.5099 70.9765 17.4791C71.0831 17.4447 71.1969 17.4385 71.3067 17.4609C71.4711 17.5035 71.6268 17.5742 71.7671 17.6699V17.6609ZM72.1518 19.5148C72.1543 19.4704 72.1543 19.4259 72.1518 19.3815V18.9998C72.1518 18.9392 72.1518 18.8907 72.1518 18.8604C72.1414 18.7541 72.1094 18.6511 72.0579 18.5575C71.9838 18.4414 71.879 18.348 71.755 18.2879C71.6157 18.2091 71.5187 18.1849 71.4672 18.2243C71.4381 18.2469 71.4145 18.2758 71.3982 18.3089C71.3819 18.3419 71.3734 18.3783 71.3733 18.4151C71.37 18.4585 71.37 18.502 71.3733 18.5454C71.3733 18.606 71.3733 18.6696 71.3733 18.7393C71.3733 18.8089 71.3733 18.8726 71.3733 18.9362C71.3703 18.9836 71.3703 19.0311 71.3733 19.0785C71.3822 19.1851 71.4143 19.2885 71.4672 19.3815C71.536 19.4965 71.6357 19.59 71.755 19.6511C71.8943 19.7298 71.9953 19.751 72.0579 19.7147C72.0866 19.6917 72.1098 19.6627 72.126 19.6297C72.1423 19.5967 72.1511 19.5606 72.1518 19.5238V19.5148Z" fill="#FAFAFA"/>
<path d="M18.5483 45.5752C18.559 45.3782 18.6159 45.1865 18.7143 45.0155C18.8127 44.8445 18.9498 44.699 19.1147 44.5907L27.318 39.8559C27.6209 39.6742 27.8844 39.8226 27.8844 40.1861V48.1137C27.8741 48.3108 27.8175 48.5027 27.719 48.6738C27.6206 48.8449 27.4832 48.9903 27.318 49.0982L23.8828 51.0794L22.7983 55.4627C22.8019 55.5431 22.7735 55.6215 22.7192 55.6809C22.665 55.7403 22.5894 55.7757 22.509 55.7793C22.4287 55.7829 22.3502 55.7544 22.2908 55.7002C22.2315 55.6459 22.1961 55.5703 22.1925 55.49L21.2019 52.6213L19.1026 53.833C18.7997 54.0147 18.5361 53.8663 18.5361 53.5058L18.5483 45.5752Z" fill="#F97316"/>
<g opacity="0.5">
<path d="M18.5483 45.5752C18.559 45.3782 18.6159 45.1865 18.7143 45.0155C18.8127 44.8445 18.9498 44.699 19.1147 44.5907L27.318 39.8559C27.6209 39.6742 27.8844 39.8226 27.8844 40.1861V48.1137C27.8741 48.3108 27.8175 48.5027 27.719 48.6738C27.6206 48.8449 27.4832 48.9903 27.318 49.0982L23.8828 51.0794L22.7983 55.4627C22.8019 55.5431 22.7735 55.6215 22.7192 55.6809C22.665 55.7403 22.5894 55.7757 22.509 55.7793C22.4287 55.7829 22.3502 55.7544 22.2908 55.7002C22.2315 55.6459 22.1961 55.5703 22.1925 55.49L21.2019 52.6213L19.1026 53.833C18.7997 54.0147 18.5361 53.8663 18.5361 53.5058L18.5483 45.5752Z" fill="white"/>
</g>
<path d="M21.413 44.9844C21.577 44.8824 21.7573 44.8097 21.9461 44.7693C22.0729 44.7437 22.2041 44.7499 22.3278 44.7875C22.4274 44.8234 22.5104 44.8945 22.5611 44.9874C22.6153 45.0875 22.6473 45.198 22.655 45.3115C22.6671 45.4509 22.6732 45.6023 22.6732 45.7659C22.6732 45.9295 22.6671 46.087 22.655 46.2385C22.6417 46.3872 22.6102 46.5337 22.5611 46.6747C22.503 46.8393 22.4247 46.996 22.3278 47.1412C22.2182 47.3066 22.0902 47.4591 21.9461 47.5956C21.7852 47.749 21.6061 47.8822 21.413 47.9924C21.247 48.0939 21.0661 48.1686 20.8768 48.2136C20.7514 48.2415 20.6209 48.2363 20.4982 48.1984C20.3986 48.1625 20.3156 48.0914 20.2649 47.9985C20.2098 47.8986 20.1767 47.7881 20.168 47.6744C20.168 47.535 20.168 47.3714 20.168 47.22C20.168 47.0685 20.168 46.8989 20.168 46.7474C20.1825 46.5986 20.215 46.4521 20.2649 46.3112C20.3217 46.1461 20.4001 45.9892 20.4982 45.8447C20.6083 45.6796 20.7352 45.5263 20.8768 45.3873C21.0385 45.2316 21.2185 45.0963 21.413 44.9844ZM24.7452 43.2547C24.7796 43.1884 24.8201 43.1255 24.8664 43.0668C24.9173 43.0087 24.9778 42.9595 25.0451 42.9214L25.5479 42.6185C25.5897 42.5877 25.642 42.5746 25.6933 42.5822C25.7297 42.5822 25.7479 42.6215 25.7479 42.67C25.75 42.6861 25.75 42.7024 25.7479 42.7185L25.7236 42.7821L21.5978 50.5915C21.5634 50.6569 21.5228 50.7188 21.4766 50.7763C21.4263 50.8352 21.3657 50.8844 21.2979 50.9217L20.7981 51.2246C20.7551 51.2553 20.7019 51.2684 20.6496 51.261C20.6133 51.261 20.5951 51.2216 20.5951 51.1732C20.593 51.1571 20.593 51.1408 20.5951 51.1247L20.6193 51.0611L24.7452 43.2547ZM21.8553 46.6262C21.8594 46.5718 21.8594 46.5171 21.8553 46.4626V46.0113C21.8597 45.9599 21.8597 45.9082 21.8553 45.8568C21.8536 45.8143 21.843 45.7727 21.8243 45.7346C21.8055 45.6965 21.7789 45.6628 21.7462 45.6357C21.6856 45.5932 21.5735 45.6357 21.413 45.7114C21.2891 45.7738 21.1833 45.8671 21.1059 45.9822C21.0284 46.0973 20.9819 46.2304 20.9707 46.3687C20.9663 46.4242 20.9663 46.4799 20.9707 46.5353C20.9707 46.608 20.9707 46.6838 20.9707 46.7625C20.9707 46.8413 20.9707 46.914 20.9707 46.9867C20.966 47.0371 20.966 47.0878 20.9707 47.1382C20.9707 47.1809 20.9806 47.2231 20.9995 47.2615C21.0184 47.2998 21.0459 47.3333 21.0798 47.3593C21.1404 47.4017 21.2494 47.3745 21.413 47.2836C21.5497 47.215 21.6649 47.1102 21.7462 46.9806C21.8065 46.8713 21.8437 46.7506 21.8553 46.6262ZM25.0269 45.8386C25.1922 45.7366 25.3735 45.6629 25.5631 45.6205C25.6888 45.5949 25.819 45.6011 25.9417 45.6387C26.0413 45.6746 26.1243 45.7457 26.175 45.8386C26.2301 45.9385 26.2632 46.049 26.2719 46.1627C26.2719 46.3021 26.2871 46.4657 26.2871 46.6171C26.2871 46.7686 26.2871 46.9382 26.2719 47.0897C26.2577 47.2385 26.2251 47.3851 26.175 47.5259C26.1177 47.6918 26.0393 47.8496 25.9417 47.9955C25.7097 48.3457 25.3984 48.6363 25.033 48.8436C24.8685 48.9459 24.6884 49.0205 24.4998 49.0648C24.3736 49.0943 24.2417 49.0891 24.1181 49.0496C24.018 49.0147 23.9347 48.9433 23.8849 48.8497C23.8303 48.7498 23.7983 48.6392 23.791 48.5256C23.791 48.3893 23.7728 48.2226 23.7728 48.0742C23.7728 47.9258 23.7728 47.7501 23.791 47.5986C23.804 47.4509 23.8356 47.3053 23.8849 47.1654C23.9429 46.9999 24.0213 46.8422 24.1181 46.6959C24.2284 46.5301 24.3564 46.3767 24.4998 46.2385C24.6567 46.0795 24.8339 45.9419 25.0269 45.8295V45.8386ZM25.4692 47.4684C25.4733 47.4139 25.4733 47.3592 25.4692 47.3048V46.8564C25.4736 46.805 25.4736 46.7534 25.4692 46.702C25.4694 46.6592 25.4597 46.6169 25.4408 46.5785C25.4218 46.5401 25.3942 46.5067 25.3601 46.4808C25.2995 46.4384 25.1905 46.4626 25.0269 46.5566C24.8907 46.6259 24.7757 46.7305 24.6937 46.8595C24.6352 46.9675 24.5982 47.0858 24.5846 47.2078C24.5817 47.2623 24.5817 47.3169 24.5846 47.3714C24.5846 47.4472 24.5846 47.5229 24.5846 47.5986C24.5846 47.6744 24.5846 47.7531 24.5846 47.8228C24.5815 47.8732 24.5815 47.9238 24.5846 47.9742C24.5863 48.0167 24.5969 48.0583 24.6156 48.0964C24.6344 48.1345 24.661 48.1682 24.6937 48.1954C24.7543 48.2378 24.8664 48.2136 25.0269 48.1196C25.1637 48.0512 25.279 47.9464 25.3601 47.8167C25.4226 47.7072 25.4599 47.585 25.4692 47.4593V47.4684Z" fill="#FAFAFA"/>
</svg>
