<svg width="145" height="145" viewBox="0 0 145 145" fill="none" xmlns="http://www.w3.org/2000/svg">
<path d="M23.3625 125.524H11.1699V129.405H23.3625V125.524Z" fill="#EBEBEB"/>
<path d="M16.5624 134.298C14.5304 134.333 9.40852 134.42 7.44579 134.444H4.36992H4.21387V134.284V130.404V130.251H4.38725L10.4835 130.276C11.9989 130.276 15.0609 130.324 16.5798 130.345H16.663V130.425L16.5833 134.305L16.5624 134.298ZM16.5624 134.298L16.4792 130.418L16.5624 130.501C15.0401 130.522 11.985 130.557 10.4662 130.571L4.36992 130.598L4.5433 130.425V134.305L4.38379 134.149H7.40418C9.3357 134.173 14.5754 134.26 16.5763 134.291L16.5624 134.298Z" fill="#EBEBEB"/>
<path d="M62.592 25.595C60.5599 25.6297 55.4381 25.7164 53.4753 25.7372H50.3994H50.2607V25.5777V21.6973V21.5239H50.4341L56.5304 21.5482C58.0493 21.5482 61.1078 21.5933 62.6267 21.6141H62.7099V21.7112L62.6267 25.5916L62.592 25.595ZM62.592 25.595L62.5088 21.7112L62.592 21.7944C61.0696 21.8152 58.0146 21.8464 56.4957 21.8603L50.3994 21.8846L50.5728 21.7112V25.5916L50.4133 25.4355H53.4337C55.3652 25.4563 60.605 25.543 62.6059 25.5777L62.592 25.595Z" fill="#EBEBEB"/>
<path d="M55.8105 30.4883C53.7784 30.523 48.6566 30.6097 46.6938 30.6305L43.618 30.6479H43.4619V30.4883V26.608V26.4346H43.6353L49.7316 26.4588C51.247 26.4588 54.309 26.5039 55.8278 26.5247H55.9111V26.6045L55.8105 30.4883ZM55.8105 30.4883L55.7273 26.608L55.8105 26.6912L52.7624 26.7293C50.8274 26.7571 45.6188 26.7744 43.618 26.7813L43.7913 26.608V30.4883L43.6353 30.3323H46.6557C48.5872 30.3531 53.827 30.4398 55.8278 30.4745L55.8105 30.4883Z" fill="#EBEBEB"/>
<path d="M49.0168 21.7153H36.8242V25.5957H49.0168V21.7153Z" fill="#EBEBEB"/>
<path d="M139.848 130.417H127.655V134.298H139.848V130.417Z" fill="#EBEBEB"/>
<path d="M133.047 0.1875H120.854V4.06789H133.047V0.1875Z" fill="#EBEBEB"/>
<path d="M139.848 8.96022C137.816 8.9949 132.694 9.08159 130.732 9.10587H127.656H127.5V8.94635L127.482 5.06596V4.89258H127.656L133.752 4.91685C135.271 4.91685 138.329 4.96193 139.848 4.98621H139.932V5.06596L139.848 8.94635V8.96022ZM139.848 8.96022L139.765 5.06596L139.848 5.14919C138.326 5.17 135.274 5.20467 133.752 5.21508L127.656 5.23935L127.829 5.06596V8.94635L127.67 8.7903H130.69C132.625 8.81111 137.865 8.90127 139.862 8.93248L139.848 8.96022Z" fill="#EBEBEB"/>
<path d="M23.3623 4.06764C21.3302 4.10232 16.2083 4.18902 14.2456 4.21329H11.1697H11.0137V4.05377V0.173386V0H11.1871L17.2833 0.024274C18.8022 0.024274 21.8607 0.0693547 23.3796 0.0936288H23.4628V0.173386L23.3796 4.05377L23.3623 4.06764ZM23.3623 4.06764L23.279 0.187258L23.3623 0.270482C21.8399 0.291289 18.7848 0.325967 17.266 0.33637L11.1697 0.360644L11.3431 0.187258V4.06764L11.1836 3.9116H14.204C16.1355 3.9324 21.3752 4.02256 23.3761 4.05377L23.3623 4.06764Z" fill="#EBEBEB"/>
<path d="M66.5553 7.34754L63.9788 7.82608L63.4031 10.5413L62.8275 7.82608L60.251 7.34754L62.8171 6.71988L63.4031 4.15723L63.9892 6.71988L66.5553 7.34754Z" fill="#4F46E5"/>
<path d="M30.7888 20.4767L29.3497 20.7438L29.0272 22.2626L28.7047 20.7438L27.2656 20.4767L28.7013 20.1265L29.0272 18.6943L29.3567 20.1265L30.7888 20.4767Z" fill="#4F46E5"/>
<path d="M100.472 21.0412L99.0333 21.3082L98.7108 22.8271L98.3918 21.3082L96.9492 21.0412L98.3849 20.691L98.7108 19.2588L99.0403 20.691L100.472 21.0412Z" fill="#4F46E5"/>
<path d="M121.17 35.7551L119.731 36.0187L119.408 37.5375L119.089 36.0187L117.646 35.7517L119.082 35.4014L119.408 33.9692L119.738 35.4014L121.17 35.7551Z" fill="#4F46E5"/>
<path d="M91.4675 48.2634L90.0284 48.5304L89.7059 50.0458L89.3834 48.5304L87.9443 48.2634L89.3765 47.9132L89.7059 46.4775L90.0319 47.9132L91.4675 48.2634Z" fill="#4F46E5"/>
<path d="M43.9846 44.6149L42.5455 44.8819L42.223 46.4008L41.9039 44.8819L40.4648 44.6149L41.897 44.2647L42.223 42.8325L42.5524 44.2647L43.9846 44.6149Z" fill="#4F46E5"/>
<path d="M19.197 57.5984L17.7579 57.8654L17.4354 59.3808L17.1164 57.8654L15.6738 57.5984L17.1095 57.2481L17.4354 55.8125L17.7649 57.2481L19.197 57.5984Z" fill="#4F46E5"/>
<path d="M85.4952 39.7778C85.3849 39.7778 85.279 39.8217 85.201 39.8997C85.1229 39.9778 85.0791 40.0836 85.0791 40.194C85.0791 40.3043 85.1229 40.4102 85.201 40.4882C85.279 40.5662 85.3849 40.6101 85.4952 40.6101C85.6056 40.6101 85.7114 40.5662 85.7895 40.4882C85.8675 40.4102 85.9114 40.3043 85.9114 40.194C85.9114 40.0836 85.8675 39.9778 85.7895 39.8997C85.7114 39.8217 85.6056 39.7778 85.4952 39.7778Z" fill="#4F46E5"/>
<path d="M46.7936 33.9897C46.6893 33.9993 46.5924 34.0474 46.5218 34.1247C46.4512 34.202 46.4121 34.3029 46.4121 34.4076C46.4121 34.5123 46.4512 34.6132 46.5218 34.6905C46.5924 34.7678 46.6893 34.816 46.7936 34.8255C46.8979 34.816 46.9948 34.7678 47.0654 34.6905C47.136 34.6132 47.1751 34.5123 47.1751 34.4076C47.1751 34.3029 47.136 34.202 47.0654 34.1247C46.9948 34.0474 46.8979 33.9993 46.7936 33.9897Z" fill="#4F46E5"/>
<path d="M12.2682 60.5044C12.164 60.5139 12.067 60.562 11.9964 60.6393C11.9259 60.7167 11.8867 60.8176 11.8867 60.9223C11.8867 61.0269 11.9259 61.1278 11.9964 61.2052C12.067 61.2825 12.164 61.3306 12.2682 61.3401C12.3725 61.3306 12.4694 61.2825 12.54 61.2052C12.6106 61.1278 12.6497 61.0269 12.6497 60.9223C12.6497 60.8176 12.6106 60.7167 12.54 60.6393C12.4694 60.562 12.3725 60.5139 12.2682 60.5044Z" fill="#4F46E5"/>
<path d="M39.9266 36.9692C39.8484 36.9692 39.7734 37.0003 39.7182 37.0556C39.6629 37.1108 39.6318 37.1858 39.6318 37.264C39.6318 37.3422 39.6629 37.4171 39.7182 37.4724C39.7734 37.5277 39.8484 37.5588 39.9266 37.5588C40.0048 37.5588 40.0797 37.5277 40.135 37.4724C40.1903 37.4171 40.2213 37.3422 40.2213 37.264C40.2213 37.1858 40.1903 37.1108 40.135 37.0556C40.0797 37.0003 40.0048 36.9692 39.9266 36.9692Z" fill="#4F46E5"/>
<path d="M23.4207 39.8994C23.3426 39.8994 23.2676 39.9305 23.2123 39.9857C23.157 40.041 23.126 40.116 23.126 40.1942C23.126 40.2723 23.157 40.3473 23.2123 40.4026C23.2676 40.4579 23.3426 40.4889 23.4207 40.4889C23.4989 40.4889 23.5739 40.4579 23.6292 40.4026C23.6844 40.3473 23.7155 40.2723 23.7155 40.1942C23.7155 40.116 23.6844 40.041 23.6292 39.9857C23.5739 39.9305 23.4989 39.8994 23.4207 39.8994Z" fill="#4F46E5"/>
<path d="M58.6395 10.541C58.5613 10.541 58.4863 10.5721 58.4311 10.6273C58.3758 10.6826 58.3447 10.7576 58.3447 10.8358C58.3447 10.9139 58.3758 10.9889 58.4311 11.0442C58.4863 11.0995 58.5613 11.1305 58.6395 11.1305C58.7177 11.1305 58.7926 11.0995 58.8479 11.0442C58.9032 10.9889 58.9342 10.9139 58.9342 10.8358C58.9342 10.7576 58.9032 10.6826 58.8479 10.6273C58.7926 10.5721 58.7177 10.541 58.6395 10.541Z" fill="#4F46E5"/>
<path d="M103.851 26.3125C103.773 26.3125 103.698 26.3436 103.643 26.3988C103.588 26.4541 103.557 26.5291 103.557 26.6073C103.557 26.6854 103.588 26.7604 103.643 26.8157C103.698 26.871 103.773 26.902 103.851 26.902C103.93 26.902 104.005 26.871 104.06 26.8157C104.115 26.7604 104.146 26.6854 104.146 26.6073C104.146 26.5291 104.115 26.4541 104.06 26.3988C104.005 26.3436 103.93 26.3125 103.851 26.3125Z" fill="#4F46E5"/>
<path d="M131.579 53.5098C130.539 53.5098 130.539 55.1119 131.579 55.1119C132.619 55.1119 132.609 53.5098 131.579 53.5098Z" fill="#4F46E5"/>
<path d="M79.8437 11.6333C78.8034 11.6333 78.8034 13.2319 79.8437 13.2319C80.884 13.2319 80.8736 11.6333 79.8437 11.6333Z" fill="#4F46E5"/>
<path d="M26.1533 65.2417L56.9225 74.9271L48.2046 117.164L12.0986 106.886L26.1533 65.2417Z" fill="#4F46E5"/>
<path opacity="0.6" d="M26.1533 65.2417L56.9225 74.9271L48.2046 117.164L12.0986 106.886L26.1533 65.2417Z" fill="white"/>
<path d="M12.0992 106.886L1.74805 101.736L22.0412 63.3311L23.6572 65.1135L26.1539 65.2418L12.0992 106.886Z" fill="#4F46E5"/>
<path opacity="0.4" d="M12.0992 106.886L1.74805 101.736L22.0412 63.3311L23.6572 65.1135L26.1539 65.2418L12.0992 106.886Z" fill="white"/>
<path opacity="0.5" d="M8.21536 100.009L1.74805 101.736L22.0412 63.3311L23.6572 65.1135L8.21536 100.009Z" fill="#4F46E5"/>
<path d="M12.1719 105.911C11.6101 104.906 10.9964 103.935 10.3791 102.967C9.76184 102 9.11684 101.05 8.45797 100.11L8.36782 99.978L8.21523 100.009C7.26855 100.193 6.32186 100.377 5.3821 100.602C4.44235 100.828 3.50259 101.039 2.57324 101.296C3.53727 101.209 4.49436 101.081 5.44799 100.949C6.40161 100.817 7.35524 100.651 8.3054 100.481L8.06265 100.38C8.71227 101.33 9.37577 102.267 10.0531 103.189C10.7293 104.108 11.4229 105.027 12.1719 105.911Z" fill="#4F46E5"/>
<path d="M8.20801 100.339C9.5951 97.4433 10.9267 94.5269 12.2514 91.6036C13.576 88.6804 14.8591 85.7467 16.1664 82.8164C17.4738 79.8862 18.7222 76.9213 19.9809 73.9807L21.8431 69.542C22.4465 68.0578 23.0672 66.5771 23.6533 65.0859C22.9597 66.5285 22.2904 67.9884 21.6073 69.4414L19.6099 73.8177C18.2852 76.7375 16.9987 79.6747 15.6948 82.6049C14.391 85.5351 13.1391 88.5 11.8803 91.4441C10.6215 94.3882 9.39397 97.3566 8.20801 100.339Z" fill="#4F46E5"/>
<path d="M25.8705 67.6904L58.0822 69.7745L60.1385 121.527L22.6143 120.355L25.8705 67.6904Z" fill="#455A64"/>
<path d="M22.6135 120.355L11.3018 117.452L21.4137 66.6987L23.418 68.2904L25.8697 67.6905L22.6135 120.355Z" fill="#37474F"/>
<path opacity="0.1" d="M17.1379 113.51L11.3018 117.452L21.4137 66.6987L23.418 68.2904L17.1379 113.51Z" fill="black"/>
<path d="M22.4399 119.193C21.6458 118.194 20.8066 117.247 19.9709 116.304C19.1352 115.361 18.2682 114.452 17.3978 113.554L17.2765 113.429L17.1378 113.509C16.2674 114.005 15.4039 114.504 14.5439 115.045C13.6839 115.586 12.8308 116.113 11.9951 116.703C12.9071 116.311 13.8018 115.877 14.693 115.427C15.5842 114.976 16.465 114.508 17.3424 114.04L17.0823 113.994C17.9469 114.908 18.8231 115.799 19.7108 116.668C20.6055 117.525 21.5002 118.388 22.4399 119.193Z" fill="#263238"/>
<path d="M17.2119 113.894C17.8361 110.111 18.4013 106.321 18.9458 102.523C19.4902 98.7262 20.0138 94.9256 20.5513 91.1285C21.0888 87.3313 21.5639 83.5168 22.039 79.7058L22.7325 73.9875C22.9475 72.0768 23.1799 70.173 23.381 68.2588C23.062 70.1487 22.7811 72.0455 22.4794 73.9389L21.6541 79.6225C21.0958 83.4162 20.5825 87.2203 20.0485 91.0175C19.5145 94.8146 19.0533 98.6361 18.5609 102.447C18.0684 106.258 17.6211 110.069 17.2119 113.894Z" fill="#263238"/>
<path d="M57.4023 24.0491C60.2805 21.2749 67.9303 17.9667 75.2507 24.7426C85.6538 34.3482 81.9468 60.6579 80.5008 64.6665C80.5008 64.6665 62.6281 71.0645 46.6211 62.0415C46.6211 62.0415 55.1413 44.2278 53.6502 35.1423C53.3109 33.1272 53.476 31.0594 54.1307 29.1237C54.7854 27.1879 55.9094 25.4445 57.4023 24.0491Z" fill="#263238"/>
<path d="M52.1143 45.0392C52.0588 45.1849 52.0103 45.3305 51.9548 45.4762C51.2378 47.3256 50.3521 49.1051 49.3089 50.7922C48.353 52.4336 47.1639 53.9276 45.7788 55.2274C45.7406 55.2621 45.6782 55.2101 45.7163 55.1754C47.1416 53.8334 48.116 52.1238 49.0107 50.4212C49.8878 48.754 50.6636 47.0355 51.3341 45.2751C52.718 41.7011 53.6398 37.965 54.077 34.1575C54.077 34.0847 54.2157 34.0916 54.2123 34.1575C54.1949 34.6915 54.1637 35.2221 54.1221 35.7527C54.1328 35.7483 54.1444 35.7469 54.1558 35.7484C54.1672 35.75 54.178 35.7545 54.1871 35.7615C54.1962 35.7685 54.2033 35.7778 54.2077 35.7884C54.2122 35.799 54.2137 35.8106 54.2123 35.822C53.8932 39.3799 53.4736 42.8685 52.4229 46.2911C51.3582 49.6529 49.8342 52.8514 47.8941 55.7961C46.8197 57.4711 45.6418 59.0775 44.3674 60.6059C44.3658 60.6093 44.3633 60.6122 44.3604 60.6145C44.3574 60.6168 44.3539 60.6184 44.3502 60.6191C44.3465 60.6198 44.3427 60.6197 44.3391 60.6187C44.3355 60.6177 44.3321 60.6158 44.3293 60.6133C44.3265 60.6108 44.3244 60.6077 44.323 60.6042C44.3216 60.6007 44.3211 60.5969 44.3214 60.5931C44.3217 60.5894 44.3229 60.5858 44.3249 60.5826C44.3268 60.5794 44.3295 60.5767 44.3327 60.5747C47.901 55.9244 50.3839 50.5841 52.1143 45.0392Z" fill="#263238"/>
<path d="M71.9829 23.2551C81.1898 28.7341 83.9743 39.6921 84.0368 49.4537C84.0849 52.4589 83.8363 55.4615 83.2947 58.4178C83.2947 58.4289 83.2903 58.4394 83.2825 58.4473C83.2747 58.4551 83.2641 58.4594 83.2531 58.4594C83.242 58.4594 83.2314 58.4551 83.2236 58.4473C83.2158 58.4394 83.2114 58.4289 83.2114 58.4178C83.8073 53.2511 83.652 48.0254 82.7502 42.9032C81.8798 38.1073 80.4997 33.152 77.6943 29.0323C76.2013 26.7611 74.2309 24.8428 71.9205 23.4111C71.8338 23.3418 71.8963 23.203 71.9829 23.2551Z" fill="#263238"/>
<path d="M74.9277 59.1009C89.1454 71.987 99.2642 83.0871 99.1324 88.1362C98.8307 99.4444 92.8662 101.886 91.8051 101.529C80.587 97.714 73.4574 76.3667 68.7412 63.4633C64.0598 50.657 70.8531 55.4112 74.9277 59.1009Z" fill="#F7A9A0"/>
<path d="M82.4411 96.3755L100.862 82.6294C100.862 82.6294 83.1139 64.3025 73.8863 57.4745C66.1359 51.7354 62.2416 55.7857 67.0964 67.1425C71.6912 77.889 82.4411 96.3755 82.4411 96.3755Z" fill="#4F46E5"/>
<path d="M90.6567 72.4376L88.9228 70.7661C88.1981 71.1684 87.7889 71.9798 87.5981 72.9196C87.159 74.2206 87.0215 75.6044 87.1959 76.9664C87.2999 77.712 87.6189 78.8009 88.583 78.6205C89.6233 78.4298 90.0776 76.7965 90.3168 75.9677C90.5902 74.812 90.7046 73.6243 90.6567 72.4376ZM83.742 77.8888C83.312 76.9976 82.4936 76.096 81.5227 76.8936C80.4824 77.7571 80.5795 79.5395 80.791 80.7289C80.944 81.7009 81.263 82.6393 81.7342 83.5031C81.9523 83.991 82.3253 84.3932 82.7953 84.6474C84.0923 85.1919 84.1998 83.4719 84.3003 82.6119C84.4841 81.041 84.4356 79.373 83.742 77.8888ZM86.2423 68.2L84.9037 66.9447C84.3073 67.0245 83.9466 67.5758 83.7524 68.2659C83.4478 69.2037 83.33 70.1922 83.4057 71.1753C83.4715 71.7683 83.5929 72.7948 84.2587 73.0583C84.9245 73.3219 85.4586 72.6318 85.6909 72.0977C85.9787 71.4631 86.4677 69.5178 86.2423 68.2104V68.2ZM76.1546 67.8324C75.9986 66.0778 74.9513 64.5658 73.8105 63.2862C73.0406 62.4124 71.6535 60.6542 70.3184 61.6356C69.2781 62.395 69.722 63.8931 70.1173 64.8675C70.7667 66.4282 71.8498 67.77 73.2383 68.734C73.8209 69.1259 74.6982 69.6079 75.3189 69.3825C75.95 69.2819 76.2275 68.6612 76.1546 67.8324ZM89.2106 86.0831C88.8639 84.9249 87.7126 82.9864 86.8179 83.1598C86.0862 83.3089 85.4967 84.9734 86.1244 87.0957C86.8006 89.3913 88.0697 90.3657 88.6627 90.1022C89.8452 89.5924 89.6441 87.5985 89.2106 86.097V86.0831Z" fill="#263238"/>
<path d="M95.519 80.69C94.2381 81.4242 93.0025 82.2348 91.8189 83.1174C90.5601 83.9739 89.343 84.8756 88.1189 85.7702C86.8947 86.6649 82.1613 90.4135 80.9788 91.3533C80.9268 91.3949 81.0065 91.4816 81.062 91.4434C82.3243 90.5904 87.3039 87.1955 88.5072 86.3147C89.7105 85.4339 90.9069 84.5565 92.0721 83.6376C93.2372 82.7186 94.5168 81.8205 95.5641 80.7628C95.5849 80.7247 95.5537 80.6623 95.519 80.69Z" fill="#263238"/>
<path opacity="0.1" d="M93.0853 88.4337L82.4429 96.3748C82.4429 96.3748 71.6929 77.8918 67.0982 67.1418C63.946 59.7695 64.4835 55.4799 67.3652 54.9424C71.9773 60.8965 84.1733 76.6677 93.0853 88.4337Z" fill="black"/>
<path d="M69.0498 55.5532C71.6627 57.4131 73.6543 60.0173 74.7646 63.0262C76.5956 68.0266 86.2601 91.628 87.9108 96.7776C89.5614 101.927 102.437 126.995 102.437 126.995C102.437 126.995 95.3664 134.604 93.3031 136.164C90.4353 138.342 80.0494 141.806 80.0494 141.806C80.0494 141.806 75.7009 104.379 74.8825 100.578C74.0641 96.7776 69.0498 55.5532 69.0498 55.5532Z" fill="#4F46E5"/>
<path d="M92.2222 113.606C91.7159 115.191 90.5889 116.47 89.344 117.525C88.6712 118.097 87.3951 119.304 86.8056 117.996C86.6299 117.48 86.6299 116.921 86.8056 116.405C87.0555 115.431 87.472 114.507 88.0366 113.676C88.7059 112.635 89.8676 111.248 91.2512 111.317C92.5343 111.411 92.517 112.653 92.2222 113.606Z" fill="#263238"/>
<path d="M84.4222 121.073C84.3806 122.807 84.1101 124.679 83.0039 126.097C82.4907 126.76 81.8492 127.027 81.2943 126.666C80.6736 126.403 80.3546 125.435 80.1985 124.735C79.8303 123.052 79.9568 121.298 80.5627 119.686C80.9441 118.68 81.6585 117.258 82.9623 117.411C84.6407 117.608 84.4535 119.887 84.4222 121.073Z" fill="#263238"/>
<path d="M90.8334 119.7C91.6206 120.189 91.1351 122.439 90.5837 123.542C89.8902 124.953 88.6245 126.597 87.3796 126.163C86.7484 125.941 86.4814 124.336 87.5738 122.151C88.5933 120.13 90.1919 119.297 90.8334 119.7Z" fill="#263238"/>
<path d="M95.7994 131.261C95.5809 131.847 95.0781 132.894 94.3533 132.995C93.6286 133.095 93.4413 132.388 93.3893 131.857C93.3213 131.023 93.3868 130.184 93.5835 129.371C93.7985 128.272 94.3256 127.29 95.3416 127.11C97.3495 126.784 96.0872 130.505 95.7994 131.261Z" fill="#263238"/>
<path d="M95.1101 144.84H62.4788C61.0605 139.271 58.8758 130.699 56.9755 123.229C56.861 122.772 56.7431 122.314 56.6287 121.87C56.5559 121.589 56.49 121.315 56.4206 121.045C54.5897 113.866 53.1471 108.19 53.1124 108.058L53.0604 107.867C53.0431 107.798 53.0361 107.76 53.0361 107.76H84.5404L95.1101 144.84Z" fill="#37474F"/>
<path d="M83.5173 107.731C83.5173 107.752 83.5173 107.79 83.5173 107.839C83.5173 108.21 83.5173 108.581 83.5173 108.952C83.5173 109.895 83.4619 110.839 83.3994 111.782C83.1506 115.47 82.6688 119.14 81.9569 122.768C81.0351 127.552 79.8144 132.274 78.3019 136.905C78.1666 137.308 78.0869 137.533 78.0799 137.557L75.5658 138.799L75.3613 138.903L70.3747 141.386C69.6811 141.733 69.1714 141.986 69.0292 142.062L68.991 142.083C68.991 142.083 68.9355 143.203 68.8662 144.84H34.8339C35.5275 139.069 35.6072 138.306 35.6072 138.306C35.4061 137.193 34.5149 134.325 34.8339 130.989C35.5275 123.662 40.0355 108.949 40.4378 108.071C40.5314 107.856 40.5903 107.745 40.5903 107.745H49.1972H69.5875H83.5173V107.731Z" fill="#37474F"/>
<path d="M69.0255 141.986V142.062C69.0255 142.988 69.0013 143.917 68.9874 144.836H68.6406C68.7169 143.907 68.7793 142.974 68.8903 142.045C68.8903 141.962 68.8903 141.878 68.9146 141.795C68.9146 141.781 68.9201 141.768 68.9298 141.758C68.9396 141.749 68.9528 141.743 68.9666 141.743C68.9804 141.743 68.9936 141.749 69.0034 141.758C69.0131 141.768 69.0186 141.781 69.0186 141.795C69.0221 141.865 69.0255 141.927 69.0255 141.986Z" fill="#263238"/>
<path d="M64.948 143.775C66.394 142.773 67.9545 141.931 69.4872 141.064C71.02 140.197 72.6429 139.33 74.2727 138.57C77.4596 137.09 80.8198 136.018 84.1696 134.978C84.1894 134.97 84.2114 134.97 84.231 134.979C84.2505 134.987 84.2658 135.003 84.2736 135.023C84.2815 135.043 84.2811 135.065 84.2726 135.084C84.2642 135.104 84.2483 135.119 84.2286 135.127C81.0036 136.514 77.8722 138.102 74.6646 139.524C73.0486 140.242 71.4222 140.911 69.8097 141.639C68.1973 142.368 66.6194 143.158 64.9896 143.838C64.9376 143.852 64.9064 143.8 64.948 143.775Z" fill="#263238"/>
<path d="M73.7749 127.977C73.8165 126.392 73.9275 124.811 74.0038 123.229C74.191 119.498 74.3506 115.742 74.6973 112.022C74.7021 111.994 74.7163 111.969 74.7376 111.951C74.7588 111.934 74.7857 111.924 74.8135 111.924C74.8413 111.924 74.8682 111.934 74.8894 111.951C74.9107 111.969 74.9249 111.994 74.9297 112.022C74.9782 114.91 74.8672 117.806 74.8083 120.691C74.7771 122.137 74.7355 123.579 74.6973 125.025C74.617 126.404 74.6077 127.786 74.6696 129.166C74.7459 130.206 74.9747 132.231 76.3341 132.356C77.6137 132.474 78.3142 131.094 78.6332 130.078C79.4446 127.508 79.7325 124.734 79.996 122.061C80.1521 120.476 80.3081 118.898 80.4017 117.31C80.4954 115.722 80.6237 113.343 80.537 111.741C80.537 111.64 80.6792 111.644 80.6965 111.741C80.9496 113.128 80.96 115.902 80.9254 117.542C80.6133 132.27 78.2899 133.109 77.0623 133.348C76.9114 133.378 76.7583 133.394 76.6046 133.397C76.6046 133.743 76.5456 134.069 76.5214 134.399C76.4867 134.922 76.4208 135.439 76.3514 135.963C76.2761 136.473 76.1696 136.978 76.0324 137.475C75.9217 137.979 75.742 138.465 75.4984 138.921C75.4888 138.935 75.4749 138.945 75.4588 138.951C75.4427 138.957 75.4252 138.957 75.4089 138.952C75.3926 138.947 75.3784 138.937 75.3682 138.923C75.3581 138.909 75.3527 138.893 75.3527 138.876C75.3407 138.376 75.3825 137.876 75.4776 137.384C75.5469 136.878 75.6163 136.344 75.7203 135.862C75.8243 135.38 75.9145 134.87 76.0185 134.378C76.0844 134.031 76.133 133.705 76.1954 133.369C75.7982 133.3 75.4245 133.133 75.1078 132.884C74.7912 132.635 74.5417 132.31 74.3818 131.94C73.7888 130.733 73.7437 129.298 73.7749 127.977Z" fill="#263238"/>
<path d="M44.0196 125.178C46.076 125.324 48.1046 125.587 50.1679 125.344C52.1098 125.145 53.9601 124.419 55.5186 123.243C58.91 120.614 60.3977 116.308 61.3132 112.275C61.3159 112.255 61.3262 112.238 61.3418 112.226C61.3574 112.214 61.3771 112.209 61.3964 112.212C61.4157 112.215 61.4331 112.225 61.4448 112.241C61.4565 112.256 61.4616 112.276 61.4588 112.295C61.0739 115.798 60.3214 119.418 58.0604 122.234C57.0879 123.474 55.8573 124.488 54.454 125.206C52.9636 125.899 51.3322 126.235 49.6893 126.187C47.7631 126.171 45.8466 125.912 43.9849 125.417C43.9554 125.41 43.9296 125.392 43.9126 125.367C43.8955 125.342 43.8885 125.312 43.8929 125.282C43.8972 125.252 43.9126 125.224 43.9361 125.205C43.9595 125.186 43.9893 125.176 44.0196 125.178Z" fill="#263238"/>
<path d="M88.9032 124.356C88.331 124.29 87.7693 124.356 87.1867 123.919C86.6041 123.482 86.1117 122.737 85.6574 121.492C84.6691 118.763 84.1836 114.684 83.8611 110.908C83.8611 110.825 83.8161 110.825 83.8195 110.908C83.986 114.147 84.2565 117.528 84.9327 120.32C85.1607 121.377 85.5098 122.404 85.973 123.382C86.3961 124.193 86.8677 124.581 87.3219 124.734C87.5814 124.819 87.8556 124.849 88.1272 124.822C88.3989 124.795 88.6619 124.712 88.8998 124.578C88.9552 124.564 88.9448 124.356 88.9032 124.356Z" fill="#263238"/>
<path d="M43.6731 108.751C42.5669 114.803 41.2457 120.941 40.0493 126.974C39.7407 128.781 39.2032 130.563 39.3107 132.398C39.467 134.251 39.7591 136.091 40.1846 137.901C39.9904 139.066 39.8031 140.232 39.5916 141.393C39.3801 142.555 39.1928 143.696 38.9709 144.844C39.0784 143.678 39.2101 142.52 39.3176 141.359C39.4251 140.197 39.5777 139.035 39.713 137.891C39.2017 136.115 38.8534 134.296 38.6726 132.457C38.6113 131.818 38.6265 131.174 38.7177 130.539C39.0853 128.063 39.602 125.646 40.1048 123.219C41.1451 118.364 42.3242 113.551 43.6384 108.769L43.6731 108.751Z" fill="#263238"/>
<path d="M36.8696 120.5C37.0083 120.67 87.4256 120.611 88.0255 119.99C88.1296 119.883 90.98 114.355 90.8795 112.337C90.7234 109.168 88.3619 105.374 88.4867 103.207C88.6983 99.5794 74.5257 63.893 72.393 58.6637C70.2604 53.4343 60.6027 52.29 55.6474 56.42C48.4067 62.4539 37.2164 107.94 36.2558 110.919C35.1011 114.487 36.7378 120.341 36.8696 120.5Z" fill="#EBEBEB"/>
<path d="M66.3575 106.396C66.198 105.887 75.4915 104.077 76.4971 103.927C77.5028 103.778 86.3663 103.848 86.4599 104.028C86.5536 104.208 78.3212 104.631 77.6554 104.618C76.9896 104.604 66.4338 106.646 66.3575 106.396Z" fill="#C7C7C7"/>
<path d="M75.9237 105.762C75.5111 105.506 81.2085 105.513 81.1912 105.703C81.1739 105.894 76.5618 106.158 75.9237 105.762Z" fill="#C7C7C7"/>
<path d="M59.1459 54.0996C59.1459 54.0996 59.3505 91.4505 58.924 94.7275C58.4975 98.0045 51.0627 142.96 51.0627 142.96C51.0627 142.96 35.1111 139.725 32.9473 138.189C30.7834 136.652 26.9932 127.785 26.9932 127.785C26.9932 127.785 36.4566 104.898 37.3166 102.502C38.5442 99.1038 49.9981 63.4798 52.9214 58.6701C54.3271 56.3989 56.5581 54.7608 59.1459 54.0996Z" fill="#4F46E5"/>
<path d="M43.0531 110.756C42.1966 111.103 41.7354 111.98 41.5273 113.007C41.0882 114.308 40.9507 115.691 41.1251 117.053C41.2291 117.796 41.5481 118.884 42.5122 118.704C43.5525 118.513 44.0067 116.884 44.246 116.055C44.4853 115.226 45.2898 109.82 43.0531 110.756ZM37.6677 117.99C37.2377 117.099 36.4194 116.197 35.4484 116.995C34.4081 117.858 34.5052 119.637 34.7167 120.83C34.8688 121.802 35.1879 122.741 35.6599 123.604C35.8787 124.092 36.2514 124.495 36.7211 124.752C38.018 125.293 38.1255 123.573 38.226 122.716C38.4098 121.128 38.3613 119.46 37.6677 117.99ZM39.1589 107.049C38.3613 106.942 37.907 107.555 37.6781 108.367C37.3732 109.305 37.2554 110.293 37.3314 111.276C37.3973 111.869 37.5186 112.892 38.1844 113.159C38.8502 113.426 39.3808 112.729 39.6166 112.199C40.0639 111.221 40.9274 107.281 39.1658 107.049H39.1589ZM39.4051 133.092C39.249 131.334 38.2052 129.822 37.0644 128.542C36.2945 127.672 34.904 125.91 33.5724 126.895C32.532 127.654 32.9759 129.152 33.3712 130.123C34.0182 131.685 35.1018 133.028 36.4922 133.99C37.0748 134.385 37.9486 134.864 38.5728 134.638C39.2005 134.524 39.4814 133.903 39.4051 133.092ZM43.1329 126.184C42.7861 125.029 41.6348 123.091 40.7436 123.264C40.0119 123.41 39.4224 125.074 40.0501 127.2C40.7263 129.496 41.9955 130.47 42.5884 130.207C43.7709 129.683 43.5698 127.672 43.1329 126.184ZM50.4463 126.579C49.8325 127.377 50.0995 128.441 50.696 129.374C51.0987 130.088 51.6125 130.733 52.2183 131.285C52.417 131.47 52.6537 131.61 52.9119 131.694L53.3766 128.885C52.8841 127.769 51.5248 125.178 50.4463 126.579ZM58.5504 61.5109C58.0372 60.9456 57.1841 61.5455 56.7437 61.8888C55.5474 62.8355 54.4411 64.3371 54.1464 65.9149C53.758 66.8754 53.6713 67.8221 54.5694 68.0198C55.3115 68.1828 56.2028 67.1702 56.6501 66.7125C57.4271 65.9288 58.037 64.9957 58.4429 63.9695C58.6683 63.3488 59.074 62.0865 58.5504 61.5109ZM56.709 80.0944C56.1993 80.6354 55.5508 81.5751 56.2998 82.2132C57.0489 82.8513 58.3215 82.3588 59.1746 82.019C59.1746 80.8018 59.1746 79.5396 59.1746 78.26C58.2561 78.7295 57.4227 79.3495 56.709 80.0944ZM53.1858 75.6419C51.8542 75.3714 50.5365 76.5712 49.7424 77.4902C49.083 78.2204 48.5551 79.0592 48.1819 79.9696C47.9371 80.4458 47.8567 80.9895 47.953 81.5162C48.3483 82.8651 49.7493 81.863 50.481 81.4018C51.8334 80.5487 53.0991 79.4598 53.81 77.9964C54.2296 77.0983 54.4238 75.8985 53.1858 75.6419ZM58.8244 73.5196C58.4048 73.9461 57.68 74.6882 57.8985 75.3679C58.0684 75.9297 58.6752 76.0129 59.1919 75.947C59.1919 75.0281 59.1919 74.1056 59.1919 73.1728C59.0463 73.3115 58.9319 73.4225 58.8244 73.5196ZM44.6726 80.5556C43.6496 83.5587 42.6335 86.5583 41.7111 89.3324C42.1585 89.5024 42.6855 89.3012 43.1606 88.84C44.4333 87.6124 44.9465 85.8474 45.2413 84.1586C45.4077 83.1148 45.8308 81.1937 44.6726 80.5556ZM51.6427 83.7078C51.067 83.2292 49.406 83.8153 48.1472 85.6428C46.7879 87.609 46.8295 89.2076 47.4086 89.5058C48.5564 90.0953 49.9955 88.6736 50.8763 87.4009C51.5629 86.4091 52.3432 84.2904 51.6496 83.7078H51.6427ZM55.1659 93.3342C54.1603 93.3585 53.5118 94.2462 53.1511 95.2831C52.8509 96.0468 52.673 96.8531 52.6241 97.6723C52.6032 98.1959 52.7281 98.9172 53.4078 98.9068C54.0874 98.8964 54.7532 97.9428 55.048 97.4053C55.426 96.7118 57.1633 93.2822 55.1659 93.3342Z" fill="#263238"/>
<path d="M48.3472 62.6864C35.2808 76.7446 26.1537 88.6736 26.7224 93.6914C27.9951 104.934 34.1468 106.869 35.1733 106.404C46.0238 101.65 53.6043 78.1872 57.1968 64.93C60.7616 51.7665 52.0889 58.6604 48.3472 62.6864Z" fill="#F7A9A0"/>
<path d="M26.0566 85.1715L45.5071 97.4126C45.5071 97.4126 55.8583 75.0145 57.8522 63.2658C59.4682 53.7573 56.6628 51.7252 47.8132 60.3391C39.4351 68.4778 26.0566 85.1715 26.0566 85.1715Z" fill="#4F46E5"/>
<path d="M34.3514 75.1424C33.311 76.3562 32.3366 77.5213 31.4385 78.6102C31.5849 79.1027 31.791 79.5756 32.0523 80.0181C32.2644 80.504 32.6298 80.9072 33.0926 81.1659C34.3895 81.7069 34.497 79.9903 34.5976 79.1303C34.7986 77.7986 34.7146 76.4394 34.3514 75.1424ZM39.9934 68.6335C39.531 69.1606 39.0686 69.6912 38.6063 70.2252C38.1555 70.7384 37.7047 71.2655 37.2608 71.7649L37.2157 71.8169C37.2851 72.4203 37.4376 73.3115 38.048 73.5508C38.7172 73.8282 39.2478 73.1242 39.4801 72.5902C39.761 71.9383 40.2465 69.9409 39.9934 68.6335ZM44.1546 80.4238C42.9167 80.077 42.022 81.374 41.5122 82.2894C40.6995 83.7722 40.3311 85.4577 40.4511 87.1443C40.5066 87.8378 40.68 88.8261 41.2452 89.1694C41.7376 89.5959 42.393 89.426 42.9791 88.8573C44.2483 87.6332 44.7719 85.8716 45.0597 84.1828C45.2574 83.0211 45.7533 80.8365 44.1546 80.4134V80.4238ZM56.583 61.8992C55.3866 62.8459 54.2804 64.3474 53.9856 65.9252C53.5973 66.8858 53.5106 67.8325 54.4087 68.0301C55.1508 68.1931 56.042 67.1806 56.4893 66.7228C56.8109 66.3911 57.1066 66.0352 57.3736 65.6582C57.5678 64.819 57.7204 64.018 57.8591 63.262C57.9724 62.5823 58.0648 61.942 58.1365 61.3409C57.6233 61.1224 56.954 61.5906 56.583 61.8888V61.8992ZM53.0355 75.6418C51.7039 75.3713 50.3861 76.5712 49.592 77.4901C48.9327 78.2203 48.4047 79.0592 48.0316 79.9695C47.7868 80.4457 47.7063 80.9895 47.8027 81.5161C48.198 82.8651 49.599 81.8629 50.3307 81.4017C51.5104 80.7055 52.5226 79.7584 53.2956 78.6275C53.5279 78.0068 53.7533 77.3826 53.9891 76.7584C54.0048 76.4852 53.9143 76.2166 53.7366 76.0085C53.5589 75.8005 53.3077 75.6691 53.0355 75.6418ZM47.9969 85.6427C46.6375 87.6089 46.6791 89.2076 47.2582 89.5058C47.8374 89.804 48.517 89.5786 49.1482 89.107C49.8417 87.4286 50.6115 85.5769 51.3814 83.6349C50.7156 83.302 49.1724 83.9227 47.9865 85.6427H47.9969Z" fill="#263238"/>
<path d="M45.4058 91.7178C44.2633 90.7847 43.0659 89.9209 41.8202 89.1309C40.5683 88.2674 39.2922 87.456 38.0057 86.6341C36.7191 85.8123 31.5349 82.7433 30.2275 81.9804C30.1686 81.9457 30.1166 82.0532 30.1721 82.0914C31.4239 82.9583 36.3828 86.3948 37.6381 87.1924C38.8934 87.99 40.1418 88.8014 41.4144 89.5574C42.6871 90.3134 43.9944 91.1838 45.3572 91.7802C45.385 91.7906 45.4266 91.7594 45.4058 91.7178Z" fill="#263238"/>
<path d="M43.3613 95.9899C44.204 96.458 45.0328 96.9401 45.865 97.4221L45.6882 97.481C48.1156 90.6219 50.7545 83.8459 53.4316 77.0838C54.3193 74.8298 55.2383 72.5758 56.1087 70.3218C54.1321 77.3301 51.4446 84.1129 48.7467 90.8681C47.8139 93.1602 46.8603 95.442 45.8512 97.703C45.0189 97.1377 44.1832 96.5725 43.3613 95.9899Z" fill="#263238"/>
<path d="M56.3644 72.0835C56.0439 73.5034 55.2785 74.7839 54.1797 75.7385C54.9114 74.5282 55.5911 73.2695 56.3644 72.0835Z" fill="#263238"/>
<path d="M90.9383 100.641C88.3479 95.7377 86.6418 84.7866 92.7416 63.6647C93.5877 60.7414 115.063 65.2876 114.325 68.4536C113.388 72.445 108.905 87.7273 108.43 88.8023C104.476 97.8808 92.6965 103.967 90.9383 100.641Z" fill="#F7A9A0"/>
<path d="M89.21 96.6143C88.6728 95.0239 88.3032 93.3816 88.1073 91.7144C88.0102 90.8821 87.927 90.0464 87.8923 89.2072C87.8586 88.3631 87.8771 87.5177 87.9478 86.6758C88.0688 85.0044 88.2737 83.3401 88.5616 81.6892C88.8354 80.0386 89.2165 78.4077 89.7024 76.8066C89.4112 78.4503 89.1996 80.101 89.0089 81.7516C88.8182 83.4023 88.6621 85.0598 88.5477 86.7139C88.5026 87.5393 88.461 88.368 88.4922 89.183C88.5234 89.9979 88.5616 90.8371 88.6275 91.6624C88.7523 93.2992 88.9187 94.9498 89.21 96.6143Z" fill="#263238"/>
<path d="M102.5 74.0745C99.9057 74.1022 92.6998 66.338 92.7414 63.6713C92.8558 56.4064 98.7232 48.7913 99.3023 43.5862C99.7982 39.2134 100.031 32.6663 102.392 32.8362C105.836 33.0859 106.536 41.4015 106.647 46.1974C108.891 44.8658 110.943 43.9295 112.344 43.822C116.984 43.4752 121.201 63.9868 117.74 67.2188C114.415 70.3363 105.09 74.0329 102.5 74.0745Z" fill="#F7A9A0"/>
<path d="M123.656 72.6181C120.535 61.1746 115.112 42.8511 113.624 41.3877C112.397 43.0176 109.348 60.9943 107.677 72.2054L106.983 72.1014C106.983 72.0251 108.142 64.3545 109.473 56.7186C112.206 41.0687 113.042 40.7947 113.444 40.663C113.512 40.6408 113.585 40.6334 113.657 40.6412C113.728 40.6489 113.798 40.6717 113.86 40.7081C115.854 41.7796 122.921 67.3263 124.319 72.4378L123.656 72.6181Z" fill="#263238"/>
<path d="M104.917 71.89L104.244 71.727C104.261 71.6542 106.096 64.0702 108.111 56.5175C112.234 41.0619 113.056 40.7914 113.451 40.6631C113.522 40.6409 113.596 40.634 113.67 40.643C113.743 40.652 113.814 40.6765 113.877 40.7151C115.767 41.8178 120.851 66.6814 121.853 71.6542L121.16 71.7929C118.923 60.6649 114.942 42.8373 113.593 41.3809C112.314 42.7888 107.618 60.7135 104.917 71.89Z" fill="#263238"/>
<path d="M99.1903 67.3393L134.689 67.2075L139.874 127.272L98.7568 129.346L99.1903 67.3393Z" fill="#4F46E5"/>
<path d="M98.7581 129.346L86.2188 126.988L94.2569 66.5874L96.5491 68.2692L99.1915 67.3399L98.7581 129.346Z" fill="#4F46E5"/>
<path opacity="0.2" d="M98.7581 129.346L86.2188 126.988L94.2569 66.5874L96.5491 68.2692L99.1915 67.3399L98.7581 129.346Z" fill="black"/>
<path opacity="0.1" d="M92.367 121.832L86.2188 126.988L94.2569 66.5874L96.5491 68.2692L92.367 121.832Z" fill="black"/>
<g opacity="0.1">
<path d="M98.5015 128.005C97.5721 126.905 96.6012 125.875 95.6302 124.846C94.6593 123.816 93.6605 122.831 92.6514 121.86L92.5127 121.725L92.3671 121.832C91.4412 122.494 90.5188 123.157 89.6172 123.871C88.7156 124.585 87.807 125.279 86.9297 126.045C87.9041 125.501 88.8577 124.911 89.8044 124.312C90.7511 123.712 91.6874 123.074 92.6202 122.429L92.3324 122.401C93.3311 123.39 94.3425 124.355 95.3667 125.296C96.3827 126.215 97.423 127.131 98.5015 128.005Z" fill="black"/>
<path d="M92.4678 122.276C92.9255 117.785 93.3174 113.291 93.7023 108.79C94.0872 104.288 94.4201 99.7908 94.7842 95.2897C95.1483 90.7886 95.4396 86.2736 95.7309 81.7655L96.1574 75C96.2788 72.7425 96.421 70.492 96.525 68.2275C96.2892 70.4712 96.095 72.7356 95.8766 74.9653L95.2905 81.7031C94.9056 86.2112 94.5692 90.7019 94.2086 95.203C93.8479 99.7041 93.5532 104.219 93.2619 108.727C92.9706 113.235 92.6897 117.767 92.4678 122.276Z" fill="black"/>
</g>
<path d="M109.032 71.8753L108.339 71.7921C108.339 71.7123 109.286 63.9966 110.42 56.3537C112.75 40.6415 113.568 40.5409 114.061 40.482C114.553 40.423 115.389 40.3155 120.441 55.7018C122.893 63.1782 125.171 70.7726 125.195 70.8489L124.53 71.05C121.253 60.1058 115.618 42.6146 114.127 41.2275C112.941 42.8296 110.388 60.7231 109.032 71.8753Z" fill="#263238"/>
<path d="M106.648 71.4802L105.954 71.3415C105.954 71.2652 107.504 63.657 109.228 56.1182C112.765 40.6382 113.604 40.5377 114.055 40.4822C114.599 40.4163 115.418 40.3192 118.764 55.5633C120.387 62.9531 121.826 70.4746 121.84 70.5404L121.146 70.6687C119.097 59.9188 115.424 42.7189 114.107 41.2277C112.813 42.7674 108.867 60.4424 106.648 71.4802Z" fill="#263238"/>
<path d="M101.524 68.5186L130.945 68.529L142.468 115.017L106.289 116.793L101.524 68.5186Z" fill="#455A64"/>
<path d="M101.525 68.5186L98.0299 70.6616L94.7009 70.0617L94.6836 120.691L106.29 116.793L101.525 68.5186Z" fill="#37474F"/>
<path opacity="0.1" d="M98.0299 70.6614L94.7009 70.0615L94.6836 120.69L100.277 113.155L98.0299 70.6614Z" fill="black"/>
<path d="M142.469 115.018L106.29 116.793L94.6836 120.691L130.238 118.874L142.469 115.018Z" fill="#263238"/>
<path d="M105.848 116.495C105.058 115.971 101.059 113.242 100.231 112.808L100.116 112.75L100.026 112.836C99.4573 113.391 95.8439 118.797 95.3203 119.425C95.941 118.936 99.7001 113.717 100.276 113.183L100.071 113.214C100.889 113.63 104.985 116.141 105.848 116.495Z" fill="#263238"/>
<path d="M100.037 113.111C99.9747 109.577 99.8534 106.047 99.7251 102.517C99.5968 98.987 99.4234 95.4569 99.2743 91.9267C99.1252 88.3966 98.9275 84.8699 98.7056 81.3398L98.3761 76.0515C98.2478 74.2864 98.1369 72.5248 97.9912 70.7632C98.019 72.5283 98.0779 74.2968 98.1195 76.0619L98.3033 81.3571C98.4316 84.8872 98.6015 88.4174 98.7541 91.9475C98.9067 95.4777 99.1009 99.0044 99.3263 102.531C99.5517 106.058 99.7563 109.588 100.037 113.111Z" fill="#263238"/>
<path d="M105.305 45.7981C104.643 48.125 107.764 47.5701 107.764 47.5701C107.764 47.5701 103.464 49.4496 103.714 52.1129C103.96 54.679 107.705 53.8745 107.975 53.8224C107.747 53.923 103.842 55.754 104.366 58.4033C104.913 61.1602 108.527 59.7072 108.77 59.6101C108.586 59.7731 106.193 61.9716 107.036 63.8927C108.509 67.1975 114.786 61.7497 117.695 62.0791C117.695 62.0791 117.695 67.0726 117.73 67.2183C117.73 67.2183 123.809 62.1589 124.034 58.2022C124.076 57.6279 123.921 57.0566 123.594 56.5829C123.266 56.1092 122.787 55.7617 122.235 55.5979C122.235 55.5979 124.374 54.1831 124.028 52.0816C123.847 51.0067 121.947 50.3478 121.947 50.3478C121.947 50.3478 123.615 49.1445 123.188 47.2962C122.842 45.8189 121.018 45.3785 121.018 45.3785C121.018 45.3785 122.079 43.4782 121.246 42.0842C119.617 39.258 106.72 40.815 105.305 45.7981Z" fill="#F7A9A0"/>
<path d="M120.764 45.2609C120.773 45.2609 120.782 45.2572 120.789 45.2507C120.795 45.2442 120.799 45.2354 120.799 45.2262C120.799 45.217 120.795 45.2082 120.789 45.2017C120.782 45.1952 120.773 45.1915 120.764 45.1915C116.402 44.6713 111.45 45.4342 107.587 47.5808C107.458 47.6536 107.517 47.8894 107.673 47.8374C112.084 46.3844 116.107 45.4447 120.764 45.2609Z" fill="#263238"/>
<path d="M122.043 50.3093C122.091 50.3093 122.091 50.2261 122.043 50.2192C117.535 49.7059 111.986 50.7185 107.825 53.7181C107.683 53.8221 107.658 54.0649 107.825 53.9504C110.741 52.1645 117.843 50.455 122.043 50.3093Z" fill="#263238"/>
<path d="M108.55 59.9231C112.652 57.1975 117.219 56.0636 122.074 55.5711C122.136 55.5711 122.119 55.4775 122.074 55.4671C119.647 55.0614 116.574 55.6994 114.237 56.393C112.054 56.9993 110.067 58.1661 108.474 59.7775C108.394 59.8573 108.463 59.9786 108.55 59.9231Z" fill="#263238"/>
<path d="M107.691 47.5356C107.539 47.6189 107.83 47.7472 107.691 47.8373C107.064 48.2153 103.478 50.8057 103.984 52.3003C104.39 53.4967 106.28 53.781 107.05 53.6042L108.981 53.1638L107.32 54.2526C106.576 54.727 105.915 55.3211 105.365 56.0108C104.837 56.7043 104.487 57.5054 104.64 58.2717C104.687 58.6483 104.862 58.9974 105.135 59.261C105.408 59.5247 105.763 59.6871 106.141 59.7212C106.99 59.7796 107.84 59.6196 108.61 59.2566L110.771 58.3307L109.037 59.905C108.555 60.3433 108.131 60.8408 107.775 61.3857C107.414 61.8936 107.213 62.4971 107.195 63.1196C107.199 63.3978 107.28 63.6695 107.429 63.9042C107.579 64.1388 107.791 64.3271 108.042 64.4478C108.641 64.6344 109.281 64.6453 109.886 64.479C111.194 64.2085 112.459 63.6536 113.743 63.1647C114.384 62.915 115.029 62.6619 115.684 62.4434C116.329 62.1843 117.022 62.0661 117.717 62.0966C117.033 62.1432 116.365 62.3222 115.75 62.6237C115.119 62.8907 114.502 63.189 113.881 63.4872C112.644 64.1247 111.35 64.6437 110.015 65.0373C109.294 65.2633 108.522 65.2742 107.795 65.0685C107.413 64.9126 107.084 64.6485 106.849 64.3085C106.615 63.9685 106.484 63.5673 106.474 63.1543C106.476 62.3876 106.706 61.6389 107.137 61.0043C107.524 60.3904 107.991 59.8297 108.524 59.3363L108.954 59.9848C108.05 60.4279 107.045 60.6264 106.041 60.5604C105.484 60.5059 104.964 60.2609 104.567 59.8669C104.196 59.4655 103.954 58.9616 103.873 58.4208C103.686 57.332 104.189 56.309 104.792 55.56C105.409 54.8112 106.145 54.1692 106.97 53.6597L107.241 54.3047C106.256 54.4954 104.12 54.4087 103.246 52.6297C102.438 50.1468 106.852 47.8859 107.691 47.5356Z" fill="#263238"/>
<path d="M107.763 47.5702C107.265 47.5605 106.772 47.4752 106.3 47.3171C106.108 47.258 105.936 47.1487 105.802 47.0004C105.667 46.8522 105.574 46.6706 105.534 46.4744C105.503 46.0343 105.601 45.5947 105.814 45.2087C106.029 44.7718 106.279 44.321 106.553 43.8667C106.085 44.1388 105.68 44.5062 105.364 44.9452C105.176 45.175 105.035 45.4398 104.95 45.7243C104.865 46.0088 104.837 46.3074 104.868 46.6027C104.934 46.9247 105.098 47.2187 105.336 47.4454C105.57 47.6476 105.856 47.7809 106.161 47.8303C106.709 47.916 107.27 47.8249 107.763 47.5702Z" fill="#263238"/>
<path d="M70.375 64.944C67.0806 65.6376 61.612 60.4637 59.5106 56.351C59.3684 56.0666 59.8782 53.1537 60.329 49.582C60.596 47.4147 60.8422 44.9942 60.9046 42.7679C60.9046 42.3102 74.7755 46.5581 74.7755 46.5581C74.7755 46.5581 73.2497 51.1875 73.1492 55.0645C73.1453 55.3711 73.1685 55.6774 73.2185 55.9799C73.2285 56.0291 73.2343 56.0789 73.2359 56.1291C73.4959 57.8733 73.5514 64.2852 70.375 64.944Z" fill="#F7A9A0"/>
<path d="M61.7539 42.8647C62.2914 46.6446 64.372 55.7994 71.8103 56.1808C72.2867 56.2102 72.7647 56.1986 73.239 56.1461C73.2467 56.0956 73.2467 56.0441 73.239 55.9936C73.191 55.6908 73.1666 55.3847 73.1662 55.0781C73.2564 51.1942 74.7648 46.5683 74.7648 46.5683C74.7648 46.5683 64.7674 43.4924 61.7539 42.8647Z" fill="#263238"/>
<path d="M59.1417 27.2142C57.6437 32.1696 60.2895 46.4601 63.8162 49.64C68.9311 54.2521 77.2883 54.6752 81.2034 48.5303C84.9936 42.5763 81.2034 24.01 77.2779 21.1353C71.4764 16.8561 61.3576 19.8973 59.1417 27.2142Z" fill="#F7A9A0"/>
<path d="M59.1417 27.2142C57.6437 32.1696 60.2895 46.4601 63.8162 49.64C68.9311 54.2521 77.2883 54.6752 81.2034 48.5303C84.9936 42.5763 81.2034 24.01 77.2779 21.1353C71.4764 16.8561 61.3576 19.8973 59.1417 27.2142Z" fill="#F7A9A0"/>
<path d="M71.0883 36.345C71.0883 36.3103 71.019 36.4039 71.0259 36.4421C71.1889 37.4096 71.2131 38.5435 70.3774 38.9839C70.3532 38.9839 70.3774 39.0463 70.3948 39.0359C71.4455 38.7412 71.4143 37.2362 71.0883 36.345Z" fill="#263238"/>
<path d="M70.0852 35.4511C68.5074 35.5447 68.8125 38.6934 70.2724 38.6067C71.7324 38.52 71.4133 35.3748 70.0852 35.4511Z" fill="#263238"/>
<path d="M76.9637 35.7215C76.9637 35.6834 77.0434 35.7631 77.0434 35.8013C77.0677 36.7826 77.2584 37.8992 78.1635 38.1732C78.1912 38.1732 78.1912 38.2321 78.1635 38.2287C77.0711 38.1385 76.8284 36.6509 76.9637 35.7215Z" fill="#263238"/>
<path d="M77.7807 34.6495C79.3447 34.4415 79.6429 37.5902 78.1934 37.7705C76.7439 37.9508 76.4664 34.8229 77.7807 34.6495Z" fill="#263238"/>
<path d="M68.669 32.905C69.0934 32.8123 69.5125 32.6965 69.9243 32.5582C70.4063 32.4264 70.8016 32.3709 71.1415 31.9791C71.2248 31.8574 71.2658 31.7118 71.2583 31.5646C71.2508 31.4174 71.1951 31.2767 71.0998 31.1642C70.6594 30.7064 70.0318 30.7238 69.4457 30.859C68.8528 30.9759 68.3248 31.3097 67.965 31.7953C67.5766 32.305 68.0933 33.0021 68.669 32.905Z" fill="#263238"/>
<path d="M79.225 32.2638C78.7927 32.2368 78.3621 32.187 77.935 32.1147C77.4426 32.0523 77.0403 32.0557 76.6485 31.7124C76.5487 31.6041 76.4875 31.4658 76.4744 31.3191C76.4612 31.1724 76.4968 31.0254 76.5756 30.901C76.9432 30.3878 77.5674 30.3115 78.1639 30.3635C78.7683 30.3936 79.3396 30.6484 79.7659 31.0778C79.8585 31.1808 79.9189 31.3085 79.9399 31.4453C79.9609 31.5822 79.9414 31.7221 79.884 31.8481C79.8266 31.974 79.7336 32.0804 79.6165 32.1543C79.4995 32.2281 79.3634 32.2662 79.225 32.2638Z" fill="#263238"/>
<path d="M71.3596 45.1259C71.6127 45.3339 71.8763 45.6287 72.23 45.6252C72.5976 45.5854 72.9523 45.4671 73.2703 45.2784C73.3015 45.2784 73.3362 45.2784 73.3188 45.3235C73.1983 45.5352 73.0213 45.7093 72.8076 45.8263C72.5939 45.9432 72.3519 45.9985 72.1086 45.9859C71.9051 45.9528 71.716 45.8599 71.5654 45.7192C71.4147 45.5784 71.3093 45.396 71.2625 45.1952C71.2486 45.1259 71.3214 45.0981 71.3596 45.1259Z" fill="#263238"/>
<path d="M72.1081 42.1155C72.3913 42.4783 72.7462 42.7789 73.1507 42.9984C73.5552 43.218 74.0007 43.3518 74.4592 43.3916C74.8597 43.4303 75.2638 43.4116 75.659 43.3361C75.7355 43.3285 75.811 43.3134 75.8844 43.291L76.096 43.239C76.1466 43.2239 76.1909 43.1928 76.2222 43.1502C76.2535 43.1076 76.27 43.056 76.2694 43.0032C76.273 42.9698 76.273 42.9361 76.2694 42.9027V42.816C76.2208 42.0635 76.044 40.9295 76.044 40.9295C76.3318 41.0405 77.7778 41.5433 77.7293 41.1549C77.2403 37.9265 76.6889 34.3339 75.5307 31.2234C75.5252 31.1999 75.5106 31.1796 75.4901 31.1669C75.4696 31.1542 75.4449 31.1502 75.4215 31.1557C75.398 31.1613 75.3777 31.1759 75.3651 31.1963C75.3524 31.2168 75.3484 31.2415 75.3539 31.265C75.7006 34.3859 76.5953 37.4271 76.9941 40.5585C76.5294 40.4302 75.7735 40.1805 75.3816 40.2117C75.2776 40.2533 75.7631 42.3998 75.7561 42.7397C75.7591 42.7522 75.7591 42.7653 75.7561 42.7778C74.5112 43.0518 73.5229 42.757 72.2225 42.0219C72.1254 41.9698 72.0526 42.0427 72.1081 42.1155Z" fill="#263238"/>
<path d="M75.1916 42.9964C74.8279 43.5701 74.3228 44.0406 73.7248 44.3627C73.3945 44.5271 73.021 44.5841 72.6567 44.5257C71.8591 44.3939 71.7724 43.6796 71.8626 43.0554C71.9117 42.7236 72.0002 42.3988 72.1261 42.0879C73.0247 42.7103 74.099 43.0287 75.1916 42.9964Z" fill="#263238"/>
<path d="M73.7248 44.3625C73.3945 44.5269 73.021 44.5839 72.6567 44.5255C71.8591 44.3937 71.7724 43.6794 71.8626 43.0552C72.7053 43.0656 73.5826 43.558 73.7248 44.3625Z" fill="#FF97B8"/>
<path d="M62.2731 39.4591C63.0083 38.7378 63.7469 34.1569 63.7469 34.1569C63.7469 34.1569 72.1596 30.3806 72.8012 22.5747C72.8012 22.5747 77.1254 26.9614 80.7769 27.8006C80.7769 27.8006 80.288 19.7936 72.874 19.048C72.874 19.048 65.5224 16.5929 59.6966 23.7295C53.8708 30.866 60.0434 39.7296 60.0434 39.7296L62.2731 39.4591Z" fill="#263238"/>
<path d="M72.5281 21.1184C72.9373 22.3494 72.7535 23.7816 72.4622 25.0265C72.1495 26.2974 71.6555 27.5166 70.9954 28.6468C70.363 29.8205 69.5431 30.8829 68.568 31.792C67.4236 32.7907 66.0157 33.4531 64.6356 34.0634C64.594 34.0842 64.6356 34.1605 64.6703 34.1431C66.1302 33.5467 67.597 32.9294 68.8558 31.9619C69.9302 31.081 70.8492 30.026 71.5745 28.841C72.3664 27.6803 72.903 26.3648 73.1489 24.9814C73.3673 23.6151 73.0934 22.3771 72.6946 21.0767C72.6495 20.9831 72.4969 21.0178 72.5281 21.1184Z" fill="#263238"/>
<path d="M74.1887 17.4151C72.6698 16.4406 69.0391 14.5126 65.8384 14.3981C62.5753 14.2837 58.3585 15.8234 56.8847 16.3089C55.671 16.7076 51.6034 17.1099 48.4859 18.816C46.433 19.9361 45.5106 22.9183 45.7915 24.3956C46.2111 26.6184 50.7746 25.3319 50.9931 26.1919C51.1318 26.7641 50.3377 29.6007 51.7248 30.9357C53.1119 32.2708 53.0529 32.0593 53.847 32.791C55.7716 34.5699 58.2025 24.0939 62.1383 21.285C66.0742 18.4762 74.1887 17.4151 74.1887 17.4151Z" fill="#4F46E5"/>
<path opacity="0.1" d="M73.8426 17.5741C73.8426 17.5741 66.0437 18.4757 62.1113 21.288C58.1789 24.1004 56.3549 34.1672 54.4268 32.3848C53.5772 31.5976 53.2686 30.585 53.1299 28.9413C54.0523 26.0631 55.9769 21.6591 58.9453 18.8849C61.7194 16.2807 65.9327 15.4172 70.2535 15.6079C71.5026 16.1621 72.7031 16.8198 73.8426 17.5741Z" fill="black"/>
<path d="M54.2017 37.3784C56.4106 34.1811 58.5779 29.0558 62.1116 25.3731C65.6452 21.6904 74.474 20.6327 75.6357 20.8893C78.4758 21.5101 78.8884 22.97 79.3808 22.7966C79.8733 22.6232 77.5291 18.8989 76.8009 18.2885C75.666 17.4697 74.3629 16.9141 72.9864 16.6622C71.7345 16.4923 63.9287 16.0311 60.6135 18.8607C57.2984 21.6904 51.8818 30.2453 52.232 32.7143C52.3152 33.3038 53.0088 33.7893 53.1197 34.625C53.2654 35.7277 53.2931 36.9761 53.4908 37.746C53.6676 38.3944 54.0768 37.576 54.2017 37.3784Z" fill="#4F46E5"/>
<path d="M63.0685 23.6226C62.4734 23.1166 61.9224 22.5609 61.4213 21.9616C60.9056 21.3638 60.4622 20.7073 60.1001 20.0058C60.0988 19.9994 60.0962 19.9933 60.0924 19.9879C60.0885 19.9826 60.0836 19.9782 60.0779 19.975C60.0721 19.9718 60.0658 19.9699 60.0592 19.9694C60.0527 19.9689 60.0461 19.9698 60.04 19.9721C60.0339 19.9744 60.0283 19.978 60.0237 19.9827C60.0191 19.9874 60.0156 19.993 60.0134 19.9992C60.0112 20.0054 60.0103 20.0119 60.0109 20.0185C60.0115 20.025 60.0136 20.0313 60.0169 20.037C60.2817 20.8067 60.6681 21.529 61.1612 22.1766C61.6646 22.8103 62.2821 23.3442 62.9818 23.7509C63.0615 23.7925 63.1309 23.6781 63.0685 23.6226Z" fill="#263238"/>
<path d="M54.4675 35.7905C54.4097 35.5871 54.3414 35.3868 54.2629 35.1905C54.1898 34.9652 54.141 34.7327 54.1172 34.497C54.1338 34.0428 54.1012 33.5883 54.0201 33.1411C53.8953 32.7908 53.7313 32.4558 53.5312 32.1424C53.2837 31.8008 53.1613 31.3845 53.1844 30.9634C53.1844 30.9079 53.1047 30.8905 53.0977 30.9634C52.9625 31.7783 53.4202 32.4476 53.6664 33.1897C53.826 33.6647 53.7358 34.1606 53.8121 34.6461C53.8508 35.1069 54.0382 35.5426 54.3461 35.8875C54.3843 35.9014 54.4848 35.8633 54.4675 35.7905Z" fill="#263238"/>
<path d="M55.8612 33.0263C55.6566 32.6795 55.4242 32.3605 55.2509 31.9859C55.0861 31.6299 54.9471 31.2625 54.8347 30.8867C54.7168 30.5191 54.6336 30.1411 54.5261 29.7701C54.3978 29.3331 54.2175 28.9066 54.11 28.4627C54.11 28.4038 54.0129 28.435 54.0267 28.4939C54.1342 28.9517 54.1655 29.4337 54.2591 29.8984C54.3487 30.2986 54.4645 30.6924 54.6059 31.0774C54.7315 31.4493 54.8929 31.8082 55.0879 32.1489C55.2721 32.4983 55.5259 32.8062 55.8334 33.054C55.8372 33.0546 55.8411 33.0543 55.8447 33.0531C55.8483 33.0519 55.8517 33.0499 55.8544 33.0472C55.8571 33.0445 55.8591 33.0412 55.8603 33.0375C55.8615 33.0339 55.8618 33.03 55.8612 33.0263Z" fill="#263238"/>
<path d="M57.2641 30.5511C56.7738 29.9826 56.3685 29.346 56.0608 28.6612C55.7661 27.9919 55.5129 27.3018 55.2633 26.6152C55.2633 26.5667 55.1662 26.584 55.1766 26.6152C55.2869 27.3685 55.4884 28.1056 55.7765 28.8103C55.9233 29.1503 56.1083 29.4726 56.3278 29.7708C56.5837 30.0787 56.8747 30.3557 57.1948 30.5962C57.2329 30.6447 57.2988 30.5927 57.2641 30.5511Z" fill="#263238"/>
<path d="M58.7295 28.1993C58.4781 27.9623 58.2754 27.6784 58.133 27.3636C57.9458 27.0238 57.7689 26.677 57.6025 26.3233C57.4429 25.9765 57.2765 25.6575 57.117 25.3211C56.934 24.9934 56.8228 24.6305 56.791 24.2565C56.791 24.2445 56.7863 24.2331 56.7778 24.2246C56.7694 24.2162 56.7579 24.2114 56.7459 24.2114C56.734 24.2114 56.7225 24.2162 56.7141 24.2246C56.7056 24.2331 56.7009 24.2445 56.7009 24.2565C56.6733 24.6299 56.7217 25.005 56.843 25.3592C56.9556 25.7552 57.103 26.1405 57.2834 26.5105C57.4631 26.8767 57.6658 27.2311 57.8903 27.5717C58.0677 27.8885 58.3374 28.1437 58.6636 28.3033C58.726 28.3276 58.7884 28.2479 58.7295 28.1993Z" fill="#263238"/>
<path d="M60.0095 25.1237C59.798 24.8394 59.5899 24.555 59.4027 24.2533C59.2154 23.9516 59.0559 23.6465 58.8756 23.3344C58.6953 23.0223 58.5288 22.6859 58.3624 22.3495C58.357 22.3403 58.3486 22.3333 58.3385 22.3298C58.3285 22.3262 58.3175 22.3263 58.3076 22.33C58.2976 22.3338 58.2893 22.3409 58.2841 22.3502C58.2789 22.3595 58.2771 22.3703 58.2791 22.3808C58.3672 22.7361 58.4831 23.084 58.6259 23.4211C58.7729 23.7574 58.9433 24.083 59.1357 24.3955C59.3238 24.7055 59.5299 25.0042 59.7529 25.2902C59.963 25.5872 60.2278 25.8414 60.5332 26.0392C60.5782 26.0635 60.6441 26.0115 60.6199 25.9629C60.4447 25.6636 60.2403 25.3825 60.0095 25.1237Z" fill="#263238"/>
<path d="M65.3741 22.4227C65.1626 22.0482 64.9545 21.6841 64.7083 21.3338C64.4565 20.971 64.1832 20.6236 63.8899 20.2935C63.334 19.6484 62.7083 19.0669 62.0243 18.5596C61.9861 18.5319 61.9237 18.5596 61.9584 18.6186C63.0576 19.9121 64.2124 21.1639 65.3013 22.4678C65.3029 22.4747 65.3062 22.4811 65.3109 22.4865C65.3155 22.492 65.3214 22.4962 65.328 22.4989C65.3345 22.5016 65.3417 22.5027 65.3488 22.5021C65.3559 22.5016 65.3628 22.4993 65.3688 22.4955C65.3749 22.4918 65.38 22.4867 65.3837 22.4806C65.3873 22.4745 65.3895 22.4676 65.3901 22.4605C65.3906 22.4534 65.3894 22.4462 65.3866 22.4397C65.3838 22.4331 65.3795 22.4273 65.3741 22.4227Z" fill="#263238"/>
<path d="M67.371 20.3761C67.1512 20.0112 66.8919 19.6716 66.5977 19.3635C65.9549 18.7364 65.2442 18.1828 64.4789 17.7129C64.4304 17.6817 64.3749 17.7406 64.42 17.7788C65.0442 18.3544 65.6788 18.9197 66.2683 19.5335C66.5652 19.8309 66.8454 20.1447 67.1075 20.4732C67.3641 20.82 67.5409 21.1876 67.7837 21.5135C67.788 21.5193 67.7941 21.5237 67.8011 21.5258C67.808 21.528 67.8155 21.5279 67.8224 21.5256C67.8293 21.5233 67.8353 21.5189 67.8395 21.513C67.8438 21.5071 67.8461 21.5 67.8461 21.4927C67.7607 21.0935 67.5994 20.7145 67.371 20.3761Z" fill="#263238"/>
<path d="M69.7812 19.6796C69.5851 19.3226 69.3527 18.9868 69.0877 18.6775C68.5774 18.0887 67.9713 17.5904 67.2949 17.2037C67.2498 17.1759 67.2047 17.2453 67.2429 17.2765C67.8373 17.7821 68.3872 18.3378 68.8866 18.9375C69.1362 19.2358 69.3686 19.5444 69.6078 19.8496C69.8228 20.1789 70.0543 20.4972 70.3014 20.8032C70.3222 20.824 70.3569 20.8032 70.3499 20.7685C70.1951 20.3884 70.0047 20.0238 69.7812 19.6796Z" fill="#263238"/>
<path d="M71.616 18.5902C71.3733 18.3163 71.1098 18.0527 70.8497 17.7927C70.6032 17.5241 70.3152 17.297 69.9966 17.1199C69.9481 17.0922 69.9169 17.1581 69.9481 17.1927C70.4301 17.7198 70.9017 18.2573 71.3698 18.7948C71.775 19.3184 72.1237 19.8833 72.4102 20.4802C72.4102 20.5044 72.4656 20.4802 72.4622 20.4593C72.3751 19.7652 72.0802 19.1137 71.616 18.5902Z" fill="#263238"/>
<path d="M73.7075 18.4826C73.2684 17.9165 72.726 17.4387 72.1089 17.0747C72.0638 17.0504 72.0152 17.1232 72.0568 17.151C72.6097 17.5719 73.095 18.0747 73.496 18.6421C73.9063 19.2042 74.2551 19.8087 74.5363 20.4453C74.5363 20.4765 74.6022 20.4696 74.5952 20.4453C74.4579 19.7303 74.1537 19.0579 73.7075 18.4826Z" fill="#263238"/>
<path d="M76.1616 20.113C76.1176 19.9604 76.0631 19.8109 75.9986 19.6657C75.8654 19.3736 75.7028 19.0959 75.5131 18.8369C75.1154 18.3196 74.667 17.8433 74.1746 17.4151C74.1654 17.4073 74.1535 17.4035 74.1414 17.4044C74.1294 17.4054 74.1183 17.4111 74.1104 17.4203C74.1026 17.4295 74.0988 17.4415 74.0998 17.4535C74.1007 17.4655 74.1064 17.4767 74.1156 17.4845C74.5845 17.918 75 18.4058 75.3536 18.9375C75.5268 19.1952 75.6809 19.4653 75.8148 19.7454C75.8807 19.8807 75.9397 20.0229 75.9952 20.165C76.0344 20.3087 76.0878 20.4481 76.1547 20.5812C76.159 20.5883 76.1651 20.5943 76.1724 20.5984C76.1797 20.6025 76.1879 20.6047 76.1963 20.6047C76.2047 20.6047 76.2129 20.6025 76.2202 20.5984C76.2275 20.5943 76.2336 20.5883 76.2379 20.5812C76.2424 20.4217 76.2165 20.2628 76.1616 20.113Z" fill="#263238"/>
<path d="M77.7603 20.5153C77.642 20.276 77.5088 20.0444 77.3615 19.8217C77.2192 19.6017 77.0616 19.392 76.8899 19.1941C76.713 18.9895 76.5431 18.7918 76.3593 18.5803C76.3559 18.5746 76.3513 18.5696 76.3458 18.5659C76.3403 18.5621 76.334 18.5597 76.3274 18.5586C76.3208 18.5576 76.3141 18.5581 76.3077 18.56C76.3013 18.5619 76.2954 18.5651 76.2904 18.5696C76.2854 18.574 76.2815 18.5795 76.2789 18.5857C76.2763 18.5918 76.2751 18.5985 76.2754 18.6051C76.2757 18.6118 76.2775 18.6183 76.2806 18.6242C76.2837 18.6301 76.2881 18.6352 76.2934 18.6393C76.472 18.844 76.6332 19.0632 76.7754 19.2947C76.9107 19.5131 77.0529 19.7246 77.1881 19.9396C77.3233 20.1546 77.4655 20.3696 77.6008 20.5846C77.7231 20.8168 77.8574 21.0425 78.003 21.2609C78.0308 21.2955 78.0758 21.2609 78.0654 21.2262C77.9909 20.9784 77.8886 20.7399 77.7603 20.5153Z" fill="#263238"/>
<path d="M62.6474 39.002C62.6474 39.002 59.3115 34.4524 57.2412 35.6522C55.171 36.852 57.7475 43.4997 60.2304 44.3597C60.5413 44.4922 60.8757 44.5605 61.2137 44.5603C61.5516 44.5602 61.886 44.4916 62.1967 44.3588C62.5074 44.2259 62.7881 44.0315 63.0217 43.7874C63.2553 43.5432 63.437 43.2542 63.556 42.9379L62.6474 39.002Z" fill="#F7A9A0"/>
<path d="M58.0264 37.5381C57.9882 37.5381 57.9813 37.5901 58.0264 37.604C59.7602 38.2663 60.7139 39.8476 61.3866 41.4913C60.8595 40.8636 60.1521 40.5307 59.306 41.1619C59.2644 41.1931 59.306 41.2624 59.3545 41.252C59.6562 41.1489 59.9824 41.1415 60.2884 41.2309C60.5944 41.3203 60.8654 41.5021 61.0641 41.7514C61.3927 42.1706 61.6752 42.6241 61.9068 43.1038C61.99 43.2564 62.2535 43.1697 62.205 42.9928C62.205 42.9928 62.205 42.9651 62.205 42.9512C62.1773 40.7492 60.3983 37.708 58.0264 37.5381Z" fill="#263238"/>
<path d="M60.9419 68.8001C62.1764 73.7728 58.9827 79.3143 58.9827 79.3143C50.4486 83.056 38.7311 79.8102 38.4537 79.2519C38.4537 79.2519 38.1069 75.4998 37.4793 74.4421C36.8516 73.3845 32.2291 67.9471 30.9773 66.5877C29.7254 65.2284 29.3267 59.1252 29.7497 57.9843C30.1728 56.8434 37.8469 56.996 39.6015 57.7797C42.3584 58.9415 45.194 59.9067 48.0871 60.6683C48.0871 60.6683 50.8786 48.7775 56.4686 48.9786C59.0347 49.0722 55.9345 54.1802 55.5115 59.3818C55.2653 62.4091 60.0195 65.0897 60.9419 68.8001Z" fill="#F7A9A0"/>
<path d="M36.0645 62.2563C36.8759 62.7557 37.9058 62.7938 38.8386 63.0192L41.6856 63.6192C43.592 64.0316 45.4705 64.5632 47.3103 65.2109C48.2348 65.5533 49.1271 65.9769 49.977 66.4766C50.8719 66.9645 51.6048 67.7034 52.0854 68.6023C53.0144 70.3572 53.334 72.3712 52.9939 74.3275C53.1147 72.4063 52.6634 70.4925 51.697 68.8277C50.7607 67.1909 48.8604 66.4419 47.1022 65.7657C45.2953 65.1047 43.4563 64.5353 41.592 64.0596C39.7402 63.4874 37.7463 63.2273 36.0645 62.2563Z" fill="#263238"/>
<path d="M32.4033 68.7205L31.793 68.391C31.9351 68.131 35.2607 62.0208 38.5897 60.8661C39.2035 60.6511 40.1814 60.4014 41.3153 60.1171C44.5889 59.2848 50.0679 57.8977 50.3002 56.1673C50.4008 55.4113 49.3362 54.6415 48.4277 54.1283L48.7744 53.5249C50.3904 54.4369 51.1186 55.3316 50.9938 56.2609C50.7025 58.456 45.3795 59.805 41.4922 60.7863C40.3756 61.0707 39.4116 61.3169 38.822 61.518C35.7531 62.5861 32.438 68.6615 32.4033 68.7205Z" fill="#263238"/>
<path d="M31.0196 67.6455L30.4717 67.219C30.6555 66.9831 34.9797 61.4487 38.2706 60.3008C38.9641 60.0581 40.164 59.7946 41.5407 59.4894C44.7206 58.7958 50.0366 57.6134 50.2655 56.0702C50.3487 55.5223 49.7106 54.853 48.4276 54.1283L48.7744 53.5249C50.373 54.4265 51.0908 55.29 50.959 56.1708C50.6816 58.0364 46.6001 59.0837 41.6967 60.1691C40.3443 60.4673 39.1722 60.7239 38.5064 60.9562C35.4063 62.0347 31.0647 67.59 31.0196 67.6455Z" fill="#263238"/>
<path d="M41.6792 53.1536C41.6792 53.1536 41.2075 51.0348 42.0259 49.5437C42.8443 48.0526 46.1525 47.6399 47.3732 47.9069C48.5938 48.174 53.4278 51.2672 54.8496 53.0045C56.2713 54.7418 55.668 57.5125 52.9666 56.819C50.2652 56.1255 41.6792 53.1536 41.6792 53.1536Z" fill="#F7A9A0"/>
<path d="M52.5471 50.9307C54.5168 51.971 57.3707 54.8388 54.8947 56.8466C53.251 57.8037 51.0213 56.0976 49.3672 55.7439C50.4457 55.8618 51.4686 56.2744 52.4881 56.5519C53.4244 56.8154 54.6173 56.9749 55.1479 55.9831C56.2576 54.0516 53.903 52.0577 52.5471 50.9307Z" fill="#263238"/>
<path d="M39.8926 49.453C39.8926 49.453 40.9329 47.5561 42.5489 46.984C44.1648 46.4118 46.9043 48.2948 47.6429 49.3004C48.3816 50.306 49.9525 55.8267 49.8658 58.0703C49.7791 60.3139 47.4904 61.9957 45.9195 59.6932C44.3486 57.3906 39.8926 49.453 39.8926 49.453Z" fill="#F7A9A0"/>
<path d="M45.584 47.6328C46.6894 48.2967 47.6231 49.2114 48.3096 50.303C49.0309 51.3953 49.3499 52.7304 49.5719 53.9406C49.8614 55.1849 50.031 56.4541 50.0782 57.7308C50.1271 58.3872 49.9526 59.0407 49.583 59.5853C49.2135 60.1299 48.6706 60.5335 48.0426 60.7304C48.6137 60.4927 49.0872 60.0684 49.3858 59.5266C49.6844 58.9849 49.7903 58.3579 49.6863 57.7482C49.5241 56.5075 49.2925 55.2768 48.9928 54.062C48.7396 52.8067 48.5246 51.6346 47.89 50.5422C47.2976 49.4449 46.517 48.4602 45.584 47.6328Z" fill="#263238"/>
<path d="M34.585 52.0785C34.585 52.0785 35.1329 49.88 36.6275 48.8848C38.122 47.8895 41.4823 49.0894 42.5226 49.9251C43.5629 50.7608 46.7428 55.9589 47.2872 58.2476C47.8317 60.5363 45.9452 62.8458 43.6773 60.9143C41.4095 58.9828 34.585 52.0785 34.585 52.0785Z" fill="#F7A9A0"/>
<path d="M39.9385 48.7603C41.2646 49.15 42.484 49.838 43.5033 50.7715C44.5436 51.6905 45.2372 52.9701 45.8267 54.1387C46.4735 55.326 47.0064 56.5718 47.4184 57.8596C47.6545 58.5088 47.6584 59.2197 47.4296 59.8715C47.2007 60.5233 46.7532 61.0757 46.163 61.4348C46.6875 61.0471 47.0598 60.4882 47.2156 59.8549C47.3714 59.2216 47.3008 58.5538 47.0161 57.9671C46.5077 56.7451 45.9288 55.5536 45.2822 54.3988C44.665 53.1885 44.1102 52.0373 43.1531 51.1079C42.2257 50.145 41.138 49.3506 39.9385 48.7603Z" fill="#263238"/>
<path d="M29.6416 59.1182C29.711 57.2665 30.4773 53.7363 32.2459 51.8152C34.0144 49.8941 40.506 53.341 42.2641 54.9743C44.0223 56.6076 46.6196 62.1525 45.0938 63.12C43.568 64.0875 39.0842 59.4581 37.9572 58.716C36.8302 57.9739 29.6416 59.1182 29.6416 59.1182Z" fill="#F7A9A0"/>
<path d="M33.7891 60.2246C34.6248 59.2016 35.9044 58.3937 37.3227 58.5254C38.7653 58.7266 39.7501 59.805 40.7904 60.6269C41.8307 61.4487 42.7774 62.4752 43.9114 63.0543C44.4835 63.3074 45.0869 63.4011 45.1875 62.8532C45.3117 62.2382 45.2975 61.6033 45.1459 60.9945V61.0257C44.7638 59.8039 44.2753 58.618 43.686 57.4816C43.086 56.3581 42.3856 55.29 41.3591 54.5757C40.3147 53.8506 39.2089 53.2182 38.0544 52.6858C36.8985 52.1148 35.7321 51.5877 34.5554 51.1045C36.9828 51.9021 39.4102 52.769 41.6227 54.1908C42.7705 54.9017 43.5403 56.0772 44.168 57.2146C44.7911 58.3758 45.311 59.5896 45.7215 60.8419V60.8592C45.895 61.5712 45.895 62.3145 45.7215 63.0265C45.6556 63.2393 45.5362 63.4315 45.3747 63.5848C45.1985 63.7349 44.9751 63.8184 44.7436 63.8206C44.3604 63.827 43.9819 63.7351 43.6443 63.5536C42.389 62.8601 41.4423 61.8926 40.4575 60.984C39.4727 60.0755 38.5052 59.0421 37.2568 58.8271C36.0084 58.6121 34.6976 59.2641 33.7891 60.2246Z" fill="#263238"/>
<path d="M33.1453 105.232C31.2277 100.031 30.9919 93.442 39.845 73.3292C41.0691 70.555 60.8351 72.8506 60.4363 76.0791C59.6492 82.4042 54.2256 92.5508 52.0583 95.8243C46.5897 104.078 34.4457 108.752 33.1453 105.232Z" fill="#F7A9A0"/>
<path d="M32.2301 101.705C31.94 100.185 31.8237 98.6362 31.8834 97.0895C31.9146 96.3197 31.9596 95.5498 32.0498 94.7835C32.1451 94.0138 32.2922 93.2515 32.4902 92.5017C32.8624 91.005 33.3174 89.5301 33.853 88.0838C34.3737 86.6277 34.9972 85.2105 35.7187 83.8428C35.1812 85.2853 34.72 86.7453 34.2761 88.2121C33.8322 89.679 33.423 91.1493 33.0693 92.63C32.8994 93.3721 32.7225 94.1142 32.6393 94.8563C32.5561 95.5984 32.459 96.3682 32.3966 97.1276C32.2611 98.6495 32.2055 100.177 32.2301 101.705Z" fill="#263238"/>
<path d="M24.2536 115.537C20.2484 120.961 16.0698 127.255 15.0537 134.059C15.0537 134.159 15.2063 134.194 15.2306 134.093C15.6918 132.238 16.2839 130.417 17.0026 128.645C19.6346 127.921 22.2042 127.328 23.5913 124.713C25.0026 122.026 24.8223 118.523 24.5553 115.596C24.5379 115.44 24.3229 115.433 24.2536 115.537Z" fill="#4F46E5"/>
<path d="M17.029 128.594C18.8287 124.557 21.1382 120.503 24.0754 117.185C24.0962 117.16 24.1274 117.185 24.1066 117.216C22.1855 119.581 20.7256 122.154 19.2969 124.776C20.625 123.43 22.071 122.223 23.3333 120.795C23.3576 120.767 23.3957 120.795 23.3749 120.836C22.1265 122.334 20.7637 123.957 19.1408 125.067C18.7039 125.871 18.2635 126.68 17.8196 127.494C17.9271 127.432 18.0415 127.38 18.1664 127.324C18.1872 127.324 18.2045 127.342 18.1664 127.352C18.0415 127.414 17.9202 127.48 17.7919 127.536C17.5803 127.917 17.3723 128.299 17.1538 128.68C17.1087 128.753 16.9908 128.68 17.029 128.594Z" fill="#263238"/>
<path d="M18.3565 127.186C19.4343 126.584 20.4628 125.897 21.4323 125.133C21.4566 125.112 21.4947 125.15 21.4705 125.171C20.5305 125.98 19.5008 126.678 18.4015 127.252C18.3565 127.286 18.3183 127.214 18.3565 127.186Z" fill="#263238"/>
<path d="M14.5811 133.046C14.5811 133.065 14.5887 133.084 14.6024 133.098C14.6161 133.111 14.6346 133.119 14.6539 133.119C14.6732 133.119 14.6917 133.111 14.7054 133.098C14.719 133.084 14.7267 133.065 14.7267 133.046C14.7475 130.806 14.7267 128.538 14.7614 126.305C15.337 125.147 16.5681 124.509 17.4246 123.579C18.0407 122.901 18.5771 122.154 19.0232 121.353C20.0533 119.44 20.6833 117.338 20.875 115.173C21.1108 112.777 20.2023 104.871 19.1932 105.148C18.6695 105.29 16.9738 109.205 16.523 110.499C15.794 112.638 15.2601 114.839 14.9278 117.074C14.1095 122.327 14.1962 127.74 14.5811 133.046Z" fill="#4F46E5"/>
<path d="M14.5644 123.385C14.6858 120.552 15.3238 117.688 15.9238 114.938C16.5653 111.977 17.3109 109.188 18.8436 106.546C18.8713 106.498 18.9442 106.546 18.9199 106.591C17.9035 108.646 17.1162 110.807 16.5722 113.034C16.6763 112.875 16.7976 112.722 16.919 112.573C16.9606 112.511 17.0577 112.573 17.0161 112.628C16.881 112.868 16.7218 113.094 16.541 113.301C16.541 113.301 16.541 113.301 16.5202 113.301C15.9966 115.417 15.6221 117.584 15.2996 119.741L15.3689 119.658C15.3689 119.64 15.414 119.658 15.4036 119.685L15.2753 119.897C15.1123 120.996 14.9632 122.088 14.8106 123.174C16.763 121.506 18.4309 119.54 19.3707 117.116C18.4483 119.63 16.9988 121.863 14.7621 123.389L14.6372 124.266C14.6372 124.325 14.5332 124.308 14.5332 124.249C14.5332 123.992 14.5332 123.732 14.5575 123.476C14.5513 123.469 14.5465 123.462 14.5435 123.454C14.5405 123.446 14.5392 123.437 14.5399 123.429C14.5405 123.42 14.5431 123.412 14.5473 123.404C14.5516 123.397 14.5574 123.39 14.5644 123.385Z" fill="#263238"/>
<path d="M15.4834 119.276C16.9711 117.05 18.3582 114.889 19.4609 112.427C19.4609 112.399 19.5199 112.427 19.5095 112.448C18.5905 114.875 17.3005 117.369 15.5597 119.335C15.5216 119.373 15.4522 119.321 15.4834 119.276Z" fill="#263238"/>
<path d="M17.4654 111.872C18.0826 110.78 18.7346 109.715 19.3172 108.602C19.3172 108.571 19.3761 108.602 19.3622 108.63C18.8842 109.793 18.2795 110.9 17.559 111.931C17.5507 111.942 17.5384 111.95 17.5247 111.952C17.5109 111.955 17.4967 111.952 17.4849 111.945C17.4731 111.937 17.4645 111.926 17.4609 111.912C17.4573 111.899 17.4589 111.884 17.4654 111.872Z" fill="#263238"/>
<path d="M13.0621 126.569C13.0321 128.054 12.8567 129.532 12.5384 130.983C12.5627 131.143 12.587 131.302 12.6078 131.465C13.0658 129.862 13.3312 128.21 13.3984 126.545C13.4112 126.522 13.4179 126.496 13.4179 126.47C13.4179 126.444 13.4112 126.418 13.3984 126.395C13.4619 124.163 13.2958 121.929 12.9026 119.73C12.209 115.614 10.6936 111.665 7.82234 108.578C7.79888 108.558 7.77091 108.543 7.74065 108.535C7.71039 108.527 7.67868 108.526 7.64804 108.532C7.61739 108.538 7.58866 108.552 7.56414 108.571C7.53962 108.591 7.51997 108.616 7.50677 108.644C6.34855 111.588 6.75081 115.105 7.73911 118.042C8.28221 119.632 9.05566 121.135 10.0347 122.501C11.0092 123.885 12.2645 125.05 13.0621 126.569Z" fill="#4F46E5"/>
<path d="M8.16926 109.947C10.8914 114.365 12.7848 119.601 13.0241 124.817C13.0241 124.91 12.8715 124.935 12.8576 124.838C12.7952 124.369 12.7224 123.905 12.6461 123.45C11.5191 122.372 10.3643 121.235 9.55982 119.889C9.55982 119.865 9.57715 119.837 9.59796 119.858C10.5319 121.005 11.5335 122.096 12.5975 123.124C12.3999 121.97 12.171 120.836 11.904 119.716L11.689 119.463C11.6405 119.407 11.7202 119.327 11.7688 119.383L11.8346 119.456C11.4512 117.926 10.9765 116.42 10.4129 114.948C9.71933 114.122 8.94603 113.408 8.43974 112.413C8.43698 112.408 8.43635 112.402 8.43797 112.396C8.4396 112.391 8.44335 112.386 8.44841 112.383C8.45347 112.38 8.45942 112.38 8.46494 112.381C8.47047 112.383 8.47513 112.387 8.47789 112.392C8.88361 112.961 9.27546 113.533 9.73667 114.06C9.91699 114.271 10.1216 114.469 10.3088 114.674C9.68361 113.072 8.93944 111.52 8.08257 110.03C8.07615 110.018 8.07383 110.005 8.07597 109.991C8.0781 109.978 8.08457 109.965 8.09439 109.956C8.1042 109.946 8.11683 109.94 8.13035 109.939C8.14387 109.937 8.15753 109.94 8.16926 109.947Z" fill="#263238"/>
<path d="M8.72126 115.395C9.60206 116.581 10.6042 117.708 11.4192 118.932C11.4434 118.967 11.3914 119.005 11.3637 118.977C10.3163 117.911 9.40439 116.719 8.64844 115.43C8.64844 115.391 8.69352 115.36 8.72126 115.395Z" fill="#263238"/>
<path d="M11.5427 119.206L11.5809 119.244C11.6051 119.269 11.5808 119.31 11.5392 119.286L11.5011 119.248C11.4983 119.242 11.4974 119.235 11.4985 119.229C11.4996 119.223 11.5026 119.217 11.5072 119.212C11.5118 119.208 11.5176 119.205 11.524 119.204C11.5303 119.202 11.5369 119.203 11.5427 119.206Z" fill="#263238"/>
<path d="M3.90758 118.436C4.2283 120.903 5.22166 123.234 6.77886 125.174C7.41991 125.935 8.21235 126.554 9.10571 126.991C10.1148 127.491 11.1863 128.066 12.2267 128.475C12.7212 129.739 13.0894 131.048 13.3259 132.384C13.3571 132.269 13.3918 132.151 13.4265 132.037C12.7572 126.284 9.03288 121.367 4.27169 118.211C4.23483 118.183 4.1902 118.166 4.14376 118.164C4.09732 118.162 4.05126 118.173 4.01172 118.198C3.97218 118.222 3.94104 118.258 3.92244 118.301C3.90383 118.343 3.89865 118.391 3.90758 118.436Z" fill="#4F46E5"/>
<path d="M5.55256 120.139C5.52135 120.108 5.55256 120.049 5.60111 120.073C8.21814 122.019 10.3048 124.591 11.6696 127.553C11.7043 127.629 11.5968 127.699 11.5517 127.622C11.3298 127.234 11.1044 126.856 10.8582 126.485C9.76932 126.28 8.73941 125.517 7.93489 124.789C7.91062 124.772 7.93489 124.737 7.9661 124.758C8.38215 125.142 8.84463 125.473 9.34279 125.743C9.78319 125.965 10.2617 126.107 10.7299 126.287C10.3276 125.649 9.90687 125.034 9.46763 124.442C8.30001 123.988 7.2062 123.363 6.22184 122.587C6.19409 122.566 6.22184 122.514 6.25305 122.535C7.23612 123.13 8.25013 123.671 9.29077 124.158C8.62704 123.283 7.9114 122.448 7.14772 121.658C6.77667 121.464 6.40216 121.269 6.04498 121.058C6.01377 121.058 6.04498 120.992 6.06926 121.002C6.36535 121.108 6.64814 121.248 6.91191 121.419C6.47151 120.985 6.02764 120.541 5.55256 120.139Z" fill="#263238"/>
<path d="M5.65234 122.123C5.71769 122.161 5.77924 122.205 5.83612 122.255C5.83612 122.255 5.83613 122.293 5.81532 122.286C5.74872 122.254 5.68492 122.217 5.62459 122.175C5.58992 122.154 5.62113 122.102 5.65234 122.123Z" fill="#263238"/>
<path d="M20.8469 144.84H7.79785L8.85204 132.96L9.08438 130.338H19.5604L19.7927 132.96L20.8469 144.84Z" fill="#455A64"/>
<path d="M19.7931 132.96L8.92871 132.097L9.08476 130.338H19.5608L19.7931 132.96Z" fill="#37474F"/>
<path d="M20.1898 128.507H8.46191V131.101H20.1898V128.507Z" fill="#455A64"/>
<path d="M3.90332 144.84C47.5967 144.628 96.613 144.625 140.31 144.84C96.6165 145.055 47.6002 145.051 3.90332 144.84Z" fill="#263238"/>
<path d="M116.552 18.6946C116.259 21.5135 115.188 24.1954 113.458 26.4408C111.729 28.6862 109.41 30.4066 106.759 31.4099C104.109 32.4133 101.231 32.6599 98.4486 32.1224C95.666 31.5849 93.0876 30.2844 91.0014 28.3661L83.3516 29.4896L87.1661 22.8766C86.2887 20.7238 85.9137 18.3993 86.0696 16.0798C86.2255 13.7603 86.9081 11.5069 88.0656 9.4908C89.2231 7.47472 90.825 5.74908 92.7496 4.44504C94.6741 3.14101 96.8706 2.2929 99.1721 1.9652C101.474 1.6375 103.82 1.83883 106.032 2.55388C108.244 3.26893 110.264 4.47888 111.938 6.09176C113.612 7.70464 114.896 9.67799 115.694 11.8618C116.491 14.0456 116.779 16.3824 116.538 18.6946H116.552Z" fill="white"/>
<path d="M116.551 18.6944C116.257 21.513 115.189 24.1952 113.465 26.4448C113.037 27.0062 112.574 27.5401 112.078 28.0434C111.568 28.5303 111.03 28.9865 110.466 29.4097C109.341 30.2628 108.103 30.9539 106.786 31.4626C105.464 31.9862 104.075 32.3223 102.66 32.4613C101.953 32.5254 101.243 32.5394 100.534 32.5029C99.8242 32.4843 99.117 32.4101 98.4187 32.281C95.5988 31.7625 92.9788 30.4693 90.8521 28.5462L91.0325 28.6017L83.4035 29.7738L82.8486 29.8605L83.1295 29.3715L86.944 22.7447L86.9267 23.0048C86.0283 20.8131 85.6458 18.4443 85.8088 16.0812C85.9717 13.7182 86.6757 11.4243 87.8664 9.37664C89.0579 7.3371 90.695 5.5933 92.6554 4.27561C94.6122 2.97709 96.8375 2.13817 99.1646 1.82168C101.492 1.5052 103.86 1.71936 106.093 2.44812C108.303 3.1991 110.317 4.43488 111.988 6.06496C113.655 7.68764 114.931 9.66737 115.722 11.855C116.512 14.0427 116.796 16.3812 116.551 18.6944ZM116.551 18.6944C116.797 16.3915 116.51 14.063 115.713 11.8885C114.916 9.71399 113.63 7.75152 111.955 6.15236C110.28 4.55321 108.26 3.36007 106.05 2.66493C103.841 1.96979 101.502 1.79121 99.2128 2.14296C96.945 2.48257 94.785 3.33662 92.8981 4.63972C91.0293 5.95237 89.4676 7.65489 88.3207 9.62978C87.1937 11.6124 86.5309 13.8248 86.3822 16.1006C86.2382 18.3735 86.6056 20.6498 87.4572 22.7621L87.5127 22.9008L87.4399 23.0256L83.5907 29.6143L83.3168 29.212L90.9735 28.1405H91.0776L91.1538 28.2133C93.1944 30.1212 95.7254 31.4239 98.4638 31.9758C99.1494 32.1159 99.8452 32.2006 100.544 32.229C102.644 32.3762 104.751 32.0686 106.72 31.3273C108.043 30.8512 109.288 30.1816 110.414 29.3403C110.979 28.9233 111.518 28.4729 112.03 27.9914C112.525 27.4939 112.988 26.9658 113.417 26.4101C115.153 24.1766 116.238 21.5062 116.551 18.6944Z" fill="#263238"/>
<path d="M106.787 19.7244C105.345 21.6509 103.507 23.245 101.395 24.3989C99.2848 23.2443 97.4471 21.6503 96.0061 19.7244C94.1092 17.2103 94.2029 13.2813 96.9181 12.4422C99.9212 11.4989 101.395 16.0174 101.395 16.0174C101.395 16.0174 102.893 11.4712 105.875 12.4422C108.587 13.3091 108.691 17.2033 106.787 19.7244Z" fill="#4F46E5"/>
</svg>
