<svg width="27" height="29" viewBox="0 0 27 29" fill="none" xmlns="http://www.w3.org/2000/svg">
<path fill-rule="evenodd" clip-rule="evenodd" d="M20.348 0.694228C15.8255 -0.23141 11.1745 -0.231409 6.652 0.694228C3.81943 1.27398 1.53987 3.47414 0.757857 6.38309L0.691301 6.63067C-0.230434 10.0593 -0.230434 13.6879 0.691301 17.1165L0.757856 17.3641C1.53988 20.2731 3.81943 22.4732 6.652 23.053C8.55483 23.4424 10.4804 23.668 12.4096 23.7298V26.7165H9.86518C9.26294 26.7165 8.77474 27.2277 8.77474 27.8582C8.77474 28.4888 9.26294 29 9.86518 29H17.1348C17.7371 29 18.2253 28.4888 18.2253 27.8582C18.2253 27.2277 17.7371 26.7165 17.1348 26.7165H14.5904V23.7298C16.5196 23.668 18.4452 23.4424 20.348 23.053C23.1806 22.4732 25.4601 20.2731 26.2421 17.3641L26.3087 17.1165C27.2304 13.6879 27.2304 10.0593 26.3087 6.63068L26.2421 6.38309C25.4601 3.47414 23.1806 1.27398 20.348 0.694228ZM16.751 13.6925C16.7631 13.6811 16.7752 13.6697 16.7873 13.6584L19.1723 11.4108C19.5305 11.0733 19.5595 10.4958 19.2372 10.1208C18.9149 9.74583 18.3633 9.71543 18.0052 10.0529L15.6201 12.3005C15.3867 12.5205 15.2354 12.6614 15.1222 12.7547C15.0346 12.6349 14.9214 12.4593 14.7472 12.1856L13.7046 10.5482C13.6956 10.534 13.6866 10.5199 13.6776 10.5057C13.4844 10.2022 13.2919 9.89967 13.1006 9.67501C12.8839 9.42062 12.5694 9.14401 12.1069 9.08317C11.6444 9.02233 11.2744 9.20887 11.0043 9.39924C10.7659 9.56736 10.5079 9.81059 10.249 10.0547C10.2369 10.0661 10.2249 10.0774 10.2128 10.0888L7.82771 12.3364C7.4696 12.6739 7.44057 13.2514 7.76287 13.6264C8.08517 14.0013 8.63675 14.0317 8.99486 13.6943L11.3799 11.4467C11.6134 11.2267 11.7646 11.0858 11.8778 10.9925C11.9654 11.1122 12.0787 11.2879 12.2529 11.5615L13.2955 13.199C13.2958 13.1995 13.2961 13.1999 13.2964 13.2004C13.3051 13.2141 13.3138 13.2278 13.3225 13.2415C13.5157 13.545 13.7082 13.8475 13.8995 14.0722C14.1161 14.3266 14.4306 14.6032 14.8931 14.664C15.3556 14.7249 15.7257 14.5383 15.9957 14.3479C16.2342 14.1798 16.4921 13.9366 16.751 13.6925Z" fill="#16A34A"/>
</svg>
