<svg width="29" height="28" viewBox="0 0 29 28" fill="none" xmlns="http://www.w3.org/2000/svg">
<path fill-rule="evenodd" clip-rule="evenodd" d="M21.536 19.7553C22.4681 19.617 23.6688 19.5901 25.3171 19.5852C24.1447 22.4278 21.6644 24.5743 18.6103 25.2907L18.6033 25.2924C18.6185 24.1066 18.661 23.1922 18.7771 22.4535C18.9289 21.4872 19.1887 20.9532 19.5764 20.5655C19.9732 20.1687 20.5237 19.9055 21.536 19.7553ZM19.1204 0.534642C16.0814 -0.178214 12.9186 -0.178214 9.87961 0.534643C5.49087 1.5641 2.0641 4.99086 1.03464 9.3796C0.321785 12.4186 0.321785 15.5814 1.03464 18.6204C2.0641 23.0091 5.49087 26.4359 9.87961 27.4654C12.4322 28.0641 15.072 28.16 17.6525 27.7529C18.1443 27.6753 18.6339 27.5795 19.1204 27.4654C23.5091 26.4359 26.9359 23.0091 27.9654 18.6204C28.6782 15.5814 28.6782 12.4186 27.9654 9.37961C26.9359 4.99087 23.5091 1.5641 19.1204 0.534642ZM9.13916 9.53262C9.13916 9.03918 9.53918 8.63916 10.0326 8.63916H14.5C14.9934 8.63916 15.3934 9.03918 15.3934 9.53262C15.3934 10.0261 14.9934 10.4261 14.5 10.4261H10.0326C9.53918 10.4261 9.13916 10.0261 9.13916 9.53262ZM9.13916 14C9.13916 13.5065 9.53918 13.1065 10.0326 13.1065H17.4782C17.9716 13.1065 18.3717 13.5065 18.3717 14C18.3717 14.4934 17.9716 14.8934 17.4782 14.8934H10.0326C9.53918 14.8934 9.13916 14.4934 9.13916 14Z" fill="#7C3AED"/>
</svg>
