<svg width="32" height="32" viewBox="0 0 32 32" fill="none" xmlns="http://www.w3.org/2000/svg">
<path fill-rule="evenodd" clip-rule="evenodd" d="M10.8387 0C11.6939 0 12.3871 0.693236 12.3871 1.54839V4.93482C13.0692 4.77949 13.7588 4.66871 14.4516 4.60249V1.54839C14.4516 0.693236 15.1448 0 16 0C16.8552 0 17.5484 0.693236 17.5484 1.54839V4.6025C18.2412 4.66872 18.9307 4.7795 19.6128 4.93482V1.54839C19.6128 0.693236 20.306 0 21.1612 0C22.0163 0 22.7096 0.693236 22.7096 1.54839V6.21079C23.9529 6.99399 25.0059 8.04704 25.7891 9.29032H30.4516C31.3068 9.29032 32 9.98356 32 10.8387C32 11.6939 31.3068 12.3871 30.4516 12.3871H27.0651C27.2204 13.0692 27.3312 13.7588 27.3974 14.4516H30.4516C31.3068 14.4516 32 15.1448 32 16C32 16.8552 31.3068 17.5484 30.4516 17.5484H27.3975C27.3312 18.2412 27.2204 18.9308 27.0651 19.6129H30.4516C31.3068 19.6129 32 20.3061 32 21.1613C32 22.0164 31.3068 22.7097 30.4516 22.7097H25.7891C25.0059 23.953 23.9529 25.006 22.7096 25.7892V30.4516C22.7096 31.3068 22.0163 32 21.1612 32C20.306 32 19.6128 31.3068 19.6128 30.4516V27.0652C18.9307 27.2205 18.2412 27.3313 17.5484 27.3975V30.4516C17.5484 31.3068 16.8552 32 16 32C15.1448 32 14.4516 31.3068 14.4516 30.4516V27.3975C13.7588 27.3313 13.0692 27.2205 12.3871 27.0652V30.4516C12.3871 31.3068 11.6939 32 10.8387 32C9.98356 32 9.29032 31.3068 9.29032 30.4516V25.7892C8.04704 25.006 6.99398 23.953 6.21077 22.7097H1.54839C0.693236 22.7097 0 22.0164 0 21.1613C0 20.3061 0.693236 19.6129 1.54839 19.6129H4.93478C4.77945 18.9308 4.66867 18.2412 4.60244 17.5484H1.54839C0.693236 17.5484 0 16.8552 0 16C0 15.1448 0.693236 14.4516 1.54839 14.4516H4.60244C4.66867 13.7588 4.77945 13.0692 4.93478 12.3871H1.54839C0.693236 12.3871 0 11.6939 0 10.8387C0 9.98356 0.693236 9.29032 1.54839 9.29032H6.21077C6.99398 8.04704 8.04704 6.99399 9.29032 6.21079V1.54839C9.29032 0.693236 9.98356 0 10.8387 0ZM14.9379 13.3924C15.6364 13.2286 16.3634 13.2286 17.062 13.3924C17.8289 13.5723 18.4276 14.1711 18.6075 14.938C18.7714 15.6365 18.7714 16.3635 18.6075 17.062C18.4276 17.8289 17.8289 18.4277 17.062 18.6076C16.3634 18.7714 15.6364 18.7714 14.9379 18.6076C14.171 18.4277 13.5722 17.8289 13.3924 17.062C13.2285 16.3635 13.2285 15.6365 13.3924 14.938C13.5722 14.1711 14.171 13.5723 14.9379 13.3924ZM17.6277 10.9805C16.5571 10.7293 15.4428 10.7293 14.3721 10.9805C12.6892 11.3752 11.3752 12.6893 10.9804 14.3722C10.7293 15.4429 10.7293 16.5571 10.9804 17.6278C11.3752 19.3107 12.6892 20.6248 14.3721 21.0195C15.4428 21.2707 16.5571 21.2707 17.6277 21.0195C19.3107 20.6248 20.6247 19.3107 21.0195 17.6278C21.2706 16.5571 21.2706 15.4429 21.0195 14.3722C20.6247 12.6893 19.3107 11.3752 17.6277 10.9805Z" fill="#0D9488"/>
</svg>
