<svg width="29" height="29" viewBox="0 0 29 29" fill="none" xmlns="http://www.w3.org/2000/svg">
<path fill-rule="evenodd" clip-rule="evenodd" d="M19.2854 0.553737C16.1379 -0.184579 12.8621 -0.184579 9.71459 0.553737C5.16911 1.61996 1.61996 5.16911 0.553739 9.71459C-0.184579 12.8621 -0.18458 16.1379 0.553739 19.2854C1.61997 23.8309 5.16912 27.38 9.7146 28.4463C12.8621 29.1846 16.1379 29.1846 19.2854 28.4463C23.8309 27.38 27.38 23.8309 28.4463 19.2854C29.1846 16.1379 29.1846 12.8621 28.4463 9.7146C27.38 5.16911 23.8309 1.61996 19.2854 0.553737ZM15.5019 8.45078C16.1713 7.78147 17.079 7.40545 18.0256 7.40545C19.9967 7.40545 21.5946 9.00333 21.5946 10.9744C21.5946 11.921 21.2185 12.8288 20.5492 13.4981L16.522 17.5253C14.6526 19.3947 12.3102 20.7209 9.74543 21.3621L8.96704 21.5567C8.04678 21.7868 7.2132 20.9532 7.44327 20.033L7.63787 19.2546C8.27907 16.6898 9.60527 14.3475 11.4747 12.478L15.5019 8.45078ZM18.0256 9.2562C17.5699 9.2562 17.1329 9.43723 16.8106 9.75946L16.2265 10.3435C16.169 10.8028 16.3984 11.4438 16.9773 12.0227C17.5562 12.6016 18.1972 12.831 18.6565 12.7735L19.2406 12.1894C19.5628 11.8672 19.7438 11.4301 19.7438 10.9744C19.7438 10.0255 18.9745 9.2562 18.0256 9.2562ZM17.1054 14.3246C16.5552 14.0826 16.0604 13.7232 15.6686 13.3314C15.2768 12.9396 14.9174 12.4448 14.6755 11.8946L12.7834 13.7867C11.196 15.374 10.0573 17.3519 9.48092 19.5191C11.6481 18.9427 13.626 17.804 15.2133 16.2167L17.1054 14.3246Z" fill="#2563EB"/>
</svg>
